<svg xmlns="http://www.w3.org/2000/svg">
    <symbol id="add" viewBox="0 0 120 120">
        <path d="M58.7501 15C59.6563 15 60.5318 15.3282 61.2147 15.9238C61.8977 16.5195 62.3418 17.3422 62.4651 18.24L62.5001 18.75L62.5051 55H98.7701C99.7202 55.0003 100.635 55.3612 101.329 56.0099C102.023 56.6585 102.445 57.5465 102.51 58.4944C102.575 59.4423 102.278 60.3795 101.678 61.1165C101.078 61.8535 100.221 62.3355 99.2801 62.465L98.7701 62.5H62.5051L62.5151 98.75C62.5135 99.6997 62.1517 100.613 61.5027 101.307C60.8536 102 59.9657 102.421 59.0182 102.485C58.0707 102.549 57.1341 102.252 56.3976 101.652C55.6611 101.053 55.1795 100.196 55.0501 99.255L55.0151 98.745L55.0051 62.5H18.7601C17.81 62.4997 16.8954 62.1388 16.2011 61.4901C15.5069 60.8415 15.0847 59.9535 15.02 59.0056C14.9552 58.0577 15.2527 57.1205 15.8523 56.3835C16.4518 55.6465 17.3088 55.1645 18.2501 55.035L18.7601 55H55.0101L55.0001 18.75C55.0001 17.7554 55.3952 16.8016 56.0984 16.0983C56.8017 15.3951 57.7555 15 58.7501 15Z" fill="currentColor"/>
    </symbol>
</svg>
