<svg xmlns="http://www.w3.org/2000/svg">
    <symbol id="alarm" viewBox="0 0 120 120">
        <path d="M60.0001 38.75C60.0001 37.7554 59.605 36.8016 58.9017 36.0983C58.1985 35.3951 57.2447 35 56.2501 35C55.2555 35 54.3017 35.3951 53.5984 36.0983C52.8952 36.8016 52.5001 37.7554 52.5001 38.75V63.75C52.5001 65.82 54.1801 67.5 56.2501 67.5H73.7501C74.7447 67.5 75.6985 67.1049 76.4017 66.4016C77.105 65.6984 77.5001 64.7445 77.5001 63.75C77.5001 62.7554 77.105 61.8016 76.4017 61.0983C75.6985 60.3951 74.7447 60 73.7501 60H60.0001V38.75ZM17.3801 45.515C15.2079 43.749 13.4306 41.5466 12.1633 39.0504C10.896 36.5541 10.1668 33.8197 10.023 31.0238C9.87918 28.228 10.3239 25.4331 11.3284 22.8201C12.333 20.207 13.8749 17.8339 15.8544 15.8543C17.834 13.8748 20.2071 12.3328 22.8202 11.3283C25.4333 10.3238 28.2281 9.87906 31.024 10.0229C33.8198 10.1667 36.5543 10.8958 39.0505 12.1632C41.5467 13.4305 43.7491 15.2078 45.5151 17.38C50.1806 15.7992 55.074 14.9951 60.0001 15C64.9262 14.9951 69.8196 15.7992 74.4851 17.38C76.2511 15.2078 78.4535 13.4305 80.9497 12.1632C83.4459 10.8958 86.1804 10.1667 88.9762 10.0229C91.7721 9.87906 94.5669 10.3238 97.18 11.3283C99.7931 12.3328 102.166 13.8748 104.146 15.8543C106.125 17.8339 107.667 20.207 108.672 22.8201C109.676 25.4331 110.121 28.228 109.977 31.0238C109.833 33.8197 109.104 36.5541 107.837 39.0504C106.57 41.5466 104.792 43.749 102.62 45.515C104.201 50.1805 105.005 55.0739 105 60C105 71.075 101 81.22 94.3601 89.06L103.9 98.6C104.269 98.9433 104.564 99.3573 104.769 99.8173C104.974 100.277 105.084 100.774 105.093 101.277C105.102 101.781 105.009 102.281 104.821 102.748C104.632 103.215 104.351 103.639 103.995 103.995C103.639 104.351 103.215 104.632 102.748 104.821C102.281 105.009 101.781 105.102 101.277 105.093C100.774 105.084 100.277 104.974 99.8174 104.769C99.3574 104.564 98.9434 104.268 98.6001 103.9L89.0601 94.36C80.9448 101.246 70.6431 105.018 60.0001 105C48.9251 105 38.7801 101 30.9401 94.36L21.4001 103.9C20.6892 104.562 19.749 104.923 18.7775 104.906C17.806 104.889 16.8791 104.495 16.192 103.808C15.5049 103.121 15.1114 102.194 15.0942 101.223C15.0771 100.251 15.4377 99.3109 16.1001 98.6L25.6401 89.06C18.7542 80.9447 14.9823 70.643 15.0001 60C15.0001 54.935 15.8351 50.06 17.3801 45.515ZM17.5001 30C17.5001 33.155 18.6701 36.04 20.6001 38.24C24.7089 30.8216 30.8218 24.7088 38.2401 20.6C36.4335 19.0163 34.2088 17.9867 31.8323 17.6346C29.4558 17.2824 27.0282 17.6226 24.84 18.6144C22.6518 19.6061 20.7957 21.2075 19.494 23.2267C18.1923 25.2459 17.5 27.5975 17.5001 30ZM99.4001 38.24C101.493 35.8539 102.6 32.761 102.497 29.5887C102.393 26.4163 101.087 23.4022 98.8422 21.1579C96.5978 18.9135 93.5837 17.607 90.4114 17.5034C87.2391 17.3997 84.1461 18.5068 81.7601 20.6C89.1784 24.7088 95.2913 30.8216 99.4001 38.24ZM22.5001 60C22.5001 69.9456 26.451 79.4839 33.4836 86.5165C40.5162 93.5491 50.0545 97.5 60.0001 97.5C69.9457 97.5 79.484 93.5491 86.5166 86.5165C93.5492 79.4839 97.5001 69.9456 97.5001 60C97.5001 50.0544 93.5492 40.5161 86.5166 33.4835C79.484 26.4509 69.9457 22.5 60.0001 22.5C50.0545 22.5 40.5162 26.4509 33.4836 33.4835C26.451 40.5161 22.5001 50.0544 22.5001 60Z" fill="currentColor"/>
    </symbol>
</svg>
