<svg xmlns="http://www.w3.org/2000/svg">
    <symbol id="arrow-down-bold" viewBox="0 0 120 120">
        <path d="M60 15C61.326 15 62.5978 15.5268 63.5355 16.4645C64.4732 17.4021 65 18.6739 65 20V87.93L91.46 61.46C91.9248 60.9951 92.4767 60.6264 93.0841 60.3748C93.6915 60.1232 94.3425 59.9937 95 59.9937C95.6574 59.9937 96.3084 60.1232 96.9158 60.3748C97.5232 60.6264 98.0751 60.9951 98.54 61.46C99.0048 61.9249 99.3736 62.4768 99.6252 63.0842C99.8768 63.6916 100.006 64.3426 100.006 65C100.006 65.6574 99.8768 66.3084 99.6252 66.9158C99.3736 67.5232 99.0048 68.0751 98.54 68.54L63.54 103.54C63.0755 104.006 62.5238 104.375 61.9163 104.627C61.3089 104.879 60.6576 105.009 60 105.009C59.3423 105.009 58.6911 104.879 58.0836 104.627C57.4762 104.375 56.9244 104.006 56.46 103.54L21.46 68.54C20.9951 68.0751 20.6263 67.5232 20.3747 66.9158C20.1231 66.3084 19.9937 65.6574 19.9937 65C19.9937 64.3426 20.1231 63.6916 20.3747 63.0842C20.6263 62.4768 20.9951 61.9249 21.46 61.46C21.9248 60.9951 22.4767 60.6264 23.0841 60.3748C23.6915 60.1232 24.3425 59.9937 25 59.9937C25.6574 59.9937 26.3084 60.1232 26.9158 60.3748C27.5232 60.6264 28.0751 60.9951 28.54 61.46L55 87.93V20C55 18.6739 55.5268 17.4021 56.4644 16.4645C57.4021 15.5268 58.6739 15 60 15Z" fill="currentColor"/>
    </symbol>
</svg>