<svg xmlns="http://www.w3.org/2000/svg">
    <symbol id="arrow-up-bold" viewBox="0 0 120 120">
        <path d="M60 105C61.326 105 62.5978 104.473 63.5355 103.536C64.4732 102.598 65 101.326 65 100V32.07L91.46 58.54C92.3988 59.4789 93.6722 60.0063 95 60.0063C96.3277 60.0063 97.6011 59.4789 98.54 58.54C99.4788 57.6012 100.006 56.3278 100.006 55C100.006 53.6723 99.4788 52.3989 98.54 51.46L63.54 16.46C63.0755 15.9944 62.5238 15.625 61.9163 15.3729C61.3089 15.1208 60.6576 14.9911 60 14.9911C59.3423 14.9911 58.6911 15.1208 58.0836 15.3729C57.4762 15.625 56.9244 15.9944 56.46 16.46L21.46 51.46C20.9951 51.9249 20.6263 52.4768 20.3747 53.0842C20.1231 53.6916 19.9937 54.3426 19.9937 55C19.9937 56.3278 20.5211 57.6012 21.46 58.54C22.3988 59.4789 23.6722 60.0063 25 60.0063C26.3277 60.0063 27.6011 59.4789 28.54 58.54L55 32.07V100C55 101.326 55.5268 102.598 56.4644 103.536C57.4021 104.473 58.6739 105 60 105Z" fill="currentColor"/>
    </symbol>
</svg>
