<svg xmlns="http://www.w3.org/2000/svg">
    <symbol id="arrow-right-bold" viewBox="0 0 120 120">
        <path d="M15 60C15 58.6739 15.5268 57.4022 16.4645 56.4645C17.4021 55.5268 18.6739 55 20 55H87.93L61.46 28.54C60.9951 28.0752 60.6264 27.5233 60.3748 26.9159C60.1232 26.3085 59.9937 25.6575 59.9937 25C59.9937 24.3426 60.1232 23.6916 60.3748 23.0842C60.6264 22.4768 60.9951 21.9249 61.46 21.46C61.9249 20.9951 62.4768 20.6264 63.0842 20.3748C63.6916 20.1232 64.3426 19.9937 65 19.9937C65.6574 19.9937 66.3084 20.1232 66.9158 20.3748C67.5232 20.6264 68.0751 20.9951 68.54 21.46L103.54 56.46C104.006 56.9245 104.375 57.4762 104.627 58.0837C104.879 58.6911 105.009 59.3424 105.009 60C105.009 60.6577 104.879 61.3089 104.627 61.9164C104.375 62.5238 104.006 63.0756 103.54 63.54L68.54 98.54C67.6011 99.4789 66.3278 100.006 65 100.006C63.6722 100.006 62.3989 99.4789 61.46 98.54C60.5211 97.6012 59.9937 96.3278 59.9937 95C59.9937 93.6723 60.5211 92.3989 61.46 91.46L87.93 65H20C18.6739 65 17.4021 64.4732 16.4645 63.5356C15.5268 62.5979 15 61.3261 15 60Z" fill="currentColor"/>
    </symbol>
</svg>