<svg xmlns="http://www.w3.org/2000/svg">
    <symbol id="arrow-left-bold" viewBox="0 0 120 120">
        <path d="M105 60C105 58.6739 104.473 57.4022 103.536 56.4645C102.598 55.5268 101.326 55 100 55H32.0701L58.5401 28.54C59.005 28.0752 59.3738 27.5233 59.6254 26.9159C59.877 26.3085 60.0065 25.6575 60.0065 25C60.0065 24.3426 59.877 23.6916 59.6254 23.0842C59.3738 22.4768 59.005 21.9249 58.5401 21.46C58.0753 20.9951 57.5234 20.6264 56.916 20.3748C56.3086 20.1232 55.6576 19.9937 55.0001 19.9937C54.3427 19.9937 53.6917 20.1232 53.0843 20.3748C52.4769 20.6264 51.925 20.9951 51.4601 21.46L16.4601 56.46C15.9945 56.9245 15.6251 57.4762 15.373 58.0837C15.121 58.6911 14.9912 59.3424 14.9912 60C14.9912 60.6577 15.121 61.3089 15.373 61.9164C15.6251 62.5238 15.9945 63.0756 16.4601 63.54L51.4601 98.54C51.925 99.0049 52.4769 99.3737 53.0843 99.6253C53.6917 99.8769 54.3427 100.006 55.0001 100.006C55.6576 100.006 56.3086 99.8769 56.916 99.6253C57.5234 99.3737 58.0753 99.0049 58.5401 98.54C59.005 98.0751 59.3738 97.5233 59.6254 96.9159C59.877 96.3085 60.0065 95.6575 60.0065 95C60.0065 94.3426 59.877 93.6916 59.6254 93.0842C59.3738 92.4768 59.005 91.9249 58.5401 91.46L32.0701 65H100C101.326 65 102.598 64.4732 103.536 63.5356C104.473 62.5979 105 61.3261 105 60Z" fill="currentColor"/>
    </symbol>
</svg>
