<svg xmlns="http://www.w3.org/2000/svg">
    <symbol id="bell-filled" viewBox="0 0 120 120">
        <path d="M45.21 95.015H74.79C74.1989 98.51 72.3893 101.683 69.682 103.971C66.9747 106.259 63.5446 107.514 60 107.514C56.4554 107.514 53.0253 106.259 50.318 103.971C47.6106 101.683 45.801 98.51 45.21 95.015ZM60 10.015C69.9456 10.015 79.4839 13.9659 86.5165 20.9985C93.5491 28.0311 97.5 37.5694 97.5 47.515V67.515L104.59 83.315C104.912 84.0376 105.049 84.8294 104.988 85.6182C104.926 86.4071 104.669 87.1682 104.239 87.8323C103.809 88.4964 103.219 89.0426 102.524 89.4211C101.83 89.7997 101.051 89.9987 100.26 90H19.76C18.9676 89.9999 18.1879 89.8015 17.4918 89.4231C16.7957 89.0446 16.2053 88.498 15.7745 87.833C15.3436 87.1681 15.0859 86.4059 15.0249 85.616C14.9638 84.826 15.1014 84.0333 15.425 83.31L22.5 67.51V47.45L22.525 46.2C22.867 36.4893 26.965 27.2904 33.9555 20.5415C40.946 13.7925 50.2832 10.0155 60 10.015Z" fill="currentColor"/>
    </symbol>
</svg>
