<svg xmlns="http://www.w3.org/2000/svg">
    <symbol id="bell" viewBox="0 0 120 120">
        <path d="M60 9.98001C69.7331 9.96722 79.0888 13.7442 86.085 20.5108C93.0812 27.2774 97.1682 36.5019 97.48 46.23L97.5 47.48V67.965L104.4 83.745C104.815 84.6959 104.987 85.7351 104.9 86.769C104.813 87.8028 104.47 88.7988 103.902 89.6669C103.334 90.5351 102.559 91.2482 101.646 91.742C100.734 92.2357 99.7125 92.4945 98.675 92.495L75 92.51C75.0051 96.415 73.4872 100.168 70.7688 102.971C68.0505 105.775 64.346 107.408 60.4427 107.523C56.5394 107.638 52.7451 106.227 49.8661 103.589C46.987 100.95 45.2503 97.2935 45.025 93.395L45 92.495H21.375C20.3386 92.4951 19.3185 92.2374 18.4064 91.7451C17.4943 91.2529 16.719 90.5416 16.1502 89.6752C15.5814 88.8089 15.2369 87.8146 15.1479 86.7821C15.0588 85.7495 15.2279 84.711 15.64 83.76L22.5 67.97V47.48C22.5 26.705 39.26 9.98001 60 9.98001ZM67.5 92.5L52.5 92.51C52.4997 94.4365 53.2407 96.2893 54.5695 97.6842C55.8982 99.0792 57.7128 99.9093 59.6371 100.003C61.5614 100.096 63.4477 99.4449 64.9051 98.185C66.3625 96.925 67.2791 95.1525 67.465 93.235L67.5 92.5ZM60 17.48C43.4 17.48 30 30.85 30 47.48V69.53L23.28 85H96.765L90 69.535V47.545L89.985 46.42C89.7228 38.6471 86.4471 31.281 80.851 25.8799C75.255 20.4789 67.7774 17.4665 60 17.48Z" fill="currentColor"/>
    </symbol>
</svg>

