<svg xmlns="http://www.w3.org/2000/svg">
    <symbol id="book-data" viewBox="0 0 120 120">
        <path d="M35 30C35 28.6739 35.5268 27.4021 36.4645 26.4645C37.4021 25.5268 38.6739 25 40 25H80C81.3261 25 82.5979 25.5268 83.5355 26.4645C84.4732 27.4021 85 28.6739 85 30V40C85 41.3261 84.4732 42.5979 83.5355 43.5355C82.5979 44.4732 81.3261 45 80 45H40C38.6739 45 37.4021 44.4732 36.4645 43.5355C35.5268 42.5979 35 41.3261 35 40V30ZM42.5 37.5H77.5V32.5H42.5V37.5ZM20 22.5C20 19.1848 21.317 16.0054 23.6612 13.6612C26.0054 11.317 29.1848 10 32.5 10H90C91.6415 10 93.267 10.3233 94.7835 10.9515C96.3001 11.5797 97.6781 12.5004 98.8388 13.6612C99.9996 14.8219 100.92 16.1999 101.548 17.7165C102.177 19.233 102.5 20.8585 102.5 22.5V56.495C101.106 56.141 99.6963 55.854 98.275 55.635C97.2083 55.4683 96.1167 55.3317 95 55.225V22.5C95 21.1739 94.4732 19.9021 93.5355 18.9645C92.5979 18.0268 91.3261 17.5 90 17.5H32.5C31.1739 17.5 29.9021 18.0268 28.9645 18.9645C28.0268 19.9021 27.5 21.1739 27.5 22.5V90H60V97.5H27.5C27.5 98.8261 28.0268 100.098 28.9645 101.036C29.9021 101.973 31.1739 102.5 32.5 102.5H60C60 105.38 61.08 107.92 62.67 110H32.5C29.1848 110 26.0054 108.683 23.6612 106.339C21.317 103.995 20 100.815 20 97.5V22.5ZM97.5 60.57C100.059 60.9596 102.571 61.6062 105 62.5C111.07 64.78 115 68.41 115 72.5C115 76.59 111.07 80.22 105 82.5C102.571 83.3938 100.059 84.0404 97.5 84.43C95.0179 84.808 92.5108 84.9986 90 85C76.195 85 65 79.4 65 72.5C65 65.6 76.195 60 90 60C92.615 60 95.13 60.2 97.5 60.57ZM97.5 89.48C100.044 89.1316 102.553 88.5663 105 87.79C106.757 87.2267 108.395 86.5667 109.915 85.81C111.74 84.9047 113.448 83.7797 115 82.46V102.5C115 109.4 103.805 115 90 115C79.75 115 70.94 111.915 67.08 107.5C65.74 105.97 65 104.28 65 102.5V82.46C66.55 83.81 68.315 84.925 70.085 85.81C75.44 88.49 82.485 90 90 90C92.57 90 95.085 89.825 97.5 89.48Z" fill="currentColor"/>
    </symbol>
</svg>
