<svg xmlns="http://www.w3.org/2000/svg">
    <symbol id="book-find" viewBox="0 0 120 120">
        <path d="M74.095 58.975C76.6662 55.1325 77.7159 50.4708 77.0398 45.897C76.3637 41.3233 74.0101 37.1647 70.4372 34.2304C66.8642 31.2962 62.3273 29.7961 57.7094 30.0222C53.0915 30.2483 48.7229 32.1844 45.4536 35.4536C42.1844 38.7229 40.2483 43.0915 40.0222 47.7094C39.7961 52.3273 41.2962 56.8642 44.2304 60.4372C47.1647 64.0101 51.3233 66.3637 55.897 67.0398C60.4708 67.7159 65.1325 66.6662 68.975 64.095L81.355 76.47L81.69 76.76L81.73 76.79C82.4647 77.3229 83.3728 77.5604 84.2743 77.4554C85.1759 77.3503 86.0051 76.9105 86.5976 76.223C87.1901 75.5355 87.5028 74.6504 87.4736 73.7433C87.4444 72.8361 87.0755 71.973 86.44 71.325L74.095 58.975ZM58.62 37.235C61.6388 37.235 64.534 38.4342 66.6686 40.5689C68.8033 42.7035 70.0025 45.5987 70.0025 48.6175C70.0025 51.6363 68.8033 54.5315 66.6686 56.6661C64.534 58.8008 61.6388 60 58.62 60C55.6012 60 52.706 58.8008 50.5714 56.6661C48.4367 54.5315 47.2375 51.6363 47.2375 48.6175C47.2375 45.5987 48.4367 42.7035 50.5714 40.5689C52.706 38.4342 55.6012 37.235 58.62 37.235ZM32.5 10C29.1848 10 26.0054 11.317 23.6612 13.6612C21.317 16.0054 20 19.1848 20 22.5V97.5C20 100.815 21.317 103.995 23.6612 106.339C26.0054 108.683 29.1848 110 32.5 110H98.75C99.7446 110 100.698 109.605 101.402 108.902C102.105 108.198 102.5 107.245 102.5 106.25C102.5 105.255 102.105 104.302 101.402 103.598C100.698 102.895 99.7446 102.5 98.75 102.5H32.5C31.1739 102.5 29.9021 101.973 28.9645 101.036C28.0268 100.098 27.5 98.8261 27.5 97.5H98.75C99.7446 97.5 100.698 97.1049 101.402 96.4017C102.105 95.6984 102.5 94.7446 102.5 93.75V22.5C102.5 20.8585 102.177 19.233 101.548 17.7165C100.92 16.1999 99.9996 14.8219 98.8388 13.6612C97.6781 12.5004 96.3001 11.5797 94.7835 10.9515C93.267 10.3233 91.6415 10 90 10H32.5ZM95 90H27.5V22.5C27.5 21.1739 28.0268 19.9021 28.9645 18.9645C29.9021 18.0268 31.1739 17.5 32.5 17.5H90C91.3261 17.5 92.5979 18.0268 93.5355 18.9645C94.4732 19.9021 95 21.1739 95 22.5V90Z" fill="currentColor"/>
    </symbol>
</svg>
