<svg xmlns="http://www.w3.org/2000/svg">
    <symbol id="book-add" viewBox="0 0 120 120">
        <path d="M35 30C35 28.6739 35.5268 27.4021 36.4645 26.4645C37.4021 25.5268 38.6739 25 40 25H80C81.3261 25 82.5979 25.5268 83.5355 26.4645C84.4732 27.4021 85 28.6739 85 30V40C85 41.3261 84.4732 42.5979 83.5355 43.5355C82.5979 44.4732 81.3261 45 80 45H40C38.6739 45 37.4021 44.4732 36.4645 43.5355C35.5268 42.5979 35 41.3261 35 40V30ZM42.5 37.5H77.5V32.5H42.5V37.5ZM20 22.5C20 19.1848 21.317 16.0054 23.6612 13.6612C26.0054 11.317 29.1848 10 32.5 10H90C91.6415 10 93.267 10.3233 94.7835 10.9515C96.3001 11.5797 97.6781 12.5004 98.8388 13.6612C99.9996 14.8219 100.92 16.1999 101.548 17.7165C102.177 19.233 102.5 20.8585 102.5 22.5V58.66C100.124 57.4246 97.6054 56.4875 95 55.87V22.5C95 21.1739 94.4732 19.9021 93.5355 18.9645C92.5979 18.0268 91.3261 17.5 90 17.5H32.5C31.1739 17.5 29.9021 18.0268 28.9645 18.9645C28.0268 19.9021 27.5 21.1739 27.5 22.5V90H55.095C55.2983 92.6067 55.7883 95.1067 56.565 97.5H27.5C27.5 98.8261 28.0268 100.098 28.9645 101.036C29.9021 101.973 31.1739 102.5 32.5 102.5H58.66C60.0905 105.244 61.9055 107.769 64.05 110H32.5C29.1848 110 26.0054 108.683 23.6612 106.339C21.317 103.995 20 100.815 20 97.5V22.5ZM115 87.5C115 80.2065 112.103 73.2118 106.945 68.0546C101.788 62.8973 94.7935 60 87.5 60C80.2065 60 73.2118 62.8973 68.0546 68.0546C62.8973 73.2118 60 80.2065 60 87.5C60 94.7935 62.8973 101.788 68.0546 106.945C73.2118 112.103 80.2065 115 87.5 115C94.7935 115 101.788 112.103 106.945 106.945C112.103 101.788 115 94.7935 115 87.5ZM90 90L90.005 102.515C90.005 103.178 89.7416 103.814 89.2728 104.283C88.8039 104.752 88.168 105.015 87.505 105.015C86.842 105.015 86.2061 104.752 85.7372 104.283C85.2684 103.814 85.005 103.178 85.005 102.515V90H72.48C71.817 90 71.1811 89.7366 70.7122 89.2678C70.2434 88.7989 69.98 88.163 69.98 87.5C69.98 86.837 70.2434 86.2011 70.7122 85.7322C71.1811 85.2634 71.817 85 72.48 85H85V72.5C85 71.837 85.2634 71.2011 85.7322 70.7322C86.2011 70.2634 86.837 70 87.5 70C88.163 70 88.7989 70.2634 89.2678 70.7322C89.7366 71.2011 90 71.837 90 72.5V85H102.485C103.148 85 103.784 85.2634 104.253 85.7322C104.722 86.2011 104.985 86.837 104.985 87.5C104.985 88.163 104.722 88.7989 104.253 89.2678C103.784 89.7366 103.148 90 102.485 90H90Z" fill="currentColor"/>
    </symbol>
</svg>
