<svg xmlns="http://www.w3.org/2000/svg">
    <symbol id="book" viewBox="0 0 120 120">
        <path d="M35 30C35 28.6739 35.5268 27.4021 36.4645 26.4645C37.4021 25.5268 38.6739 25 40 25H80C81.3261 25 82.5979 25.5268 83.5355 26.4645C84.4732 27.4021 85 28.6739 85 30V40C85 41.3261 84.4732 42.5979 83.5355 43.5355C82.5979 44.4732 81.3261 45 80 45H40C38.6739 45 37.4021 44.4732 36.4645 43.5355C35.5268 42.5979 35 41.3261 35 40V30ZM42.5 37.5H77.5V32.5H42.5V37.5ZM20 22.5C20 19.1848 21.317 16.0054 23.6612 13.6612C26.0054 11.317 29.1848 10 32.5 10H90C91.6415 10 93.267 10.3233 94.7835 10.9515C96.3001 11.5797 97.6781 12.5004 98.8388 13.6612C99.9996 14.8219 100.92 16.1999 101.548 17.7165C102.177 19.233 102.5 20.8585 102.5 22.5V93.75C102.5 94.7446 102.105 95.6984 101.402 96.4017C100.698 97.1049 99.7446 97.5 98.75 97.5H27.5C27.5 98.8261 28.0268 100.098 28.9645 101.036C29.9021 101.973 31.1739 102.5 32.5 102.5H98.75C99.7446 102.5 100.698 102.895 101.402 103.598C102.105 104.302 102.5 105.255 102.5 106.25C102.5 107.245 102.105 108.198 101.402 108.902C100.698 109.605 99.7446 110 98.75 110H32.5C29.1848 110 26.0054 108.683 23.6612 106.339C21.317 103.995 20 100.815 20 97.5V22.5ZM27.5 90H95V22.5C95 21.1739 94.4732 19.9021 93.5355 18.9645C92.5979 18.0268 91.3261 17.5 90 17.5H32.5C31.1739 17.5 29.9021 18.0268 28.9645 18.9645C28.0268 19.9021 27.5 21.1739 27.5 22.5V90Z" fill="currentColor"/>
    </symbol>
</svg>
