<svg xmlns="http://www.w3.org/2000/svg">
    <symbol id="book-download" viewBox="0 0 120 120">
        <path d="M35 30C35 28.6739 35.5268 27.4021 36.4645 26.4645C37.4021 25.5268 38.6739 25 40 25H80C81.3261 25 82.5979 25.5268 83.5355 26.4645C84.4732 27.4021 85 28.6739 85 30V40C85 41.3261 84.4732 42.5979 83.5355 43.5355C82.5979 44.4732 81.3261 45 80 45H40C38.6739 45 37.4021 44.4732 36.4645 43.5355C35.5268 42.5979 35 41.3261 35 40V30ZM42.5 37.5H77.5V32.5H42.5V37.5ZM20 22.5C20 19.1848 21.317 16.0054 23.6612 13.6612C26.0054 11.317 29.1848 10 32.5 10H90C91.6415 10 93.267 10.3233 94.7835 10.9515C96.3001 11.5797 97.6781 12.5004 98.8388 13.6612C99.9996 14.8219 100.92 16.1999 101.548 17.7165C102.177 19.233 102.5 20.8585 102.5 22.5V58.66C100.124 57.4246 97.6054 56.4875 95 55.87V22.5C95 21.1739 94.4732 19.9021 93.5355 18.9645C92.5979 18.0268 91.3261 17.5 90 17.5H32.5C31.1739 17.5 29.9021 18.0268 28.9645 18.9645C28.0268 19.9021 27.5 21.1739 27.5 22.5V90H55.095C55.2983 92.6067 55.7883 95.1067 56.565 97.5H27.5C27.5 98.8261 28.0268 100.098 28.9645 101.036C29.9021 101.973 31.1739 102.5 32.5 102.5H58.66C60.0905 105.244 61.9055 107.769 64.05 110H32.5C29.1848 110 26.0054 108.683 23.6612 106.339C21.317 103.995 20 100.815 20 97.5V22.5Z" fill="currentColor"/>
<path d="M115 87.5C115 94.7935 112.103 101.788 106.945 106.945C101.788 112.103 94.7935 115 87.5 115C80.2065 115 73.2118 112.103 68.0546 106.945C62.8973 101.788 60 94.7935 60 87.5C60 80.2065 62.8973 73.2118 68.0546 68.0546C73.2118 62.8973 80.2065 60 87.5 60C94.7935 60 101.788 62.8973 106.945 68.0546C112.103 73.2118 115 80.2065 115 87.5ZM90 72.5C90 71.837 89.7366 71.2011 89.2678 70.7322C88.7989 70.2634 88.163 70 87.5 70C86.837 70 86.2011 70.2634 85.7322 70.7322C85.2634 71.2011 85 71.837 85 72.5V96.465L76.77 88.23C76.3006 87.7606 75.6639 87.4968 75 87.4968C74.3361 87.4968 73.6994 87.7606 73.23 88.23C72.7606 88.6994 72.4968 89.3361 72.4968 90C72.4968 90.6639 72.7606 91.3006 73.23 91.77L85.73 104.27C85.9622 104.503 86.2381 104.688 86.5418 104.814C86.8456 104.94 87.1712 105.004 87.5 105.004C87.8288 105.004 88.1544 104.94 88.4582 104.814C88.7619 104.688 89.0378 104.503 89.27 104.27L101.77 91.77C102.239 91.3006 102.503 90.6639 102.503 90C102.503 89.3361 102.239 88.6994 101.77 88.23C101.301 87.7606 100.664 87.4968 100 87.4968C99.3361 87.4968 98.6994 87.7606 98.23 88.23L90 96.465V72.5Z" fill="currentColor"/>
    </symbol>
</svg>
