<svg xmlns="http://www.w3.org/2000/svg">
    <symbol id="boolean-empty" viewBox="0 0 120 120">
        <path d="M15 31.25C15 26.9402 16.712 22.807 19.7595 19.7595C22.807 16.712 26.9402 15 31.25 15H88.75C93.0598 15 97.193 16.712 100.24 19.7595C103.288 22.807 105 26.9402 105 31.25V88.75C105 93.0598 103.288 97.193 100.24 100.24C97.193 103.288 93.0598 105 88.75 105H31.25C26.9402 105 22.807 103.288 19.7595 100.24C16.712 97.193 15 93.0598 15 88.75V31.25ZM31.25 22.5C28.9294 22.5 26.7038 23.4219 25.0628 25.0628C23.4219 26.7038 22.5 28.9294 22.5 31.25V88.75C22.5 93.58 26.42 97.5 31.25 97.5H88.75C91.0706 97.5 93.2962 96.5781 94.9372 94.9372C96.5781 93.2962 97.5 91.0706 97.5 88.75V31.25C97.5 28.9294 96.5781 26.7038 94.9372 25.0628C93.2962 23.4219 91.0706 22.5 88.75 22.5H31.25Z" fill="currentColor"/>
    </symbol>
</svg>
