<svg xmlns="http://www.w3.org/2000/svg">
    <symbol id="boolean-filled" viewBox="0 0 120 120">
        <path d="M31.25 15C26.9402 15 22.807 16.712 19.7595 19.7595C16.712 22.807 15 26.9402 15 31.25V88.75C15 93.0598 16.712 97.193 19.7595 100.24C22.807 103.288 26.9402 105 31.25 105H88.75C93.0598 105 97.193 103.288 100.24 100.24C103.288 97.193 105 93.0598 105 88.75V31.25C105 26.9402 103.288 22.807 100.24 19.7595C97.193 16.712 93.0598 15 88.75 15H31.25ZM81.4 48.9L56.4 73.9C55.6969 74.6023 54.7438 74.9967 53.75 74.9967C52.7562 74.9967 51.8031 74.6023 51.1 73.9L41.08 63.88C40.7116 63.5367 40.4161 63.1227 40.2111 62.6627C40.0061 62.2027 39.8959 61.7061 39.887 61.2026C39.8782 60.6991 39.9708 60.199 40.1594 59.732C40.348 59.2651 40.6287 58.8409 40.9848 58.4848C41.3409 58.1287 41.7651 57.848 42.232 57.6594C42.699 57.4708 43.1991 57.3782 43.7026 57.387C44.2061 57.3959 44.7027 57.5061 45.1627 57.7111C45.6227 57.9161 46.0367 58.2116 46.38 58.58L53.75 65.945L76.1 43.595C76.4461 43.237 76.86 42.9515 77.3176 42.7552C77.7752 42.5589 78.2674 42.4557 78.7653 42.4516C79.2632 42.4475 79.757 42.5426 80.2177 42.7314C80.6785 42.9202 81.0971 43.1988 81.449 43.5511C81.8009 43.9033 82.0792 44.3221 82.2675 44.7831C82.4558 45.244 82.5505 45.7379 82.5459 46.2358C82.5414 46.7337 82.4377 47.2257 82.2409 47.6832C82.0442 48.1406 81.7583 48.5542 81.4 48.9Z" fill="currentColor"/>
    </symbol>
</svg>
