<svg xmlns="http://www.w3.org/2000/svg">
    <symbol id="boolean" viewBox="0 0 120 120">
        <path d="M81.4 48.9C82.0624 48.1891 82.423 47.2489 82.4059 46.2774C82.3887 45.3059 81.9952 44.379 81.3081 43.6919C80.621 43.0048 79.6941 42.6113 78.7226 42.5941C77.7511 42.577 76.8109 42.9376 76.1 43.6L53.75 65.95L46.38 58.58C45.6691 57.9176 44.7289 57.557 43.7574 57.5741C42.7859 57.5913 41.859 57.9848 41.1719 58.6719C40.4848 59.359 40.0913 60.2859 40.0741 61.2574C40.057 62.2289 40.4176 63.1691 41.08 63.88L51.1 73.9C51.8031 74.6023 52.7562 74.9967 53.75 74.9967C54.7438 74.9967 55.6969 74.6023 56.4 73.9L81.4 48.9ZM31.25 15C26.9402 15 22.807 16.712 19.7595 19.7595C16.712 22.807 15 26.9402 15 31.25V88.75C15 93.0598 16.712 97.193 19.7595 100.24C22.807 103.288 26.9402 105 31.25 105H88.75C93.0598 105 97.193 103.288 100.24 100.24C103.288 97.193 105 93.0598 105 88.75V31.25C105 26.9402 103.288 22.807 100.24 19.7595C97.193 16.712 93.0598 15 88.75 15H31.25ZM22.5 31.25C22.5 26.42 26.42 22.5 31.25 22.5H88.75C93.58 22.5 97.5 26.42 97.5 31.25V88.75C97.5 91.0706 96.5781 93.2962 94.9372 94.9372C93.2962 96.5781 91.0706 97.5 88.75 97.5H31.25C28.9294 97.5 26.7038 96.5781 25.0628 94.9372C23.4219 93.2962 22.5 91.0706 22.5 88.75V31.25Z" fill="currentColor"/>
    </symbol>
</svg>
