<svg xmlns="http://www.w3.org/2000/svg">
    <symbol id="calendar-user" viewBox="0 0 120 120">
        <path d="M105 31.25C105 26.9402 103.288 22.807 100.24 19.7595C97.193 16.712 93.0598 15 88.75 15H31.25C26.9402 15 22.807 16.712 19.7595 19.7595C16.712 22.807 15 26.9402 15 31.25V88.75C15 93.0598 16.712 97.193 19.7595 100.24C22.807 103.288 26.9402 105 31.25 105H65.86C65.285 103.181 64.9949 101.283 65 99.375V98.86C65 98.4033 65.0217 97.95 65.065 97.5H31.25C28.9294 97.5 26.7038 96.5781 25.0628 94.9372C23.4219 93.2962 22.5 91.0706 22.5 88.75V42.5H97.5V55.725C100.344 56.5746 102.925 58.1335 105 60.255V31.25ZM31.25 22.5H88.75C93.58 22.5 97.5 26.42 97.5 31.25V35H22.5V31.25C22.5 26.42 26.42 22.5 31.25 22.5ZM105 72.5C105 75.8152 103.683 78.9946 101.339 81.3388C98.9946 83.683 95.8152 85 92.5 85C89.1848 85 86.0054 83.683 83.6612 81.3388C81.317 78.9946 80 75.8152 80 72.5C80 69.1848 81.317 66.0054 83.6612 63.6612C86.0054 61.317 89.1848 60 92.5 60C95.8152 60 98.9946 61.317 101.339 63.6612C103.683 66.0054 105 69.1848 105 72.5ZM115 99.375C115 107.155 108.57 115 92.5 115C76.43 115 70 107.185 70 99.375V98.86C70 93.96 73.97 90 78.865 90H106.135C111.035 90 115 93.965 115 98.86V99.375Z" fill="currentColor"/>
    </symbol>
</svg>
