<svg xmlns="http://www.w3.org/2000/svg">
    <symbol id="calendar-graph" viewBox="0 0 120 120">
        <path d="M88.75 15C93.0598 15 97.193 16.712 100.24 19.7595C103.288 22.807 105 26.9402 105 31.25V65.25C103.187 65.6207 101.48 66.3892 100 67.5C100 64.685 99.07 62.09 97.5 60V42.5H22.5V88.75C22.5 93.58 26.42 97.5 31.25 97.5H55V105H31.25C26.9402 105 22.807 103.288 19.7595 100.24C16.712 97.193 15 93.0598 15 88.75V31.25C15 26.9402 16.712 22.807 19.7595 19.7595C22.807 16.712 26.9402 15 31.25 15H88.75ZM88.75 22.5H31.25C28.9294 22.5 26.7038 23.4219 25.0628 25.0628C23.4219 26.7038 22.5 28.9294 22.5 31.25V35H97.5V31.25C97.5 28.9294 96.5781 26.7038 94.9372 25.0628C93.2962 23.4219 91.0706 22.5 88.75 22.5ZM87.5 60C85.5109 60 83.6032 60.7902 82.1967 62.1967C80.7902 63.6032 80 65.5109 80 67.5V107.5C80 109.489 80.7902 111.397 82.1967 112.803C83.6032 114.21 85.5109 115 87.5 115C89.4891 115 91.3968 114.21 92.8033 112.803C94.2098 111.397 95 109.489 95 107.5V67.5C95 65.5109 94.2098 63.6032 92.8033 62.1967C91.3968 60.7902 89.4891 60 87.5 60ZM67.5 80C65.5109 80 63.6032 80.7902 62.1967 82.1967C60.7902 83.6032 60 85.5109 60 87.5V107.5C60 109.489 60.7902 111.397 62.1967 112.803C63.6032 114.21 65.5109 115 67.5 115C69.4891 115 71.3968 114.21 72.8033 112.803C74.2098 111.397 75 109.489 75 107.5V87.5C75 85.5109 74.2098 83.6032 72.8033 82.1967C71.3968 80.7902 69.4891 80 67.5 80ZM100 77.5C100 75.5109 100.79 73.6032 102.197 72.1967C103.603 70.7902 105.511 70 107.5 70C109.489 70 111.397 70.7902 112.803 72.1967C114.21 73.6032 115 75.5109 115 77.5V107.5C115 109.489 114.21 111.397 112.803 112.803C111.397 114.21 109.489 115 107.5 115C105.511 115 103.603 114.21 102.197 112.803C100.79 111.397 100 109.489 100 107.5V77.5Z" fill="currentColor"/>
    </symbol>
</svg>
