<svg xmlns="http://www.w3.org/2000/svg">
    <symbol id="calendar-add" viewBox="0 0 120 120">
        <path d="M87.5 60C94.7935 60 101.788 62.8973 106.945 68.0546C112.103 73.2118 115 80.2065 115 87.5C115 94.7935 112.103 101.788 106.945 106.945C101.788 112.103 94.7935 115 87.5 115C80.2065 115 73.2118 112.103 68.0546 106.945C62.8973 101.788 60 94.7935 60 87.5C60 80.2065 62.8973 73.2118 68.0546 68.0546C73.2118 62.8973 80.2065 60 87.5 60ZM88.75 15C93.0598 15 97.193 16.712 100.24 19.7595C103.288 22.807 105 26.9402 105 31.25L105.005 60.115C102.667 58.6161 100.146 57.423 97.505 56.565L97.5 42.5H22.5V88.75C22.5 93.58 26.42 97.5 31.25 97.5H56.57C57.43 100.17 58.63 102.69 60.115 105.005L31.25 105C26.9402 105 22.807 103.288 19.7595 100.24C16.712 97.193 15 93.0598 15 88.75V31.25C15 26.9402 16.712 22.807 19.7595 19.7595C22.807 16.712 26.9402 15 31.25 15H88.75ZM87.5 70L87.05 70.04C86.5505 70.1313 86.0906 70.3725 85.7315 70.7315C85.3725 71.0906 85.1313 71.5505 85.04 72.05L85 72.5V85H72.5L72.05 85.04C71.5505 85.1313 71.0906 85.3725 70.7315 85.7315C70.3725 86.0906 70.1313 86.5505 70.04 87.05L70 87.5L70.04 87.95C70.1313 88.4495 70.3725 88.9094 70.7315 89.2685C71.0906 89.6275 71.5505 89.8687 72.05 89.96L72.5 90H85V102.5L85.04 102.95C85.1313 103.45 85.3725 103.909 85.7315 104.268C86.0906 104.628 86.5505 104.869 87.05 104.96L87.5 105L87.95 104.96C88.4495 104.869 88.9094 104.628 89.2685 104.268C89.6275 103.909 89.8687 103.45 89.96 102.95L90 102.5V90H102.5L102.95 89.96C103.45 89.8687 103.909 89.6275 104.268 89.2685C104.628 88.9094 104.869 88.4495 104.96 87.95L105 87.5L104.96 87.05C104.869 86.5505 104.628 86.0906 104.268 85.7315C103.909 85.3725 103.45 85.1313 102.95 85.04L102.5 85H90V72.5L89.96 72.05C89.8687 71.5505 89.6275 71.0906 89.2685 70.7315C88.9094 70.3725 88.4495 70.1313 87.95 70.04L87.5 70ZM88.75 22.5H31.25C28.9294 22.5 26.7038 23.4219 25.0628 25.0628C23.4219 26.7038 22.5 28.9294 22.5 31.25V35H97.5V31.25C97.5 28.9294 96.5781 26.7038 94.9372 25.0628C93.2962 23.4219 91.0706 22.5 88.75 22.5Z" fill="currentColor"/>
    </symbol>
</svg>
