<svg xmlns="http://www.w3.org/2000/svg">
    <symbol id="call-filled" viewBox="0 0 120 120">
        <path d="M38.86 12.195L44.245 10.475C49.285 8.865 54.675 11.47 56.835 16.56L61.135 26.7C63.01 31.115 61.97 36.31 58.565 39.54L49.1 48.53C49.6833 53.91 51.49 59.205 54.52 64.415C57.4013 69.4543 61.2621 73.866 65.875 77.39L77.255 73.59C81.565 72.155 86.26 73.81 88.905 77.695L95.065 86.745C98.145 91.265 97.59 97.495 93.7749 101.325L89.685 105.43C85.615 109.515 79.805 111 74.425 109.32C61.7316 105.36 50.06 93.605 39.41 74.055C28.7466 54.4717 24.9833 37.8583 28.12 24.215C29.44 18.475 33.53 13.9 38.87 12.195" fill="currentColor"/>
    </symbol>
</svg>
