<svg xmlns="http://www.w3.org/2000/svg">
    <symbol id="call" viewBox="0 0 120 120">
        <path d="M35.2848 12.09L41.1198 10.335C44.3163 9.37112 47.7543 9.60315 50.7922 10.9878C53.8301 12.3724 56.2605 14.8151 57.6298 17.86L62.1399 27.89C63.3172 30.509 63.645 33.4309 63.0774 36.2457C62.5098 39.0605 61.0752 41.6269 58.9748 43.585L51.4998 50.55C51.2815 50.7535 51.1432 51.0284 51.1098 51.325C50.8898 53.31 52.2348 57.175 55.3398 62.55C57.5898 66.455 59.6349 69.2 61.3699 70.735C62.5849 71.81 63.2499 72.04 63.5349 71.96L73.5849 68.885C76.3294 68.0455 79.2679 68.0859 81.9883 69.0005C84.7088 69.9151 87.0748 71.658 88.7548 73.985L95.1549 82.865C97.1032 85.5649 98.0058 88.88 97.695 92.1949C97.3842 95.5098 95.8811 98.5994 93.4649 100.89L89.0299 105.09C86.6787 107.317 83.7909 108.896 80.6479 109.675C77.5049 110.454 74.2137 110.406 71.0949 109.535C57.3249 105.69 44.9798 94.07 33.9198 74.915C22.8498 55.735 18.9599 39.215 22.5499 25.35C23.3557 22.2317 24.9513 19.3735 27.1827 17.051C29.4142 14.7285 32.2012 13.0199 35.2848 12.09ZM37.4548 19.275C35.6043 19.8315 33.9283 20.8554 32.5884 22.2478C31.2485 23.6403 30.2898 25.3544 29.8048 27.225C26.7948 38.885 30.2398 53.53 40.4198 71.165C50.5898 88.775 61.5348 99.08 73.1198 102.315C74.9913 102.837 76.9659 102.865 78.8516 102.397C80.7372 101.93 82.4695 100.981 83.8798 99.645L88.3099 95.445C89.4089 94.4039 90.0928 92.9994 90.2344 91.4922C90.376 89.985 89.9657 88.4776 89.0799 87.25L82.6798 78.375C81.9162 77.316 80.84 76.5228 79.6025 76.1068C78.365 75.6907 77.0282 75.6726 75.7799 76.055L65.7049 79.14C59.8549 80.88 54.5499 76.175 48.8499 66.3C44.9999 59.65 43.2099 54.5 43.6599 50.495C43.8899 48.415 44.8599 46.495 46.3849 45.065L53.8599 38.1C54.8141 37.2095 55.4656 36.0425 55.723 34.7629C55.9804 33.4833 55.8306 32.1552 55.2948 30.965L50.7898 20.935C50.1673 19.5509 49.0625 18.4407 47.6815 17.8114C46.3006 17.1821 44.7378 17.0767 43.2848 17.515L37.4548 19.275Z" fill="currentColor"/>
    </symbol>
</svg>