<svg xmlns="http://www.w3.org/2000/svg">
    <symbol id="caret-right-filled" viewBox="0 0 120 120">
        <path d="M10 60C10 32.385 32.385 10 60 10C87.615 10 110 32.385 110 60C110 87.615 87.615 110 60 110C32.385 110 10 87.615 10 60ZM49.85 82.65C50.5531 83.3523 51.5062 83.7467 52.5 83.7467C53.4938 83.7467 54.4469 83.3523 55.15 82.65L75.15 62.65C75.8523 61.9469 76.2467 60.9938 76.2467 60C76.2467 59.0062 75.8523 58.0531 75.15 57.35L55.15 37.35C54.8067 36.9816 54.3927 36.6861 53.9327 36.4811C53.4727 36.2761 52.9761 36.1659 52.4726 36.157C51.9691 36.1482 51.469 36.2408 51.002 36.4294C50.5351 36.618 50.1109 36.8987 49.7548 37.2548C49.3987 37.6109 49.118 38.0351 48.9294 38.502C48.7408 38.969 48.6482 39.4691 48.657 39.9726C48.6659 40.4761 48.7761 40.9727 48.9811 41.4327C49.1861 41.8927 49.4816 42.3067 49.85 42.65L67.2 60L49.85 77.35C49.1477 78.0531 48.7533 79.0062 48.7533 80C48.7533 80.9938 49.1477 81.9469 49.85 82.65Z" fill="currentColor"/>
    </symbol>
</svg>