<svg xmlns="http://www.w3.org/2000/svg">
    <symbol id="caret-down-filled" viewBox="0 0 120 120">
        <path d="M60 10C87.615 10 110 32.385 110 60C110 87.615 87.615 110 60 110C32.385 110 10 87.615 10 60C10 32.385 32.385 10 60 10ZM37.35 49.85C36.6477 50.5531 36.2533 51.5062 36.2533 52.5C36.2533 53.4938 36.6477 54.4469 37.35 55.15L57.35 75.15C58.0531 75.8523 59.0062 76.2467 60 76.2467C60.9938 76.2467 61.9469 75.8523 62.65 75.15L82.65 55.15C83.0184 54.8067 83.3139 54.3927 83.5189 53.9327C83.7239 53.4727 83.8341 52.9761 83.843 52.4726C83.8518 51.9691 83.7592 51.469 83.5706 51.002C83.382 50.5351 83.1013 50.1109 82.7452 49.7548C82.3891 49.3987 81.9649 49.118 81.498 48.9294C81.031 48.7408 80.5309 48.6482 80.0274 48.657C79.5239 48.6659 79.0273 48.7761 78.5673 48.9811C78.1073 49.1861 77.6933 49.4816 77.35 49.85L60 67.2L42.65 49.85C41.9469 49.1477 40.9938 48.7533 40 48.7533C39.0062 48.7533 38.0531 49.1477 37.35 49.85Z" fill="currentColor"/>
    </symbol>
</svg>