<svg xmlns="http://www.w3.org/2000/svg">
    <symbol id="caret-left-filled" viewBox="0 0 120 120">
        <path d="M110 60C110 87.615 87.615 110 60 110C32.385 110 10 87.615 10 60C10 32.385 32.385 10 60 10C87.615 10 110 32.385 110 60ZM70.15 37.35C69.4469 36.6477 68.4938 36.2533 67.5 36.2533C66.5062 36.2533 65.5531 36.6477 64.85 37.35L44.85 57.35C44.1477 58.0531 43.7533 59.0062 43.7533 60C43.7533 60.9938 44.1477 61.9469 44.85 62.65L64.85 82.65C65.1933 83.0184 65.6073 83.3139 66.0673 83.5189C66.5273 83.7239 67.0239 83.8341 67.5274 83.843C68.0309 83.8518 68.531 83.7592 68.998 83.5706C69.4649 83.382 69.8891 83.1013 70.2452 82.7452C70.6013 82.3891 70.882 81.9649 71.0706 81.498C71.2592 81.031 71.3518 80.5309 71.343 80.0274C71.3341 79.5239 71.2239 79.0273 71.0189 78.5673C70.8139 78.1073 70.5184 77.6933 70.15 77.35L52.8 60L70.15 42.65C70.8523 41.9469 71.2467 40.9938 71.2467 40C71.2467 39.0062 70.8523 38.0531 70.15 37.35Z" fill="currentColor"/>
    </symbol>
</svg>
