<svg xmlns="http://www.w3.org/2000/svg">
    <symbol id="caret-down-bold" viewBox="0 0 120 120">
        <path d="M23.595 42.345C23.9433 41.9958 24.3571 41.7187 24.8127 41.5296C25.2683 41.3406 25.7567 41.2433 26.25 41.2433C26.7432 41.2433 27.2317 41.3406 27.6872 41.5296C28.1428 41.7187 28.5566 41.9958 28.905 42.345L60 73.4475L91.095 42.345C91.7991 41.6408 92.7542 41.2452 93.75 41.2452C94.7458 41.2452 95.7008 41.6408 96.405 42.345C97.1091 43.0491 97.5047 44.0042 97.5047 45C97.5047 45.9958 97.1091 46.9508 96.405 47.655L62.655 81.405C62.3066 81.7542 61.8928 82.0313 61.4372 82.2203C60.9816 82.4094 60.4932 82.5067 60 82.5067C59.5067 82.5067 59.0183 82.4094 58.5627 82.2203C58.1072 82.0313 57.6933 81.7542 57.345 81.405L23.595 47.655C23.2458 47.3066 22.9687 46.8928 22.7796 46.4372C22.5906 45.9817 22.4933 45.4932 22.4933 45C22.4933 44.5067 22.5906 44.0183 22.7796 43.5627C22.9687 43.1071 23.2458 42.6933 23.595 42.345Z" fill="currentColor"/>
    </symbol>
</svg>
