<svg xmlns="http://www.w3.org/2000/svg">
    <symbol id="caret-left-bold" viewBox="0 0 120 120">
        <path d="M77.655 23.595C78.0042 23.9433 78.2813 24.3571 78.4703 24.8127C78.6594 25.2683 78.7567 25.7567 78.7567 26.25C78.7567 26.7432 78.6594 27.2317 78.4703 27.6872C78.2813 28.1428 78.0042 28.5566 77.655 28.905L46.5525 60L77.655 91.095C78.3591 91.7991 78.7547 92.7542 78.7547 93.75C78.7547 94.7458 78.3591 95.7008 77.655 96.405C76.9508 97.1091 75.9958 97.5047 75 97.5047C74.0042 97.5047 73.0491 97.1091 72.345 96.405L38.595 62.655C38.2458 62.3066 37.9687 61.8928 37.7796 61.4372C37.5906 60.9816 37.4933 60.4932 37.4933 60C37.4933 59.5067 37.5906 59.0183 37.7796 58.5627C37.9687 58.1072 38.2458 57.6933 38.595 57.345L72.345 23.595C72.6933 23.2458 73.1072 22.9687 73.5627 22.7796C74.0183 22.5906 74.5067 22.4933 75 22.4933C75.4932 22.4933 75.9816 22.5906 76.4372 22.7796C76.8928 22.9687 77.3066 23.2458 77.655 23.595Z" fill="currentColor"/>
    </symbol>
</svg>
