<svg xmlns="http://www.w3.org/2000/svg">
    <symbol id="caret-up-filled" viewBox="0 0 120 120">
        <path d="M60 110C87.615 110 110 87.615 110 60C110 32.385 87.615 10 60 10C32.385 10 10 32.385 10 60C10 87.615 32.385 110 60 110ZM37.35 70.15C36.6477 69.4469 36.2533 68.4938 36.2533 67.5C36.2533 66.5062 36.6477 65.5531 37.35 64.85L57.35 44.85C58.0531 44.1477 59.0062 43.7533 60 43.7533C60.9938 43.7533 61.9469 44.1477 62.65 44.85L82.65 64.85C83.0184 65.1933 83.3139 65.6073 83.5189 66.0673C83.7239 66.5273 83.8341 67.0239 83.843 67.5274C83.8518 68.0309 83.7592 68.531 83.5706 68.998C83.382 69.4649 83.1013 69.8891 82.7452 70.2452C82.3891 70.6013 81.9649 70.882 81.498 71.0706C81.031 71.2592 80.5309 71.3518 80.0274 71.343C79.5239 71.3341 79.0273 71.2239 78.5673 71.0189C78.1073 70.8139 77.6933 70.5184 77.35 70.15L60 52.8L42.65 70.15C41.9469 70.8523 40.9938 71.2467 40 71.2467C39.0062 71.2467 38.0531 70.8523 37.35 70.15Z" fill="currentColor"/>
    </symbol>
</svg>