<svg xmlns="http://www.w3.org/2000/svg">
    <symbol id="caret-right-bold" viewBox="0 0 120 120">
        <path d="M42.345 23.595C41.9958 23.9433 41.7187 24.3571 41.5296 24.8127C41.3406 25.2683 41.2433 25.7567 41.2433 26.25C41.2433 26.7432 41.3406 27.2317 41.5296 27.6872C41.7187 28.1428 41.9958 28.5566 42.345 28.905L73.4475 60L42.345 91.095C41.6408 91.7991 41.2452 92.7542 41.2452 93.75C41.2452 94.7458 41.6408 95.7008 42.345 96.405C43.0491 97.1091 44.0042 97.5047 45 97.5047C45.9958 97.5047 46.9508 97.1091 47.655 96.405L81.405 62.655C81.7542 62.3066 82.0313 61.8928 82.2203 61.4372C82.4094 60.9816 82.5067 60.4932 82.5067 60C82.5067 59.5067 82.4094 59.0183 82.2203 58.5627C82.0313 58.1072 81.7542 57.6933 81.405 57.345L47.655 23.595C47.3066 23.2458 46.8928 22.9687 46.4372 22.7796C45.9817 22.5906 45.4932 22.4933 45 22.4933C44.5067 22.4933 44.0183 22.5906 43.5627 22.7796C43.1071 22.9687 42.6933 23.2458 42.345 23.595Z" fill="currentColor"/>
    </symbol>
</svg>
