<svg xmlns="http://www.w3.org/2000/svg">
    <symbol id="caret-up-bold" viewBox="0 0 120 120">
        <path d="M23.595 77.655C23.9433 78.0042 24.3571 78.2813 24.8127 78.4703C25.2683 78.6594 25.7567 78.7567 26.25 78.7567C26.7432 78.7567 27.2317 78.6594 27.6872 78.4703C28.1428 78.2813 28.5566 78.0042 28.905 77.655L60 46.5525L91.095 77.655C91.7991 78.3591 92.7542 78.7547 93.75 78.7547C94.7458 78.7547 95.7008 78.3591 96.405 77.655C97.1091 76.9508 97.5047 75.9958 97.5047 75C97.5047 74.0042 97.1091 73.0491 96.405 72.345L62.655 38.595C62.3066 38.2458 61.8928 37.9687 61.4372 37.7796C60.9816 37.5906 60.4932 37.4933 60 37.4933C59.5067 37.4933 59.0183 37.5906 58.5627 37.7796C58.1072 37.9687 57.6933 38.2458 57.345 38.595L23.595 72.345C23.2458 72.6933 22.9687 73.1072 22.7796 73.5627C22.5906 74.0183 22.4933 74.5067 22.4933 75C22.4933 75.4932 22.5906 75.9816 22.7796 76.4372C22.9687 76.8928 23.2458 77.3066 23.595 77.655Z" fill="currentColor"/>
    </symbol>
</svg>
