<svg xmlns="http://www.w3.org/2000/svg">
    <symbol id="certificate" viewBox="0 0 120 120">
        <path d="M10.0001 28.75C10.0001 25.1033 11.4487 21.6059 14.0273 19.0273C16.606 16.4487 20.1033 15 23.7501 15H96.2501C99.8968 15 103.394 16.4487 105.973 19.0273C108.551 21.6059 110 25.1033 110 28.75V76.25C110 79.8967 108.551 83.3941 105.973 85.9727C103.394 88.5513 99.8968 90 96.2501 90H50.0001V85C50.6001 84.2 51.1517 83.3667 51.6551 82.5H96.2501C99.7001 82.5 102.5 79.7 102.5 76.25V28.75C102.5 25.3 99.7001 22.5 96.2501 22.5H23.7501C20.3001 22.5 17.5001 25.3 17.5001 28.75V48.345C14.5768 50.0326 12.0255 52.2947 10.0001 54.995V28.75ZM33.7501 35C32.7555 35 31.8017 35.3951 31.0984 36.0983C30.3951 36.8016 30.0001 37.7554 30.0001 38.75C30.0001 39.7446 30.3951 40.6984 31.0984 41.4016C31.8017 42.1049 32.7555 42.5 33.7501 42.5H86.2501C87.2446 42.5 88.1984 42.1049 88.9017 41.4016C89.605 40.6984 90.0001 39.7446 90.0001 38.75C90.0001 37.7554 89.605 36.8016 88.9017 36.0983C88.1984 35.3951 87.2446 35 86.2501 35H33.7501ZM63.7501 60C62.7555 60 61.8017 60.3951 61.0984 61.0984C60.3951 61.8016 60.0001 62.7554 60.0001 63.75C60.0001 64.7446 60.3951 65.6984 61.0984 66.4016C61.8017 67.1049 62.7555 67.5 63.7501 67.5H86.2501C87.2446 67.5 88.1984 67.1049 88.9017 66.4016C89.605 65.6984 90.0001 64.7446 90.0001 63.75C90.0001 62.7554 89.605 61.8016 88.9017 61.0984C88.1984 60.3951 87.2446 60 86.2501 60H63.7501ZM30.0001 50C24.6951 50 19.6074 52.1074 15.8562 55.8586C12.105 59.6098 9.99756 64.6975 9.99756 70.0025C9.99756 75.3075 12.105 80.3952 15.8562 84.1464C19.6074 87.8976 24.6951 90.005 30.0001 90.005C35.305 90.005 40.3928 87.8976 44.144 84.1464C47.8952 80.3952 50.0026 75.3075 50.0026 70.0025C50.0026 64.6975 47.8952 59.6098 44.144 55.8586C40.3928 52.1074 35.305 50 30.0001 50ZM45.0001 90.005C40.8251 93.145 35.6301 95.005 30.0001 95.005C24.5908 95.0151 19.3253 93.2635 15.0001 90.015V106.245C15.0001 109.095 18.0251 110.845 20.4501 109.59L20.9001 109.315L30.0001 102.96L39.1001 109.32C39.6256 109.687 40.2364 109.913 40.8742 109.977C41.512 110.041 42.1555 109.94 42.7432 109.684C43.331 109.428 43.8433 109.026 44.2314 108.516C44.6195 108.006 44.8704 107.405 44.9601 106.77L45.0001 106.245V90.005Z" fill="currentColor"/>
    </symbol>
</svg>