<svg xmlns="http://www.w3.org/2000/svg">
    <symbol id="check-circle" viewBox="0 0 120 120">
        <path d="M60 10C87.615 10 110 32.385 110 60C110 87.615 87.615 110 60 110C32.385 110 10 87.615 10 60C10 32.385 32.385 10 60 10ZM60 17.5C48.7283 17.5 37.9183 21.9777 29.948 29.948C21.9777 37.9183 17.5 48.7283 17.5 60C17.5 71.2717 21.9777 82.0817 29.948 90.052C37.9183 98.0223 48.7283 102.5 60 102.5C71.2717 102.5 82.0817 98.0223 90.052 90.052C98.0223 82.0817 102.5 71.2717 102.5 60C102.5 48.7283 98.0223 37.9183 90.052 29.948C82.0817 21.9777 71.2717 17.5 60 17.5ZM53.75 67.2L76.1 44.85C76.77 44.1852 77.666 43.7975 78.6093 43.7643C79.5526 43.7311 80.4737 44.0548 81.1888 44.6708C81.9039 45.2868 82.3604 46.1498 82.4672 47.0876C82.574 48.0254 82.3233 48.969 81.765 49.73L81.4 50.15L56.4 75.15C55.7651 75.7851 54.9233 76.1712 54.0277 76.2382C53.1322 76.3052 52.2424 76.0486 51.52 75.515L51.1 75.15L38.6 62.65C37.9352 61.98 37.5475 61.084 37.5143 60.1407C37.4811 59.1974 37.8048 58.2763 38.4208 57.5612C39.0368 56.8461 39.8998 56.3896 40.8376 56.2828C41.7754 56.176 42.719 56.4267 43.48 56.985L43.9 57.35L53.75 67.2Z" fill="currentColor"/>
    </symbol>
</svg>
