<svg xmlns="http://www.w3.org/2000/svg">
    <symbol id="check-bold" viewBox="0 0 120 120">
        <path d="M108.14 24.8423C108.729 25.4247 109.197 26.1167 109.516 26.8785C109.836 27.6404 110 28.4571 110 29.2819C110 30.1067 109.836 30.9234 109.516 31.6853C109.197 32.4471 108.729 33.1391 108.14 33.7215L51.1513 90.1578C50.5631 90.7417 49.8644 91.205 49.0951 91.5211C48.3258 91.8373 47.5011 92 46.6682 92C45.8353 92 45.0106 91.8373 44.2414 91.5211C43.4721 91.205 42.7733 90.7417 42.1851 90.1578L16.857 65.075C15.668 63.8975 15 62.3005 15 60.6353C15 58.9702 15.668 57.3732 16.857 56.1957C18.0459 55.0182 19.6586 54.3567 21.34 54.3567C23.0215 54.3567 24.6341 55.0182 25.8231 56.1957L46.6682 76.8513L99.1736 24.8423C99.7617 24.2583 100.46 23.795 101.23 23.4788C101.999 23.1627 102.824 23 103.657 23C104.49 23 105.314 23.1627 106.084 23.4788C106.853 23.795 107.552 24.2583 108.14 24.8423Z" fill="currentColor"/>
    </symbol>
</svg>