<svg xmlns="http://www.w3.org/2000/svg">
    <symbol id="check-circle-filled" viewBox="0 0 120 120">
        <path d="M60 10C87.615 10 110 32.385 110 60C110 87.615 87.615 110 60 110C32.385 110 10 87.615 10 60C10 32.385 32.385 10 60 10ZM76.1 44.85L53.75 67.2L43.9 57.35C43.1891 56.6876 42.2489 56.327 41.2774 56.3441C40.3059 56.3613 39.379 56.7548 38.6919 57.4419C38.0048 58.129 37.6113 59.0559 37.5941 60.0274C37.577 60.9989 37.9376 61.9391 38.6 62.65L51.1 75.15C51.8031 75.8523 52.7562 76.2467 53.75 76.2467C54.7438 76.2467 55.6969 75.8523 56.4 75.15L81.4 50.15C81.7684 49.8067 82.0639 49.3927 82.2689 48.9327C82.4739 48.4727 82.5841 47.9761 82.593 47.4726C82.6018 46.9691 82.5092 46.469 82.3206 46.002C82.132 45.5351 81.8513 45.1109 81.4952 44.7548C81.1391 44.3987 80.7149 44.118 80.248 43.9294C79.781 43.7408 79.2809 43.6482 78.7774 43.657C78.2739 43.6659 77.7773 43.7761 77.3173 43.9811C76.8573 44.1861 76.4433 44.4816 76.1 44.85Z" fill="currentColor"/>
    </symbol>
</svg>
