<svg xmlns="http://www.w3.org/2000/svg">
    <symbol id="clip" viewBox="0 0 120 120">
        <path d="M58.8599 18.72C64.4134 13.1958 71.9073 10.0628 79.7401 9.99054C87.5729 9.91825 95.1233 12.9124 100.778 18.3332C106.432 23.7539 109.742 31.1713 110.001 39.0001C110.259 46.829 107.445 54.4484 102.16 60.23L101.215 61.215L57.2149 105.205L57.0349 105.355C53.6092 108.439 49.161 110.143 44.5514 110.136C39.9417 110.129 35.4986 108.412 32.0823 105.317C28.6659 102.223 26.5192 97.9706 26.0579 93.3841C25.5965 88.7976 26.8533 84.2031 29.5849 80.49C29.7095 80.2627 29.8516 80.0453 30.0099 79.84L30.2799 79.54L30.7149 79.1L31.4199 78.36L31.4349 78.375L68.6149 41.105C69.2492 40.4692 70.0907 40.0821 70.9863 40.0142C71.8818 39.9463 72.772 40.2021 73.4949 40.735L73.9149 41.1C74.5508 41.7343 74.9378 42.5758 75.0057 43.4713C75.0736 44.3669 74.8179 45.2571 74.2849 45.98L73.9249 46.4L35.9499 84.465C34.1924 86.6215 33.3044 89.357 33.4604 92.1346C33.6164 94.9122 34.8052 97.5311 36.7932 99.4772C38.7812 101.423 41.4249 102.556 44.2052 102.653C46.9855 102.749 49.7015 101.803 51.8199 100L95.9849 55.85C100.077 51.6877 102.393 46.0984 102.443 40.2615C102.493 34.4246 100.273 28.7965 96.253 24.5646C92.2326 20.3327 86.7256 17.8281 80.8937 17.5791C75.0619 17.3301 69.3614 19.3562 64.9949 23.23L64.1549 24.03L64.0949 24.1L16.4099 71.78C15.7408 72.451 14.8425 72.8438 13.8956 72.8794C12.9486 72.915 12.0234 72.5908 11.3057 71.972C10.5881 71.3531 10.1314 70.4856 10.0273 69.5437C9.92328 68.6019 10.1797 67.6555 10.7449 66.895L11.1099 66.475L58.8599 18.72Z" fill="currentColor"/>
    </symbol>
</svg>
