<svg xmlns="http://www.w3.org/2000/svg">
    <symbol id="clock-filled" viewBox="0 0 120 120">
        <path d="M76.25 67.5H56.25C55.2554 67.5 54.3016 67.1049 53.5984 66.4016C52.8951 65.6984 52.5 64.7446 52.5 63.75V33.75C52.5 32.7554 52.8951 31.8016 53.5984 31.0983C54.3016 30.3951 55.2554 30 56.25 30C57.2446 30 58.1984 30.3951 58.9016 31.0983C59.6049 31.8016 60 32.7554 60 33.75V60H76.25C77.2446 60 78.1984 60.3951 78.9016 61.0984C79.6049 61.8016 80 62.7554 80 63.75C80 64.7446 79.6049 65.6984 78.9016 66.4016C78.1984 67.1049 77.2446 67.5 76.25 67.5ZM60 10C32.39 10 10 32.39 10 60C10 87.61 32.39 110 60 110C87.61 110 110 87.61 110 60C110 32.39 87.61 10 60 10Z" fill="currentColor"/>
    </symbol>
</svg>
