<svg xmlns="http://www.w3.org/2000/svg">
    <symbol id="close-circle" viewBox="0 0 120 120">
        <path d="M60 10C87.615 10 110 32.385 110 60C110 87.615 87.615 110 60 110C32.385 110 10 87.615 10 60C10 32.385 32.385 10 60 10ZM60 17.5C48.7283 17.5 37.9183 21.9777 29.948 29.948C21.9777 37.9183 17.5 48.7283 17.5 60C17.5 71.2717 21.9777 82.0817 29.948 90.052C37.9183 98.0223 48.7283 102.5 60 102.5C71.2717 102.5 82.0817 98.0223 90.052 90.052C98.0223 82.0817 102.5 71.2717 102.5 60C102.5 48.7283 98.0223 37.9183 90.052 29.948C82.0817 21.9777 71.2717 17.5 60 17.5ZM77.23 41.985L77.65 42.35C78.2851 42.9849 78.6712 43.8267 78.7382 44.7223C78.8052 45.6178 78.5486 46.5076 78.015 47.23L77.65 47.65L65.305 60L77.655 72.35C78.2893 72.9856 78.6746 73.8277 78.7406 74.7232C78.8067 75.6187 78.5492 76.5082 78.015 77.23L77.65 77.65C77.0151 78.2851 76.1733 78.6712 75.2777 78.7382C74.3822 78.8052 73.4924 78.5486 72.77 78.015L72.35 77.65L60 65.305L47.65 77.655C47.0144 78.2893 46.1723 78.6746 45.2768 78.7406C44.3813 78.8067 43.4918 78.5492 42.77 78.015L42.35 77.65C41.7149 77.0151 41.3288 76.1733 41.2618 75.2777C41.1948 74.3822 41.4514 73.4924 41.985 72.77L42.35 72.35L54.695 60L42.345 47.65C41.7107 47.0144 41.3254 46.1723 41.2594 45.2768C41.1933 44.3813 41.4508 43.4918 41.985 42.77L42.35 42.35C42.9849 41.7149 43.8267 41.3288 44.7223 41.2618C45.6178 41.1948 46.5076 41.4514 47.23 41.985L47.65 42.35L60 54.695L72.35 42.345C72.9856 41.7107 73.8277 41.3254 74.7232 41.2594C75.6187 41.1933 76.5082 41.4508 77.23 41.985Z" fill="currentColor"/>
    </symbol>
</svg>
