<svg xmlns="http://www.w3.org/2000/svg">
    <symbol id="close-bold" viewBox="0 0 120 120">
        <path d="M17.9775 19.155L18.525 18.525C19.4774 17.5724 20.74 16.9932 22.0833 16.8927C23.4267 16.7922 24.7614 17.1771 25.845 17.9775L26.475 18.525L60 52.0425L93.525 18.5175C94.0441 17.9805 94.665 17.5523 95.3514 17.2578C96.0378 16.9633 96.776 16.8085 97.5229 16.8024C98.2698 16.7962 99.0104 16.9389 99.7016 17.2221C100.393 17.5052 101.021 17.9232 101.548 18.4516C102.076 18.98 102.494 19.6082 102.776 20.2996C103.059 20.9911 103.201 21.7318 103.194 22.4787C103.187 23.2256 103.032 23.9636 102.736 24.6497C102.441 25.3359 102.012 25.9564 101.475 26.475L67.9575 60L101.482 93.525C102.434 94.4784 103.012 95.7415 103.111 97.0848C103.21 98.4281 102.824 99.7623 102.022 100.845L101.475 101.475C100.523 102.428 99.2599 103.007 97.9166 103.107C96.5733 103.208 95.2385 102.823 94.155 102.022L93.525 101.475L60 67.9575L26.475 101.482C25.4136 102.507 23.9924 103.073 22.5176 103.059C21.0427 103.046 19.6322 102.454 18.5897 101.41C17.5473 100.367 16.9564 98.9558 16.9443 97.4809C16.9322 96.006 17.4998 94.5854 18.525 93.525L52.0425 60L18.5175 26.475C17.566 25.5216 16.9881 24.2585 16.889 22.9152C16.7899 21.5719 17.1761 20.2377 17.9775 19.155Z" fill="currentColor"/>
    </symbol>
</svg>
