<svg xmlns="http://www.w3.org/2000/svg">
    <symbol id="coin" viewBox="0 0 120 120">
        <path d="M35.795 16.875C42.145 12.55 50.72 10 60 10C69.28 10 77.85 12.55 84.205 16.875C90.54 21.18 95 27.525 95 35C95 42.475 90.54 48.82 84.205 53.125C77.855 57.45 69.28 60 60 60C50.72 60 42.15 57.45 35.795 53.125C29.46 48.82 25 42.475 25 35C25 27.525 29.46 21.18 35.795 16.875ZM40.01 23.075C35.035 26.46 32.5 30.74 32.5 35C32.5 39.26 35.035 43.54 40.01 46.925C44.965 50.295 52.025 52.5 60 52.5C67.975 52.5 75.035 50.295 79.99 46.925C84.965 43.54 87.5 39.26 87.5 35C87.5 30.74 84.965 26.46 79.99 23.075C75.035 19.705 67.975 17.5 60 17.5C52.025 17.5 44.965 19.705 40.01 23.075ZM93.12 51.825C91.3197 53.7955 89.2999 55.5536 87.1 57.065C87.3667 58.0417 87.5 59.02 87.5 60C87.5 64.26 84.965 68.54 79.99 71.925C75.035 75.295 67.975 77.5 60 77.5C52.025 77.5 44.965 75.295 40.01 71.925C35.035 68.54 32.5 64.26 32.5 60C32.5 59.02 32.6333 58.0417 32.9 57.065C30.7001 55.5536 28.6803 53.7955 26.88 51.825C25.6521 54.3759 25.0098 57.169 25 60C25 67.475 29.46 73.82 35.795 78.125C42.145 82.45 50.72 85 60 85C69.28 85 77.85 82.45 84.205 78.125C90.54 73.82 95 67.475 95 60C95 57.085 94.32 54.345 93.12 51.825ZM87.1 82.065C89.2999 80.5536 91.3197 78.7955 93.12 76.825C94.32 79.345 95 82.085 95 85C95 92.475 90.54 98.82 84.205 103.125C77.855 107.45 69.28 110 60 110C50.72 110 42.15 107.45 35.795 103.125C29.46 98.82 25 92.475 25 85C25 82.085 25.68 79.345 26.88 76.825C28.6803 78.7955 30.7001 80.5536 32.9 82.065C32.6333 83.0417 32.5 84.02 32.5 85C32.5 89.26 35.035 93.54 40.01 96.925C44.965 100.295 52.025 102.5 60 102.5C67.975 102.5 75.035 100.295 79.99 96.925C84.965 93.54 87.5 89.26 87.5 85C87.5 84.02 87.3667 83.0417 87.1 82.065Z" fill="currentColor"/>
    </symbol>
</svg>
