<svg xmlns="http://www.w3.org/2000/svg">
    <symbol id="commute-filled" viewBox="0 0 120 120">
        <path d="M105 42.5V88.75C105 93.0598 103.288 97.193 100.24 100.24C97.193 103.288 93.0598 105 88.75 105H31.25C26.9402 105 22.807 103.288 19.7595 100.24C16.712 97.193 15 93.0598 15 88.75V42.5H105ZM36.25 75C34.5924 75 33.0027 75.6585 31.8306 76.8306C30.6585 78.0027 30 79.5924 30 81.25C30 82.9076 30.6585 84.4973 31.8306 85.6694C33.0027 86.8415 34.5924 87.5 36.25 87.5C37.9076 87.5 39.4973 86.8415 40.6694 85.6694C41.8415 84.4973 42.5 82.9076 42.5 81.25C42.5 79.5924 41.8415 78.0027 40.6694 76.8306C39.4973 75.6585 37.9076 75 36.25 75ZM60 75C58.3424 75 56.7527 75.6585 55.5806 76.8306C54.4085 78.0027 53.75 79.5924 53.75 81.25C53.75 82.9076 54.4085 84.4973 55.5806 85.6694C56.7527 86.8415 58.3424 87.5 60 87.5C61.6576 87.5 63.2473 86.8415 64.4194 85.6694C65.5915 84.4973 66.25 82.9076 66.25 81.25C66.25 79.5924 65.5915 78.0027 64.4194 76.8306C63.2473 75.6585 61.6576 75 60 75ZM36.25 52.5C34.5924 52.5 33.0027 53.1585 31.8306 54.3306C30.6585 55.5027 30 57.0924 30 58.75C30 60.4076 30.6585 61.9973 31.8306 63.1694C33.0027 64.3415 34.5924 65 36.25 65C37.9076 65 39.4973 64.3415 40.6694 63.1694C41.8415 61.9973 42.5 60.4076 42.5 58.75C42.5 57.0924 41.8415 55.5027 40.6694 54.3306C39.4973 53.1585 37.9076 52.5 36.25 52.5ZM60 52.5C58.3424 52.5 56.7527 53.1585 55.5806 54.3306C54.4085 55.5027 53.75 57.0924 53.75 58.75C53.75 60.4076 54.4085 61.9973 55.5806 63.1694C56.7527 64.3415 58.3424 65 60 65C61.6576 65 63.2473 64.3415 64.4194 63.1694C65.5915 61.9973 66.25 60.4076 66.25 58.75C66.25 57.0924 65.5915 55.5027 64.4194 54.3306C63.2473 53.1585 61.6576 52.5 60 52.5ZM83.75 52.5C82.0924 52.5 80.5027 53.1585 79.3306 54.3306C78.1585 55.5027 77.5 57.0924 77.5 58.75C77.5 60.4076 78.1585 61.9973 79.3306 63.1694C80.5027 64.3415 82.0924 65 83.75 65C85.4076 65 86.9973 64.3415 88.1694 63.1694C89.3415 61.9973 90 60.4076 90 58.75C90 57.0924 89.3415 55.5027 88.1694 54.3306C86.9973 53.1585 85.4076 52.5 83.75 52.5ZM88.75 15C93.0598 15 97.193 16.712 100.24 19.7595C103.288 22.807 105 26.9402 105 31.25V35H15V31.25C15 26.9402 16.712 22.807 19.7595 19.7595C22.807 16.712 26.9402 15 31.25 15H88.75Z" fill="currentColor"/>
    </symbol>
</svg>
