<svg xmlns="http://www.w3.org/2000/svg">
    <symbol id="date" viewBox="0 0 120 120">
        <path d="M88.75 15C93.0598 15 97.193 16.712 100.24 19.7595C103.288 22.807 105 26.9402 105 31.25V88.75C105 93.0598 103.288 97.193 100.24 100.24C97.193 103.288 93.0598 105 88.75 105H31.25C26.9402 105 22.807 103.288 19.7595 100.24C16.712 97.193 15 93.0598 15 88.75V31.25C15 26.9402 16.712 22.807 19.7595 19.7595C22.807 16.712 26.9402 15 31.25 15H88.75ZM97.5 42.5H22.5V88.75C22.5 93.58 26.42 97.5 31.25 97.5H88.75C91.0706 97.5 93.2962 96.5781 94.9372 94.9372C96.5781 93.2962 97.5 91.0706 97.5 88.75V42.5ZM69.975 50.975C73.3083 50.975 75.9533 51.8617 77.91 53.635C79.86 55.4083 80.8367 57.81 80.84 60.84C80.84 62.58 80.3917 64.13 79.495 65.49C78.5817 66.866 77.3184 67.974 75.835 68.7C77.6917 69.5667 79.12 70.7467 80.12 72.24C81.12 73.74 81.62 75.4333 81.62 77.32C81.62 80.4433 80.5617 82.9217 78.445 84.755C76.3283 86.585 73.5133 87.5 70 87.5C66.4667 87.5 63.6383 86.58 61.515 84.74C59.3917 82.9033 58.33 80.43 58.33 77.32C58.33 75.4133 58.835 73.7033 59.845 72.19C60.855 70.68 62.2717 69.5167 64.095 68.7C62.6213 67.9716 61.3683 66.8636 60.465 65.49C59.5699 64.1064 59.1069 62.4877 59.135 60.84C59.135 57.8133 60.1117 55.4133 62.065 53.64C64.015 51.8633 66.6517 50.975 69.975 50.975ZM51.1 51.345V87.01H45.19V58.47L36.475 61.45V56.45L50.34 51.345H51.1ZM69.95 71.145C68.2267 71.145 66.8483 71.6817 65.815 72.755C64.7817 73.8317 64.265 75.255 64.265 77.025C64.265 78.7683 64.7733 80.16 65.79 81.2C66.8067 82.2433 68.21 82.765 70 82.765C71.79 82.765 73.185 82.26 74.185 81.25C75.185 80.24 75.685 78.8317 75.685 77.025C75.685 75.2717 75.1617 73.8517 74.115 72.765C73.065 71.6817 71.6767 71.14 69.95 71.14M69.975 55.735C68.4617 55.735 67.265 56.21 66.385 57.16C65.505 58.11 65.0667 59.4083 65.07 61.055C65.07 62.6817 65.5133 63.975 66.4 64.935C67.2833 65.895 68.4833 66.375 70 66.375C71.5167 66.375 72.7167 65.895 73.6 64.935C74.49 63.9783 74.9333 62.685 74.93 61.055C74.93 59.505 74.4833 58.2317 73.59 57.235C72.69 56.235 71.485 55.735 69.975 55.735ZM88.75 22.5H31.25C28.9294 22.5 26.7038 23.4219 25.0628 25.0628C23.4219 26.7038 22.5 28.9294 22.5 31.25V35H97.5V31.25C97.5 28.9294 96.5781 26.7038 94.9372 25.0628C93.2962 23.4219 91.0706 22.5 88.75 22.5Z" fill="currentColor"/>
    </symbol>
</svg>
