<svg xmlns="http://www.w3.org/2000/svg">
    <symbol id="delete" viewBox="0 0 120 120">
        <path d="M50 25H70C70 22.3478 68.9464 19.8043 67.0711 17.9289C65.1957 16.0536 62.6522 15 60 15C57.3478 15 54.8043 16.0536 52.9289 17.9289C51.0536 19.8043 50 22.3478 50 25ZM42.5 25C42.5 22.7019 42.9526 20.4262 43.8321 18.303C44.7116 16.1798 46.0006 14.2507 47.6256 12.6256C49.2507 11.0006 51.1798 9.71157 53.303 8.83211C55.4262 7.95265 57.7019 7.5 60 7.5C62.2981 7.5 64.5738 7.95265 66.697 8.83211C68.8202 9.71157 70.7493 11.0006 72.3744 12.6256C73.9994 14.2507 75.2884 16.1798 76.1679 18.303C77.0474 20.4262 77.5 22.7019 77.5 25H106.25C107.245 25 108.198 25.3951 108.902 26.0983C109.605 26.8016 110 27.7554 110 28.75C110 29.7446 109.605 30.6984 108.902 31.4017C108.198 32.1049 107.245 32.5 106.25 32.5H99.65L93.8 93.055C93.3513 97.6949 91.1902 102.001 87.7384 105.134C84.2866 108.267 79.7915 110.002 75.13 110H44.87C40.2093 110.001 35.7155 108.265 32.2647 105.132C28.814 102 26.6537 97.694 26.205 93.055L20.35 32.5H13.75C12.7554 32.5 11.8016 32.1049 11.0983 31.4017C10.3951 30.6984 10 29.7446 10 28.75C10 27.7554 10.3951 26.8016 11.0983 26.0983C11.8016 25.3951 12.7554 25 13.75 25H42.5ZM52.5 48.75C52.5 47.7554 52.1049 46.8016 51.4016 46.0984C50.6984 45.3951 49.7446 45 48.75 45C47.7554 45 46.8016 45.3951 46.0984 46.0984C45.3951 46.8016 45 47.7554 45 48.75V86.25C45 87.2446 45.3951 88.1984 46.0984 88.9017C46.8016 89.6049 47.7554 90 48.75 90C49.7446 90 50.6984 89.6049 51.4016 88.9017C52.1049 88.1984 52.5 87.2446 52.5 86.25V48.75ZM71.25 45C72.2446 45 73.1984 45.3951 73.9016 46.0984C74.6049 46.8016 75 47.7554 75 48.75V86.25C75 87.2446 74.6049 88.1984 73.9016 88.9017C73.1984 89.6049 72.2446 90 71.25 90C70.2554 90 69.3016 89.6049 68.5984 88.9017C67.8951 88.1984 67.5 87.2446 67.5 86.25V48.75C67.5 47.7554 67.8951 46.8016 68.5984 46.0984C69.3016 45.3951 70.2554 45 71.25 45ZM33.67 92.335C33.9397 95.1182 35.2362 97.7013 37.3068 99.5805C39.3775 101.46 42.0737 102.501 44.87 102.5H75.13C77.9263 102.501 80.6225 101.46 82.6932 99.5805C84.7638 97.7013 86.0603 95.1182 86.33 92.335L92.12 32.5H27.88L33.67 92.335Z" fill="currentColor"/>
    </symbol>
</svg>
