<svg xmlns="http://www.w3.org/2000/svg">
    <symbol id="download" viewBox="0 0 120 120">
        <path d="M91.25 102.5C92.2446 102.5 93.1984 102.895 93.9017 103.598C94.6049 104.302 95 105.255 95 106.25C95 107.245 94.6049 108.198 93.9017 108.902C93.1984 109.605 92.2446 110 91.25 110L26.25 110.025C25.2554 110.025 24.3016 109.63 23.5983 108.927C22.8951 108.223 22.5 107.27 22.5 106.275C22.5 105.28 22.8951 104.327 23.5983 103.623C24.3016 102.92 25.2554 102.525 26.25 102.525L91.25 102.5ZM58.24 10.07L58.75 10.035C59.6562 10.0351 60.5317 10.3632 61.2147 10.9589C61.8976 11.5545 62.3418 12.3773 62.465 13.275L62.5 13.785L62.495 82.21L81.105 63.61C81.7399 62.9749 82.5817 62.5888 83.4773 62.5218C84.3728 62.4548 85.2627 62.7115 85.985 63.245L86.41 63.61C87.0443 64.2456 87.4296 65.0877 87.4956 65.9832C87.5617 66.8787 87.3042 67.7683 86.77 68.49L86.405 68.91L61.42 93.895C60.7851 94.5301 59.9433 94.9163 59.0477 94.9832C58.1522 95.0502 57.2623 94.7936 56.54 94.26L56.115 93.895L31.1 68.915C30.4273 68.2467 30.0328 67.3484 29.9958 66.4009C29.9588 65.4534 30.2821 64.5271 30.9007 63.8084C31.5192 63.0897 32.3871 62.6321 33.3295 62.5275C34.2719 62.423 35.219 62.6794 35.98 63.245L36.4 63.605L54.995 82.175L55 13.78C55 12.8738 55.3282 11.9983 55.9238 11.3154C56.5195 10.6324 57.3422 10.1933 58.24 10.07Z" fill="currentColor"/>
    </symbol>
</svg>
