<svg xmlns="http://www.w3.org/2000/svg">
    <symbol id="email-bold" viewBox="0 0 120 120">
        <path d="M60 10C87.15 10 109.24 31.635 109.98 58.6L110 60V67.625C109.975 71.9768 108.532 76.2019 105.889 79.6591C103.246 83.1164 99.547 85.6171 95.3539 86.782C91.1608 87.9469 86.7022 87.7124 82.6545 86.114C78.6067 84.5155 75.1908 81.6405 72.925 77.925C68.925 82.09 63.515 84.665 57.5 84.665C44.925 84.665 35 73.415 35 59.835C35 46.255 44.925 35 57.5 35C62.185 35 66.5 36.56 70.07 39.22C70.2624 38.0303 70.8779 36.9502 71.8034 36.1783C72.7289 35.4064 73.902 34.9947 75.1069 35.0191C76.3118 35.0434 77.4673 35.5021 78.3609 36.3108C79.2544 37.1194 79.8259 38.2235 79.97 39.42L80 40V67.5C80.0061 70.0831 81.0115 72.5636 82.8056 74.422C84.5998 76.2803 87.0434 77.3724 89.6247 77.4693C92.2059 77.5662 94.7246 76.6606 96.6531 74.942C98.5815 73.2235 99.7702 70.8254 99.97 68.25L100 67.375V60C100 52.0887 97.654 44.3552 93.2588 37.7772C88.8635 31.1992 82.6164 26.0723 75.3073 23.0448C67.9983 20.0173 59.9556 19.2252 52.1964 20.7686C44.4371 22.312 37.3098 26.1216 31.7157 31.7157C26.1216 37.3098 22.312 44.4371 20.7686 52.1964C19.2252 59.9556 20.0173 67.9983 23.0448 75.3073C26.0723 82.6164 31.1992 88.8635 37.7772 93.2588C44.3552 97.654 52.0887 100 60 100C64.61 100 69.1 99.225 73.35 97.72C73.9692 97.501 74.6254 97.4061 75.2813 97.4408C75.9371 97.4754 76.5797 97.6389 77.1724 97.9219C77.7651 98.2049 78.2962 98.6018 78.7355 99.0901C79.1747 99.5783 79.5135 100.148 79.7325 100.768C79.9515 101.387 80.0464 102.043 80.0117 102.699C79.9771 103.355 79.8136 103.997 79.5306 104.59C79.2476 105.183 78.8507 105.714 78.3624 106.153C77.8742 106.592 77.3042 106.931 76.685 107.15C71.3257 109.041 65.6832 110.005 60 110C32.385 110 10 87.615 10 60C10 32.385 32.385 10 60 10ZM58.25 45.025L57.5 45C50.75 45 45 51.51 45 59.835C45 68.155 50.75 74.665 57.5 74.665C64 74.665 69.575 68.63 69.975 60.75L70 59.65C69.915 51.72 64.625 45.48 58.25 45.025Z" fill="currentColor"/>
    </symbol>
</svg>
