<svg xmlns="http://www.w3.org/2000/svg">
    <symbol id="email" viewBox="0 0 120 120">
        <path d="M110 60V68.75C110.002 73.0189 108.548 77.1607 105.877 80.4909C103.206 83.821 99.4785 86.14 95.3109 87.0646C91.1434 87.9891 86.7851 87.4639 82.9565 85.5757C79.1279 83.6875 76.0583 80.5493 74.255 76.68C70.165 81.78 64.2 85 57.5 85C44.96 85 35 73.71 35 60C35 46.29 44.96 35 57.5 35C63.295 35 68.54 37.41 72.505 41.36L72.5 38.75C72.5003 37.7999 72.8612 36.8853 73.5099 36.191C74.1585 35.4968 75.0465 35.0746 75.9944 35.0099C76.9423 34.9451 77.8795 35.2426 78.6165 35.8422C79.3535 36.4417 79.8355 37.2987 79.965 38.24L80 38.75V68.75C79.9946 71.6706 81.1252 74.4788 83.1528 76.5808C85.1804 78.6829 87.9459 79.9141 90.8648 80.0141C93.7836 80.1141 96.627 79.0751 98.7936 77.1167C100.96 75.1583 102.28 72.4341 102.475 69.52L102.5 68.75V60C102.497 50.9443 99.6025 42.1261 94.2371 34.831C88.8716 27.536 81.3163 22.1454 72.6726 19.4452C64.0288 16.745 54.7485 16.8763 46.1846 19.82C37.6207 22.7637 30.2209 28.3659 25.0641 35.8099C19.9073 43.2539 17.263 52.1505 17.5167 61.2026C17.7704 70.2548 20.9089 78.9893 26.4746 86.1327C32.0403 93.2761 39.7423 98.4551 48.4576 100.914C57.173 103.374 66.446 102.985 74.925 99.805C75.8566 99.4556 76.8888 99.4905 77.7946 99.9022C78.7004 100.314 79.4056 101.068 79.755 102C80.1044 102.932 80.0695 103.964 79.6578 104.87C79.2462 105.775 78.4916 106.481 77.56 106.83C71.9441 108.931 65.9961 110.005 60 110C32.385 110 10 87.615 10 60C10 32.385 32.385 10 60 10C87.15 10 109.24 31.635 109.98 58.6L110 60ZM57.5 42.5C49.325 42.5 42.5 50.24 42.5 60C42.5 69.76 49.325 77.5 57.5 77.5C65.67 77.5 72.5 69.76 72.5 60C72.5 50.24 65.67 42.5 57.5 42.5Z" fill="currentColor"/>
    </symbol>
</svg>
