<svg xmlns="http://www.w3.org/2000/svg">
    <symbol id="error-circle" viewBox="0 0 120 120">
        <path d="M60 10C87.615 10 110 32.39 110 60C110 87.61 87.615 110 60 110C32.385 110 10 87.61 10 60C10 32.39 32.385 10 60 10ZM60 18.335C37.025 18.335 18.335 37.025 18.335 60C18.335 82.975 37.025 101.665 60 101.665C82.975 101.665 101.665 82.975 101.665 60C101.665 37.025 82.975 18.335 60 18.335ZM59.995 72.51C61.3198 72.51 62.5903 73.0363 63.527 73.973C64.4637 74.9097 64.99 76.1802 64.99 77.505C64.99 78.8298 64.4637 80.1003 63.527 81.037C62.5903 81.9737 61.3198 82.5 59.995 82.5C58.6702 82.5 57.3997 81.9737 56.463 81.037C55.5263 80.1003 55 78.8298 55 77.505C55 76.1802 55.5263 74.9097 56.463 73.973C57.3997 73.0363 58.6702 72.51 59.995 72.51ZM59.97 35C60.8771 34.9988 61.7538 35.3265 62.4378 35.9222C63.1218 36.5179 63.5666 37.3414 63.69 38.24L63.725 38.745L63.745 61.255C63.746 62.2056 63.3859 63.121 62.7377 63.8162C62.0895 64.5114 61.2014 64.9345 60.2531 65C59.3048 65.0654 58.367 64.7682 57.6295 64.1686C56.8919 63.569 56.4096 62.7117 56.28 61.77L56.245 61.26L56.225 38.755C56.2243 38.2621 56.3209 37.7739 56.509 37.3184C56.6972 36.8629 56.9733 36.4489 57.3216 36.1001C57.6699 35.7514 58.0835 35.4747 58.5388 35.2859C58.9941 35.0972 59.4771 35 59.97 35Z" fill="currentColor"/>
    </symbol>
</svg>
