<svg xmlns="http://www.w3.org/2000/svg">
    <symbol id="exit-bold" viewBox="0 0 120 120">
        <path d="M76.5 105C77.6935 105 78.8381 104.526 79.682 103.682C80.5259 102.838 81 101.693 81 100.5C81 99.3065 80.5259 98.1619 79.682 97.318C78.8381 96.4741 77.6935 96 76.5 96H39C35.8174 96 32.7652 94.7357 30.5147 92.4853C28.2643 90.2348 27 87.1826 27 84V36C27 32.8174 28.2643 29.7652 30.5147 27.5147C32.7652 25.2643 35.8174 24 39 24H76.5C77.6935 24 78.8381 23.5259 79.682 22.682C80.5259 21.8381 81 20.6935 81 19.5C81 18.3065 80.5259 17.1619 79.682 16.318C78.8381 15.4741 77.6935 15 76.5 15H39C33.4305 15 28.089 17.2125 24.1508 21.1508C20.2125 25.089 18 30.4305 18 36V84C18 89.5695 20.2125 94.911 24.1508 98.8492C28.089 102.788 33.4305 105 39 105H76.5ZM82.446 37.194C82.8801 36.7929 83.389 36.4812 83.9436 36.2767C84.4982 36.0723 85.0876 35.9791 85.6782 36.0025C86.2688 36.0259 86.849 36.1654 87.3857 36.4131C87.9224 36.6608 88.405 37.0118 88.806 37.446L106.806 56.946C107.574 57.7774 108.001 58.8679 108.001 60C108.001 61.1321 107.574 62.2226 106.806 63.054L88.806 82.554C87.9952 83.43 86.8697 83.9481 85.6769 83.9942C84.4842 84.0403 83.322 83.6108 82.446 82.8C81.57 81.9892 81.0519 80.8637 81.0058 79.6709C80.9597 78.4782 81.3892 77.316 82.2 76.44L93.228 64.494H46.5C45.3065 64.494 44.1619 64.0199 43.318 63.176C42.4741 62.3321 42 61.1875 42 59.994C42 58.8005 42.4741 57.6559 43.318 56.812C44.1619 55.9681 45.3065 55.494 46.5 55.494H93.222L82.194 43.548C81.7929 43.1139 81.4812 42.605 81.2767 42.0504C81.0723 41.4958 80.9791 40.9064 81.0025 40.3158C81.0259 39.7252 81.1654 39.145 81.4131 38.6083C81.6608 38.0716 82.0118 37.595 82.446 37.194Z" fill="currentColor"/>
    </symbol>
</svg>