<svg xmlns="http://www.w3.org/2000/svg">
    <symbol id="exit" viewBox="0 0 120 120">
        <path d="M75 102C75.7957 102 76.5587 101.684 77.1213 101.121C77.6839 100.559 78 99.7956 78 99C78 98.2044 77.6839 97.4413 77.1213 96.8787C76.5587 96.3161 75.7957 96 75 96H36C32.8174 96 29.7652 94.7357 27.5147 92.4853C25.2643 90.2348 24 87.1826 24 84V36C24 32.8174 25.2643 29.7652 27.5147 27.5147C29.7652 25.2643 32.8174 24 36 24H75C75.7957 24 76.5587 23.6839 77.1213 23.1213C77.6839 22.5587 78 21.7956 78 21C78 20.2044 77.6839 19.4413 77.1213 18.8787C76.5587 18.3161 75.7957 18 75 18H36C31.2261 18 26.6477 19.8964 23.2721 23.2721C19.8964 26.6477 18 31.2261 18 36V84C18 88.7739 19.8964 93.3523 23.2721 96.7279C26.6477 100.104 31.2261 102 36 102H75ZM81.876 36.876C82.1547 36.5966 82.4857 36.375 82.8502 36.2237C83.2147 36.0725 83.6054 35.9946 84 35.9946C84.3946 35.9946 84.7853 36.0725 85.1498 36.2237C85.5143 36.375 85.8453 36.5966 86.124 36.876L107.124 57.876C107.403 58.1547 107.625 58.4857 107.776 58.8502C107.928 59.2147 108.005 59.6054 108.005 60C108.005 60.3946 107.928 60.7853 107.776 61.1498C107.625 61.5143 107.403 61.8453 107.124 62.124L86.124 83.124C85.8451 83.4029 85.5139 83.6242 85.1495 83.7751C84.7851 83.9261 84.3945 84.0038 84 84.0038C83.6055 84.0038 83.2149 83.9261 82.8505 83.7751C82.4861 83.6242 82.1549 83.4029 81.876 83.124C81.5971 82.8451 81.3758 82.5139 81.2249 82.1495C81.0739 81.7851 80.9962 81.3945 80.9962 81C80.9962 80.6055 81.0739 80.2149 81.2249 79.8505C81.3758 79.4861 81.5971 79.1549 81.876 78.876L97.758 63H45C44.2044 63 43.4413 62.6839 42.8787 62.1213C42.3161 61.5587 42 60.7956 42 60C42 59.2044 42.3161 58.4413 42.8787 57.8787C43.4413 57.3161 44.2044 57 45 57H97.758L81.876 41.124C81.5966 40.8453 81.375 40.5143 81.2237 40.1498C81.0725 39.7853 80.9946 39.3946 80.9946 39C80.9946 38.6054 81.0725 38.2147 81.2237 37.8502C81.375 37.4857 81.5966 37.1547 81.876 36.876Z" fill="currentColor"/>
    </symbol>
</svg>