<svg xmlns="http://www.w3.org/2000/svg">
    <symbol id="feed-filled" viewBox="0 0 120 120">
        <path d="M49.18 10.17C49.74 10.3633 50.2883 10.59 50.825 10.85L57.24 14.01C58.0987 14.4326 59.0429 14.6524 60 14.6524C60.9571 14.6524 61.9013 14.4326 62.76 14.01L69.175 10.85C70.7952 10.0524 72.5566 9.58177 74.3586 9.46497C76.1607 9.34817 77.9681 9.58749 79.6777 10.1693C81.3872 10.751 82.9654 11.6639 84.3222 12.8556C85.6789 14.0474 86.7876 15.4947 87.585 17.115L87.95 17.925L88.265 18.76L90.565 25.525C91.19 27.365 92.635 28.805 94.47 29.43L101.24 31.73C103.092 32.36 104.788 33.3779 106.215 34.7158C107.642 36.0536 108.767 37.6805 109.516 39.4878C110.264 41.2951 110.618 43.2413 110.554 45.1964C110.49 47.1514 110.01 49.0704 109.145 50.825L105.99 57.24C105.567 58.0987 105.348 59.0429 105.348 60C105.348 60.957 105.567 61.9013 105.99 62.76L109.145 69.175C110.009 70.9294 110.488 72.8478 110.552 74.8023C110.615 76.7568 110.261 78.7023 109.513 80.509C108.765 82.3158 107.64 83.9421 106.213 85.2796C104.787 86.617 103.091 87.6348 101.24 88.265L94.47 90.565C93.5644 90.8739 92.7418 91.3866 92.0656 92.0637C91.3895 92.7407 90.8778 93.564 90.57 94.47L88.265 101.24C87.6348 103.091 86.6171 104.787 85.2796 106.213C83.9422 107.64 82.3158 108.765 80.5091 109.513C78.7023 110.261 76.7568 110.615 74.8023 110.552C72.8479 110.488 70.9294 110.009 69.175 109.145L62.76 105.99C61.9013 105.567 60.9571 105.348 60 105.348C59.0429 105.348 58.0987 105.567 57.24 105.99L50.825 109.145C49.0706 110.009 47.1521 110.488 45.1977 110.552C43.2432 110.615 41.2977 110.261 39.4909 109.513C37.6842 108.765 36.0578 107.64 34.7204 106.213C33.3829 104.787 32.3652 103.091 31.735 101.24L29.435 94.47C29.1256 93.5638 28.6121 92.7409 27.9341 92.0647C27.2562 91.3885 26.4319 90.8771 25.525 90.57L18.76 88.265C16.9084 87.6353 15.2124 86.618 13.7852 85.2807C12.358 83.9435 11.2326 82.3172 10.4839 80.5104C9.73528 78.7036 9.38068 76.7579 9.44381 74.8032C9.50694 72.8485 9.98634 70.9297 10.85 69.175L14.01 62.76C14.4326 61.9013 14.6524 60.957 14.6524 60C14.6524 59.0429 14.4326 58.0987 14.01 57.24L10.85 50.825C9.98634 49.0703 9.50694 47.1515 9.44381 45.1968C9.38068 43.242 9.73528 41.2963 10.4839 39.4895C11.2326 37.6827 12.358 36.0565 13.7852 34.7192C15.2124 33.382 16.9084 32.3646 18.76 31.735L25.525 29.435C26.4321 29.1262 27.256 28.613 27.9331 27.935C28.6102 27.257 29.1224 26.4324 29.43 25.525L31.73 18.76C32.3114 17.0499 33.2241 15.4712 34.4158 14.114C35.6075 12.7567 37.0549 11.6475 38.6754 10.8498C40.2959 10.0521 42.0577 9.58152 43.8601 9.46487C45.6625 9.34821 47.4702 9.58781 49.18 10.17ZM77.35 44.845L50.25 71.945L40.38 60.095C40.0692 59.7033 39.6832 59.3777 39.2447 59.1374C38.8062 58.897 38.3241 58.7468 37.8267 58.6956C37.3293 58.6443 36.8267 58.6931 36.3484 58.839C35.8701 58.9848 35.4258 59.2249 35.0417 59.545C34.6576 59.8651 34.3413 60.2588 34.1116 60.703C33.8819 61.1471 33.7433 61.6327 33.704 62.1312C33.6647 62.6297 33.7255 63.131 33.8828 63.6056C34.0401 64.0802 34.2908 64.5186 34.62 64.895L47.12 79.895C47.4533 80.2952 47.8663 80.6215 48.3326 80.8533C48.799 81.0851 49.3086 81.2172 49.8288 81.2412C50.349 81.2651 50.8686 81.1805 51.3543 80.9926C51.84 80.8048 52.2813 80.5178 52.65 80.15L82.65 50.15C83.0184 49.8067 83.3139 49.3927 83.5189 48.9327C83.7239 48.4727 83.8341 47.9761 83.843 47.4726C83.8518 46.9691 83.7592 46.4689 83.5706 46.002C83.382 45.535 83.1013 45.1109 82.7452 44.7548C82.3891 44.3987 81.9649 44.118 81.498 43.9294C81.031 43.7408 80.5309 43.6481 80.0274 43.657C79.5239 43.6659 79.0273 43.7761 78.5673 43.9811C78.1073 44.186 77.6933 44.4815 77.35 44.85" fill="currentColor"/>
    </symbol>
</svg>

