<svg xmlns="http://www.w3.org/2000/svg">
    <symbol id="filter" viewBox="0 0 120 120">
        <path d="M67.5 80C68.4946 80 69.4484 80.3951 70.1516 81.0983C70.8549 81.8016 71.25 82.7554 71.25 83.75C71.25 84.7446 70.8549 85.6984 70.1516 86.4017C69.4484 87.1049 68.4946 87.5 67.5 87.5H52.5C51.5054 87.5 50.5516 87.1049 49.8484 86.4017C49.1451 85.6984 48.75 84.7446 48.75 83.75C48.75 82.7554 49.1451 81.8016 49.8484 81.0983C50.5516 80.3951 51.5054 80 52.5 80H67.5ZM82.5 55C83.4946 55 84.4484 55.3951 85.1517 56.0984C85.8549 56.8016 86.25 57.7554 86.25 58.75C86.25 59.7446 85.8549 60.6984 85.1517 61.4016C84.4484 62.1049 83.4946 62.5 82.5 62.5H37.5C36.5054 62.5 35.5516 62.1049 34.8483 61.4016C34.1451 60.6984 33.75 59.7446 33.75 58.75C33.75 57.7554 34.1451 56.8016 34.8483 56.0984C35.5516 55.3951 36.5054 55 37.5 55H82.5ZM97.5 30C98.4946 30 99.4484 30.3951 100.152 31.0983C100.855 31.8016 101.25 32.7554 101.25 33.75C101.25 34.7446 100.855 35.6984 100.152 36.4017C99.4484 37.1049 98.4946 37.5 97.5 37.5H22.5C21.5054 37.5 20.5516 37.1049 19.8483 36.4017C19.1451 35.6984 18.75 34.7446 18.75 33.75C18.75 32.7554 19.1451 31.8016 19.8483 31.0983C20.5516 30.3951 21.5054 30 22.5 30H97.5Z" fill="currentColor"/>
    </symbol>
</svg>