<svg xmlns="http://www.w3.org/2000/svg">
    <symbol id="folder-open" viewBox="0 0 120 120">
        <path d="M17.5 31.25C17.5 26.42 21.42 22.5 26.25 22.5H40.65C41.6442 22.5009 42.5974 22.8965 43.3 23.6L53.6 33.9C54.31 34.605 55.26 35 56.255 35H83.755C88.59 35 92.505 38.92 92.505 43.75C92.5083 44.1833 92.5767 44.5933 92.71 44.98H43.6C40.3071 44.9774 37.0717 45.842 34.219 47.4869C31.3664 49.1317 28.9973 51.4988 27.35 54.35L17.5 71.415V31.25ZM10 88.94C10.05 93.2168 11.7841 97.3014 14.8262 100.308C17.8682 103.314 21.973 105 26.25 105H55C55.1467 105 55.29 104.992 55.43 104.975H81.405C84.6967 104.975 87.9304 104.109 90.7811 102.463C93.6319 100.818 95.9992 98.4507 97.645 95.6L112.795 69.35C118.875 58.83 111.67 45.75 99.785 45.01C99.9237 44.6042 99.9963 44.1788 100 43.75C100 39.4402 98.288 35.307 95.2405 32.2595C92.193 29.212 88.0598 27.5 83.75 27.5H57.8L48.6 18.295C47.5553 17.2503 46.3151 16.4217 44.9502 15.8563C43.5853 15.291 42.1224 15 40.645 15H26.25C21.9402 15 17.807 16.712 14.7595 19.7595C11.712 22.807 10 26.9402 10 31.25V88.94ZM43.595 52.48H98.725C105.46 52.48 109.675 59.77 106.3 65.605L91.15 91.855C90.1618 93.5646 88.741 94.984 87.0304 95.9705C85.3198 96.957 83.3797 97.4759 81.405 97.475H26.275C19.54 97.475 15.325 90.185 18.695 84.35L33.85 58.1C34.8382 56.3904 36.259 54.971 37.9696 53.9845C39.6802 52.998 41.6203 52.4791 43.595 52.48Z" fill="currentColor"/>
    </symbol>
</svg>
