<svg xmlns="http://www.w3.org/2000/svg">
    <symbol id="folder" viewBox="0 0 120 120">
        <path d="M17.5 31.25V40H40.645C41.6392 39.9991 42.5924 39.6035 43.295 38.9L50.945 31.25L43.295 23.6C42.5924 22.8965 41.6392 22.5009 40.645 22.5H26.25C23.9294 22.5 21.7038 23.4219 20.0628 25.0628C18.4219 26.7038 17.5 28.9294 17.5 31.25ZM10 31.25C10 26.9402 11.712 22.807 14.7595 19.7595C17.807 16.712 21.9402 15 26.25 15H40.645C43.627 15.0013 46.4864 16.1864 48.595 18.295L57.81 27.5H93.755C98.0639 27.5013 102.196 29.214 105.242 32.2613C108.289 35.3086 110 39.4411 110 43.75V88.75C110 90.884 109.58 92.9971 108.763 94.9686C107.946 96.9401 106.749 98.7315 105.24 100.24C103.732 101.749 101.94 102.946 99.9686 103.763C97.9971 104.58 95.884 105 93.75 105H26.25C21.9402 105 17.807 103.288 14.7595 100.24C11.712 97.193 10 93.0598 10 88.75V31.25ZM17.5 47.5V88.75C17.5 93.58 21.42 97.5 26.25 97.5H93.75C96.0706 97.5 98.2962 96.5781 99.9372 94.9372C101.578 93.2962 102.5 91.0706 102.5 88.75V43.75C102.5 41.4294 101.578 39.2038 99.9372 37.5628C98.2962 35.9219 96.0706 35 93.75 35H57.8L48.6 44.205C47.5553 45.2497 46.3151 46.0783 44.9502 46.6437C43.5853 47.209 42.1224 47.5 40.645 47.5H17.5Z" fill="currentColor"/>
    </symbol>
</svg>