<svg xmlns="http://www.w3.org/2000/svg">
    <symbol id="folder-find" viewBox="0 0 120 120">
        <path d="M26.25 15C21.9402 15 17.807 16.712 14.7595 19.7595C11.712 22.807 10 26.9402 10 31.25V88.75C10 93.0598 11.712 97.193 14.7595 100.24C17.807 103.288 21.9402 105 26.25 105H85V104.89C81.1164 105.25 77.2006 104.778 73.5145 103.503C69.8283 102.229 66.4566 100.182 63.625 97.5H26.25C23.9294 97.5 21.7038 96.5781 20.0628 94.9372C18.4219 93.2962 17.5 91.0706 17.5 88.75V47.5H40.645C43.627 47.4987 46.4864 46.3136 48.595 44.205L57.81 35H93.755C98.585 35 102.505 38.92 102.505 43.75V58.625C106.737 63.0984 109.338 68.8669 109.89 75H110V43.75C110 41.616 109.58 39.5029 108.763 37.5314C107.946 35.5599 106.749 33.7685 105.24 32.2595C103.732 30.7506 101.94 29.5536 99.9686 28.737C97.9971 27.9203 95.884 27.5 93.75 27.5H57.8L48.6 18.295C47.5553 17.2503 46.3151 16.4217 44.9502 15.8563C43.5853 15.291 42.1224 15 40.645 15H26.25ZM17.5 40V31.25C17.5 26.42 21.42 22.5 26.25 22.5H40.645C41.6392 22.5009 42.5924 22.8965 43.295 23.6L50.945 31.25L43.295 38.9C42.5924 39.6035 41.6392 39.9991 40.645 40H17.5ZM82.5 100C87.1715 100 91.7272 98.5462 95.535 95.84L108.6 108.9C108.943 109.268 109.357 109.564 109.817 109.769C110.277 109.974 110.774 110.084 111.277 110.093C111.781 110.102 112.281 110.009 112.748 109.821C113.215 109.632 113.639 109.351 113.995 108.995C114.351 108.639 114.632 108.215 114.821 107.748C115.009 107.281 115.102 106.781 115.093 106.277C115.084 105.774 114.974 105.277 114.769 104.817C114.564 104.357 114.268 103.943 113.9 103.6L100.84 90.535C103.762 86.4238 105.218 81.45 104.974 76.412C104.73 71.374 102.801 66.5641 99.4951 62.7544C96.1895 58.9447 91.6998 56.3561 86.7465 55.4043C81.7933 54.4524 76.6639 55.1925 72.1817 57.5057C67.6995 59.8189 64.1246 63.571 62.0307 68.1597C59.9369 72.7485 59.4456 77.9076 60.6358 82.8091C61.8259 87.7105 64.6285 92.0699 68.5935 95.1875C72.5586 98.305 77.4561 99.9999 82.5 100ZM82.5 92.5C78.5218 92.5 74.7064 90.9196 71.8934 88.1066C69.0804 85.2936 67.5 81.4782 67.5 77.5C67.5 73.5218 69.0804 69.7064 71.8934 66.8934C74.7064 64.0804 78.5218 62.5 82.5 62.5C86.4782 62.5 90.2936 64.0804 93.1066 66.8934C95.9196 69.7064 97.5 73.5218 97.5 77.5C97.5 81.4782 95.9196 85.2936 93.1066 88.1066C90.2936 90.9196 86.4782 92.5 82.5 92.5Z" fill="currentColor"/>
    </symbol>
</svg>
