<svg xmlns="http://www.w3.org/2000/svg">
    <symbol id="folder-add" viewBox="0 0 120 120">
        <path d="M17.5 31.25V40H40.645C41.6392 39.9991 42.5924 39.6035 43.295 38.9L50.945 31.25L43.295 23.6C42.5924 22.8965 41.6392 22.5009 40.645 22.5H26.25C23.9294 22.5 21.7038 23.4219 20.0628 25.0628C18.4219 26.7038 17.5 28.9294 17.5 31.25ZM10 31.25C10 26.9402 11.712 22.807 14.7595 19.7595C17.807 16.712 21.9402 15 26.25 15H40.645C43.627 15.0013 46.4864 16.1864 48.595 18.295L57.81 27.5H93.755C98.0639 27.5013 102.196 29.214 105.242 32.2613C108.289 35.3086 110 39.4411 110 43.75V64.05C107.769 61.9055 105.244 60.0905 102.5 58.66V43.75C102.5 41.4294 101.578 39.2038 99.9372 37.5628C98.2962 35.9219 96.0706 35 93.75 35H57.8L48.6 44.205C47.5553 45.2497 46.3151 46.0783 44.9502 46.6437C43.5853 47.209 42.1224 47.5 40.645 47.5H17.5V88.75C17.5 93.58 21.42 97.5 26.25 97.5H56.565C57.43 100.17 58.625 102.685 60.11 105H26.25C21.9402 105 17.807 103.288 14.7595 100.24C11.712 97.193 10 93.0598 10 88.75V31.25ZM115 87.5C115 80.2065 112.103 73.2118 106.945 68.0546C101.788 62.8973 94.7935 60 87.5 60C80.2065 60 73.2118 62.8973 68.0546 68.0546C62.8973 73.2118 60 80.2065 60 87.5C60 94.7935 62.8973 101.788 68.0546 106.945C73.2118 112.103 80.2065 115 87.5 115C94.7935 115 101.788 112.103 106.945 106.945C112.103 101.788 115 94.7935 115 87.5ZM90 90L90.005 102.515C90.005 103.178 89.7416 103.814 89.2728 104.283C88.8039 104.752 88.168 105.015 87.505 105.015C86.842 105.015 86.2061 104.752 85.7372 104.283C85.2684 103.814 85.005 103.178 85.005 102.515V90H72.48C71.817 90 71.1811 89.7366 70.7122 89.2678C70.2434 88.7989 69.98 88.163 69.98 87.5C69.98 86.837 70.2434 86.2011 70.7122 85.7322C71.1811 85.2634 71.817 85 72.48 85H85V72.5C85 71.837 85.2634 71.2011 85.7322 70.7322C86.2011 70.2634 86.837 70 87.5 70C88.163 70 88.7989 70.2634 89.2678 70.7322C89.7366 71.2011 90 71.837 90 72.5V85H102.485C103.148 85 103.784 85.2634 104.253 85.7322C104.722 86.2011 104.985 86.837 104.985 87.5C104.985 88.163 104.722 88.7989 104.253 89.2678C103.784 89.7366 103.148 90 102.485 90H90Z" fill="currentColor"/>
    </symbol>
</svg>
