<svg xmlns="http://www.w3.org/2000/svg">
    <symbol id="handle" viewBox="0 0 120 120">
        <path d="M77.5 85C79.4891 85 81.3968 85.7902 82.8033 87.1967C84.2098 88.6032 85 90.5109 85 92.5C85 94.4891 84.2098 96.3968 82.8033 97.8033C81.3968 99.2098 79.4891 100 77.5 100C75.5109 100 73.6032 99.2098 72.1967 97.8033C70.7902 96.3968 70 94.4891 70 92.5C70 90.5109 70.7902 88.6032 72.1967 87.1967C73.6032 85.7902 75.5109 85 77.5 85ZM42.5 85C44.4891 85 46.3968 85.7902 47.8033 87.1967C49.2098 88.6032 50 90.5109 50 92.5C50 94.4891 49.2098 96.3968 47.8033 97.8033C46.3968 99.2098 44.4891 100 42.5 100C40.5109 100 38.6032 99.2098 37.1967 97.8033C35.7902 96.3968 35 94.4891 35 92.5C35 90.5109 35.7902 88.6032 37.1967 87.1967C38.6032 85.7902 40.5109 85 42.5 85ZM77.5 50C79.4891 50 81.3968 50.7902 82.8033 52.1967C84.2098 53.6032 85 55.5109 85 57.5C85 59.4891 84.2098 61.3968 82.8033 62.8033C81.3968 64.2098 79.4891 65 77.5 65C75.5109 65 73.6032 64.2098 72.1967 62.8033C70.7902 61.3968 70 59.4891 70 57.5C70 55.5109 70.7902 53.6032 72.1967 52.1967C73.6032 50.7902 75.5109 50 77.5 50ZM42.5 50C44.4891 50 46.3968 50.7902 47.8033 52.1967C49.2098 53.6032 50 55.5109 50 57.5C50 59.4891 49.2098 61.3968 47.8033 62.8033C46.3968 64.2098 44.4891 65 42.5 65C40.5109 65 38.6032 64.2098 37.1967 62.8033C35.7902 61.3968 35 59.4891 35 57.5C35 55.5109 35.7902 53.6032 37.1967 52.1967C38.6032 50.7902 40.5109 50 42.5 50ZM77.5 15C79.4891 15 81.3968 15.7902 82.8033 17.1967C84.2098 18.6032 85 20.5109 85 22.5C85 24.4891 84.2098 26.3968 82.8033 27.8033C81.3968 29.2098 79.4891 30 77.5 30C75.5109 30 73.6032 29.2098 72.1967 27.8033C70.7902 26.3968 70 24.4891 70 22.5C70 20.5109 70.7902 18.6032 72.1967 17.1967C73.6032 15.7902 75.5109 15 77.5 15ZM42.5 15C44.4891 15 46.3968 15.7902 47.8033 17.1967C49.2098 18.6032 50 20.5109 50 22.5C50 24.4891 49.2098 26.3968 47.8033 27.8033C46.3968 29.2098 44.4891 30 42.5 30C40.5109 30 38.6032 29.2098 37.1967 27.8033C35.7902 26.3968 35 24.4891 35 22.5C35 20.5109 35.7902 18.6032 37.1967 17.1967C38.6032 15.7902 40.5109 15 42.5 15Z" fill="currentColor"/>
    </symbol>
</svg>
