<svg xmlns="http://www.w3.org/2000/svg">
    <symbol id="heart-circle-filled" viewBox="0 0 120 120">
        <path d="M60 110C87.615 110 110 87.615 110 60C110 32.385 87.615 10 60 10C32.385 10 10 32.385 10 60C10 87.615 32.385 110 60 110ZM58.48 84.28L37.95 60.32C35.8545 57.9215 34.7711 54.8036 34.9278 51.6226C35.0844 48.4415 36.4689 45.4451 38.7899 43.2641C41.1108 41.083 44.1873 39.8873 47.372 39.9285C50.5567 39.9697 53.6012 41.2446 55.865 43.485L60 47.5L64.135 43.485C66.4066 41.2808 69.4403 40.0367 72.6054 40.0114C75.7706 39.986 78.8238 41.1814 81.1304 43.3489C83.4371 45.5165 84.8197 48.4896 84.9909 51.6502C85.1622 54.8108 84.1089 57.9159 82.05 60.32L61.515 84.28C61.3272 84.4987 61.0944 84.6742 60.8325 84.7946C60.5706 84.9149 60.2857 84.9772 59.9975 84.9772C59.7093 84.9772 59.4244 84.9149 59.1625 84.7946C58.9006 84.6742 58.6678 84.4987 58.48 84.28Z" fill="currentColor"/>
    </symbol >
</svg>