<svg xmlns="http://www.w3.org/2000/svg">
    <symbol id="heart-circle" viewBox="0 0 120 120">
        <path d="M58.48 84.28L37.95 60.32C35.8545 57.9215 34.7711 54.8036 34.9278 51.6226C35.0844 48.4415 36.4689 45.4451 38.7899 43.2641C41.1108 41.083 44.1873 39.8873 47.372 39.9285C50.5567 39.9697 53.6012 41.2446 55.865 43.485L60 47.5L64.135 43.485C66.4048 41.2694 69.4425 40.0159 72.6143 39.986C75.7861 39.9561 78.8468 41.1522 81.158 43.3246C83.4691 45.4971 84.8521 48.4781 85.0183 51.6457C85.1845 54.8132 84.1211 57.9226 82.05 60.325L61.52 84.275C61.3322 84.4946 61.0991 84.6708 60.8368 84.7917C60.5744 84.9126 60.2889 84.9752 60 84.9752C59.7111 84.9752 59.4256 84.9126 59.1632 84.7917C58.9009 84.6708 58.6678 84.4946 58.48 84.275M110 60C110 87.615 87.615 110 60 110C32.385 110 10 87.615 10 60C10 32.385 32.385 10 60 10C87.615 10 110 32.385 110 60ZM102.5 60C102.5 48.7283 98.0223 37.9183 90.052 29.948C82.0817 21.9777 71.2717 17.5 60 17.5C48.7283 17.5 37.9183 21.9777 29.948 29.948C21.9777 37.9183 17.5 48.7283 17.5 60C17.5 71.2717 21.9777 82.0817 29.948 90.052C37.9183 98.0223 48.7283 102.5 60 102.5C71.2717 102.5 82.0817 98.0223 90.052 90.052C98.0223 82.0817 102.5 71.2717 102.5 60Z" fill="currentColor"/>
    </symbol>
</svg>