<svg xmlns="http://www.w3.org/2000/svg">
    <symbol id="heart" viewBox="0 0 120 120">
        <path d="M64.1001 27.8999L60.0001 32.0099L55.8801 27.8899C50.8396 22.8501 44.0036 20.0191 36.8758 20.0196C29.748 20.02 22.9123 22.852 17.8726 27.8924C12.8328 32.9329 10.0017 39.7689 10.0022 46.8967C10.0027 54.0245 12.8346 60.8601 17.8751 65.8999L57.3501 105.375C58.0532 106.077 59.0063 106.472 60.0001 106.472C60.9938 106.472 61.9469 106.077 62.6501 105.375L102.16 65.8899C107.195 60.8491 110.022 54.0157 110.021 46.8914C110.02 39.767 107.191 32.9345 102.155 27.8949C99.6569 25.3951 96.6907 23.4121 93.4259 22.0591C90.1611 20.7061 86.6616 20.0098 83.1276 20.0098C79.5935 20.0098 76.0941 20.7061 72.8292 22.0591C69.5644 23.4121 66.5982 25.4001 64.1001 27.8999ZM96.8401 60.5949L60.0001 97.4249L23.1751 60.5999C21.3602 58.8043 19.9181 56.6677 18.9317 54.3129C17.9453 51.9581 17.434 49.4316 17.4272 46.8786C17.4205 44.3256 17.9183 41.7964 18.8922 39.4364C19.866 37.0764 21.2967 34.9321 23.102 33.1268C24.9072 31.3216 27.0515 29.8909 29.4115 28.917C31.7715 27.9432 34.3007 27.4453 36.8537 27.4521C39.4067 27.4589 41.9332 27.9702 44.288 28.9566C46.6428 29.943 48.7794 31.3851 50.5751 33.1999L57.3651 39.9849C57.7183 40.3386 58.1387 40.6181 58.6016 40.8069C59.0644 40.9958 59.5603 41.0902 60.0602 41.0846C60.5601 41.079 61.0537 40.9735 61.5122 40.7744C61.9707 40.5752 62.3848 40.2864 62.7301 39.9249L69.4001 33.1999C73.0766 29.7778 77.9371 27.915 82.9591 28.0033C87.9811 28.0917 92.773 30.1244 96.3269 33.6737C99.8808 37.2231 101.92 42.0124 102.014 47.0343C102.109 52.0561 100.253 56.919 96.8351 60.5999" fill="currentColor"/>
    </symbol>
</svg>