<svg xmlns="http://www.w3.org/2000/svg">
    <symbol id="home-filled" viewBox="0 0 120 120">
        <path d="M67.25 12.665C65.2212 10.9551 62.6533 10.0173 60 10.0173C57.3467 10.0173 54.7788 10.9551 52.75 12.665L19 41.14C17.7473 42.1958 16.7403 43.5124 16.0494 44.9979C15.3585 46.4833 15.0003 48.1017 15 49.74V96.265C15 101.095 18.92 105.015 23.75 105.015H38.75C41.0706 105.015 43.2962 104.093 44.9372 102.452C46.5781 100.811 47.5 98.5857 47.5 96.265V76.25C47.5 72.85 50.21 70.09 53.585 70H66.415C68.0438 70.043 69.5915 70.7205 70.7281 71.8879C71.8648 73.0554 72.5006 74.6206 72.5 76.25V96.265C72.5 101.095 76.42 105.015 81.25 105.015H96.25C98.5706 105.015 100.796 104.093 102.437 102.452C104.078 100.811 105 98.5857 105 96.265V49.735C105 48.0967 104.642 46.4783 103.951 44.9929C103.26 43.5074 102.253 42.1908 101 41.135L67.25 12.665Z" fill="currentColor"/>
    </symbol>
</svg>