<svg xmlns="http://www.w3.org/2000/svg">
    <symbol id="home" viewBox="0 0 120 120">
        <path d="M52.75 12.66C54.7788 10.9501 57.3467 10.0123 60 10.0123C62.6533 10.0123 65.2212 10.9501 67.25 12.66L101 41.12C103.535 43.26 105 46.405 105 49.72V96.27C105 98.5907 104.078 100.816 102.437 102.457C100.796 104.098 98.5706 105.02 96.25 105.02H78.75C76.4294 105.02 74.2038 104.098 72.5628 102.457C70.9219 100.816 70 98.5907 70 96.27V71.235C70 70.9035 69.8683 70.5855 69.6339 70.3511C69.3995 70.1167 69.0815 69.985 68.75 69.985H51.25C50.9185 69.985 50.6005 70.1167 50.3661 70.3511C50.1317 70.5855 50 70.9035 50 71.235V96.27C50 98.5907 49.0781 100.816 47.4372 102.457C45.7962 104.098 43.5706 105.02 41.25 105.02H23.75C22.6009 105.02 21.4631 104.794 20.4015 104.354C19.3399 103.914 18.3753 103.27 17.5628 102.457C16.7503 101.645 16.1058 100.68 15.6661 99.6185C15.2263 98.5569 15 97.4191 15 96.27V49.72C15 46.405 16.465 43.26 19 41.12L52.75 12.66ZM62.415 18.395C61.739 17.8259 60.8837 17.5139 60 17.5139C59.1163 17.5139 58.261 17.8259 57.585 18.395L23.835 46.85C23.4173 47.2016 23.0815 47.6401 22.8509 48.135C22.6203 48.6298 22.5006 49.1691 22.5 49.715V96.265C22.5 96.955 23.06 97.515 23.75 97.515H41.25C41.5815 97.515 41.8995 97.3833 42.1339 97.1489C42.3683 96.9145 42.5 96.5965 42.5 96.265V71.23C42.5 66.395 46.42 62.48 51.25 62.48H68.75C73.58 62.48 77.5 66.395 77.5 71.23V96.265C77.5 96.955 78.06 97.515 78.75 97.515H96.25C96.5815 97.515 96.8995 97.3833 97.1339 97.1489C97.3683 96.9145 97.5 96.5965 97.5 96.265V49.715C97.4994 49.1691 97.3797 48.6298 97.1491 48.135C96.9185 47.6401 96.5827 47.2016 96.165 46.85L62.415 18.395Z" fill="currentColor"/>
    </symbol>
</svg>
