<svg xmlns="http://www.w3.org/2000/svg">
    <symbol id="image" viewBox="0 0 120 120">
        <path d="M88.75 15C93.0598 15 97.193 16.712 100.24 19.7595C103.288 22.807 105 26.9402 105 31.25V88.75C105 93.0598 103.288 97.193 100.24 100.24C97.193 103.288 93.0598 105 88.75 105H31.25C26.9402 105 22.807 103.288 19.7595 100.24C16.712 97.193 15 93.0598 15 88.75V31.25C15 26.9402 16.712 22.807 19.7595 19.7595C22.807 16.712 26.9402 15 31.25 15H88.75ZM91.65 97.005L62.625 68.575C61.9918 67.9544 61.1592 67.5782 60.275 67.5132C59.3908 67.4482 58.5121 67.6986 57.795 68.22L57.375 68.57L28.34 97.005C29.2533 97.3283 30.2233 97.4933 31.25 97.5H88.75C89.765 97.5 90.745 97.325 91.65 97.005ZM88.75 22.5H31.25C28.9294 22.5 26.7038 23.4219 25.0628 25.0628C23.4219 26.7038 22.5 28.9294 22.5 31.25V88.75C22.5033 89.7933 22.675 90.7833 23.015 91.72L52.13 63.215C54.1259 61.2611 56.7772 60.1196 59.5681 60.0124C62.3591 59.9052 65.0901 60.84 67.23 62.635L67.87 63.215L96.98 91.725C97.32 90.7917 97.4933 89.8 97.5 88.75V31.25C97.5 28.9294 96.5781 26.7038 94.9372 25.0628C93.2962 23.4219 91.0706 22.5 88.75 22.5ZM76.26 32.5C79.2463 32.5 82.1104 33.6863 84.222 35.798C86.3337 37.9096 87.52 40.7737 87.52 43.76C87.52 46.7463 86.3337 49.6104 84.222 51.722C82.1104 53.8337 79.2463 55.02 76.26 55.02C73.2737 55.02 70.4096 53.8337 68.298 51.722C66.1863 49.6104 65 46.7463 65 43.76C65 40.7737 66.1863 37.9096 68.298 35.798C70.4096 33.6863 73.2737 32.5 76.26 32.5ZM76.26 40C75.2628 40 74.3064 40.3961 73.6013 41.1013C72.8961 41.8064 72.5 42.7628 72.5 43.76C72.5 44.7572 72.8961 45.7136 73.6013 46.4187C74.3064 47.1239 75.2628 47.52 76.26 47.52C77.2572 47.52 78.2136 47.1239 78.9187 46.4187C79.6239 45.7136 80.02 44.7572 80.02 43.76C80.02 42.7628 79.6239 41.8064 78.9187 41.1013C78.2136 40.3961 77.2572 40 76.26 40Z" fill="currentColor"/>
    </symbol>
</svg>
