<svg xmlns="http://www.w3.org/2000/svg">
    <symbol id="important-bold" viewBox="0 0 120 120">
        <path d="M60 16C55.4913 16 51.1673 17.7963 47.9792 20.9938C44.7911 24.1913 43 28.5281 43 33.05C43 45.898 48.2952 61.8788 50.9538 69.1256C51.6426 70.9733 52.8803 72.5645 54.4996 73.6842C56.119 74.804 58.0419 75.3982 60.0088 75.3868C63.9747 75.3868 67.6379 73.002 69.0594 69.1476C71.7179 61.9316 77 46.03 77 33.05C77 28.5281 75.2089 24.1913 72.0208 20.9938C68.8327 17.7963 64.5087 16 60 16ZM60.0044 81.9912C57.0944 81.9912 54.3036 83.1506 52.2459 85.2143C50.1882 87.278 49.0323 90.077 49.0323 92.9956C49.0323 95.9141 50.1882 98.7132 52.2459 100.777C54.3036 102.841 57.0944 104 60.0044 104C62.9144 104 65.7052 102.841 67.7629 100.777C69.8205 98.7132 70.9765 95.9141 70.9765 92.9956C70.9765 90.077 69.8205 87.278 67.7629 85.2143C65.7052 83.1506 62.9144 81.9912 60.0044 81.9912Z" fill="currentColor"/>
    </symbol>
</svg>
