<svg xmlns="http://www.w3.org/2000/svg">
    <symbol id="important-filled" viewBox="0 0 120 120">
        <path d="M60 10C87.615 10 110 32.39 110 60C110 87.61 87.615 110 60 110C32.385 110 10 87.61 10 60C10 32.39 32.385 10 60 10ZM60.01 75.02C59.3411 74.9988 58.6747 75.1123 58.0505 75.3537C57.4263 75.595 56.857 75.9594 56.3763 76.4251C55.8956 76.8908 55.5135 77.4483 55.2525 78.0646C54.9915 78.6808 54.857 79.3432 54.857 80.0125C54.857 80.6818 54.9915 81.3442 55.2525 81.9604C55.5135 82.5767 55.8956 83.1342 56.3763 83.5999C56.857 84.0656 57.4263 84.43 58.0505 84.6713C58.6747 84.9127 59.3411 85.0262 60.01 85.005C61.3067 84.964 62.5366 84.42 63.4394 83.4882C64.3422 82.5564 64.847 81.3099 64.847 80.0125C64.847 78.7151 64.3422 77.4686 63.4394 76.5368C62.5366 75.605 61.3067 75.061 60.01 75.02ZM60 35C58.7746 35.0003 57.5919 35.4506 56.6766 36.2654C55.7613 37.0803 55.1772 38.2028 55.035 39.42L55 40L55.01 65.005L55.045 65.59C55.1895 66.8052 55.7748 67.9253 56.6898 68.7379C57.6049 69.5506 58.7862 69.9994 60.01 69.9994C61.2338 69.9994 62.4151 69.5506 63.3302 68.7379C64.2452 67.9253 64.8304 66.8052 64.975 65.59L65.01 65.005L65 40L64.965 39.415C64.8217 38.1987 64.237 37.0774 63.3219 36.2636C62.4067 35.4498 61.2247 35.0002 60 35Z" fill="currentColor"/>
    </symbol>
</svg>
