<svg xmlns="http://www.w3.org/2000/svg">
    <symbol id="key" viewBox="0 0 120 120">
        <path d="M91.2501 35C91.2501 36.6576 90.5916 38.2473 89.4195 39.4194C88.2474 40.5915 86.6577 41.25 85.0001 41.25C83.3425 41.25 81.7528 40.5915 80.5807 39.4194C79.4086 38.2473 78.7501 36.6576 78.7501 35C78.7501 33.3424 79.4086 31.7527 80.5807 30.5806C81.7528 29.4085 83.3425 28.75 85.0001 28.75C86.6577 28.75 88.2474 29.4085 89.4195 30.5806C90.5916 31.7527 91.2501 33.3424 91.2501 35ZM77.5001 10.25C68.8159 10.2553 60.4889 13.7074 54.3482 19.8481C48.2076 25.9888 44.7554 34.3158 44.7501 43C44.7501 44.935 45.0001 46.8 45.3001 48.52C45.342 48.7366 45.3321 48.9599 45.2713 49.1719C45.2105 49.3839 45.1004 49.5786 44.9501 49.74L13.7751 80.92C11.1962 83.4975 9.74656 86.9938 9.74512 90.64V101.5C9.74512 106.33 13.6651 110.25 18.4951 110.25H30.9951C33.3158 110.25 35.5414 109.328 37.1823 107.687C38.8232 106.046 39.7451 103.821 39.7451 101.5V95.25H48.5001C51.9501 95.25 54.7501 92.45 54.7501 89V80.25H63.5001C65.1186 80.2511 66.6745 79.6243 67.8402 78.5015C69.0059 77.3787 69.6906 75.8474 69.7501 74.23C72.2301 74.87 74.8501 75.25 77.5001 75.25C86.1843 75.2447 94.5113 71.7926 100.652 65.6519C106.793 59.5112 110.245 51.1842 110.25 42.5C110.25 24.345 95.4851 10.25 77.5001 10.25ZM52.2501 43C52.2554 36.3049 54.9174 29.8855 59.6515 25.1514C64.3857 20.4173 70.805 17.7553 77.5001 17.75C91.5101 17.75 102.75 28.655 102.75 42.5C102.745 49.1951 100.083 55.6144 95.3487 60.3486C90.6146 65.0827 84.1952 67.7447 77.5001 67.75C74.1001 67.75 70.6001 66.895 67.4751 65.55C66.9043 65.3048 66.2816 65.2053 65.6629 65.2603C65.0441 65.3154 64.4487 65.5233 63.9302 65.8653C63.4117 66.2074 62.9862 66.6729 62.6921 67.22C62.398 67.7672 62.2444 68.3788 62.2451 69V72.75H53.5001C50.0501 72.75 47.2501 75.55 47.2501 79V87.75H38.5001C35.0501 87.75 32.2501 90.55 32.2501 94V101.5C32.2501 101.832 32.1184 102.149 31.884 102.384C31.6496 102.618 31.3316 102.75 31.0001 102.75H18.5001C18.1686 102.75 17.8507 102.618 17.6162 102.384C17.3818 102.149 17.2501 101.832 17.2501 101.5V90.64C17.2501 88.985 17.9101 87.39 19.0801 86.22L50.2601 55.045C51.2651 54.0337 52.0109 52.7945 52.434 51.433C52.8571 50.0714 52.9449 48.6278 52.6901 47.225C52.4239 45.8317 52.2767 44.4183 52.2501 43Z" fill="currentColor"/>
    </symbol>
</svg>