<svg xmlns="http://www.w3.org/2000/svg">
    <symbol id="list" viewBox="0 0 120 120">
        <path d="M31.24 80.0101C36.07 80.0101 39.99 83.9301 39.99 88.7601V101.25C39.99 103.571 39.0681 105.796 37.4272 107.437C35.7862 109.078 33.5606 110 31.24 110H18.75C16.4294 110 14.2038 109.078 12.5628 107.437C10.9219 105.796 10 103.571 10 101.25V88.7601C10 83.9301 13.92 80.0101 18.75 80.0101H31.24ZM31.24 87.5101H18.75C18.4185 87.5101 18.1005 87.6418 17.8661 87.8762C17.6317 88.1107 17.5 88.4286 17.5 88.7601V101.25C17.5 101.94 18.06 102.5 18.75 102.5H31.24C31.5715 102.5 31.8895 102.368 32.1239 102.134C32.3583 101.9 32.49 101.582 32.49 101.25V88.7601C32.49 88.4286 32.3583 88.1107 32.1239 87.8762C31.8895 87.6418 31.5715 87.5101 31.24 87.5101ZM48.74 90.0001H106.265C107.215 90.0004 108.13 90.3613 108.824 91.01C109.518 91.6586 109.94 92.5466 110.005 93.4945C110.07 94.4424 109.772 95.3796 109.173 96.1166C108.573 96.8536 107.716 97.3356 106.775 97.4651L106.265 97.5001H48.74C47.7899 97.4998 46.8753 97.1389 46.181 96.4902C45.4868 95.8416 45.0646 94.9536 44.9999 94.0057C44.9351 93.0578 45.2326 92.1207 45.8322 91.3836C46.4317 90.6466 47.2887 90.1646 48.23 90.0351L48.74 90.0001ZM31.24 45.0051C36.07 45.0051 39.99 48.9251 39.99 53.7551V66.2451C39.99 68.5658 39.0681 70.7914 37.4272 72.4323C35.7862 74.0732 33.5606 74.9951 31.24 74.9951H18.75C16.4294 74.9951 14.2038 74.0732 12.5628 72.4323C10.9219 70.7914 10 68.5658 10 66.2451V53.7501C10 48.9201 13.92 45.0001 18.75 45.0001L31.24 45.0051ZM31.24 52.5051H18.75C18.4185 52.5051 18.1005 52.6368 17.8661 52.8712C17.6317 53.1057 17.5 53.4236 17.5 53.7551V66.2451C17.5 66.9351 18.06 67.4951 18.75 67.4951H31.24C31.5715 67.4951 31.8895 67.3634 32.1239 67.129C32.3583 66.8946 32.49 66.5766 32.49 66.2451V53.7501C32.49 53.4186 32.3583 53.1007 32.1239 52.8662C31.8895 52.6318 31.5715 52.5001 31.24 52.5001M48.74 54.9951H106.265C107.215 54.9954 108.13 55.3563 108.824 56.005C109.518 56.6536 109.94 57.5416 110.005 58.4895C110.07 59.4374 109.772 60.3746 109.173 61.1116C108.573 61.8486 107.716 62.3306 106.775 62.4601L106.265 62.4951H48.74C47.7899 62.4948 46.8753 62.1339 46.181 61.4853C45.4868 60.8366 45.0646 59.9486 44.9999 59.0007C44.9351 58.0528 45.2326 57.1157 45.8322 56.3786C46.4317 55.6416 47.2887 55.1596 48.23 55.0301L48.74 54.9951ZM31.24 9.99512C36.07 9.99512 39.99 13.9151 39.99 18.7451V31.2351C39.99 33.5558 39.0681 35.7814 37.4272 37.4223C35.7862 39.0632 33.5606 39.9851 31.24 39.9851H18.75C16.4302 39.9851 14.2054 39.0639 12.5646 37.4241C10.9238 35.7842 10.0013 33.5599 10 31.2401V18.7501C10 13.9201 13.92 10.0001 18.75 10.0001L31.24 9.99512ZM31.24 17.4951H18.75C18.4185 17.4951 18.1005 17.6268 17.8661 17.8612C17.6317 18.0957 17.5 18.4136 17.5 18.7451V31.2351C17.5 31.9251 18.06 32.4851 18.75 32.4851H31.24C31.5715 32.4851 31.8895 32.3534 32.1239 32.119C32.3583 31.8846 32.49 31.5666 32.49 31.2351V18.7501C32.49 18.4186 32.3583 18.1007 32.1239 17.8662C31.8895 17.6318 31.5715 17.4951 31.24 17.4951ZM48.74 20.0001H106.265C107.215 20.0004 108.13 20.3613 108.824 21.01C109.518 21.6586 109.94 22.5466 110.005 23.4945C110.07 24.4424 109.772 25.3796 109.173 26.1166C108.573 26.8536 107.716 27.3356 106.775 27.4651L106.265 27.5001H48.74C47.7899 27.4998 46.8753 27.1389 46.181 26.4903C45.4868 25.8416 45.0646 24.9536 44.9999 24.0057C44.9351 23.0578 45.2326 22.1207 45.8322 21.3836C46.4317 20.6466 47.2887 20.1646 48.23 20.0351L48.74 20.0001Z" fill="currentColor"/>
    </symbol>
</svg>
