<svg xmlns="http://www.w3.org/2000/svg">
    <symbol id="location" viewBox="0 0 120 120">
        <path d="M29.2151 22.84C37.3798 14.6753 48.4535 10.0884 60.0001 10.0884C71.5467 10.0884 82.6204 14.6753 90.7851 22.84C98.9498 31.0047 103.537 42.0784 103.537 53.625C103.537 65.1716 98.9498 76.2453 90.7851 84.41L84.8501 90.28C80.4768 94.57 74.8001 100.09 67.8201 106.84C65.7222 108.868 62.9183 110.002 60.0001 110.002C57.0819 110.002 54.278 108.868 52.1801 106.84L34.7251 89.86C32.5284 87.7067 30.6918 85.89 29.2151 84.41C25.1722 80.3674 21.9651 75.568 19.7771 70.2859C17.5891 65.0037 16.4629 59.3424 16.4629 53.625C16.4629 47.9076 17.5891 42.2463 19.7771 36.9642C21.9651 31.682 25.1722 26.8826 29.2151 22.84ZM85.4801 28.14C82.1334 24.7936 78.1603 22.1391 73.7877 20.3282C69.4151 18.5173 64.7286 17.5853 59.9958 17.5855C55.2631 17.5858 50.5767 18.5182 46.2043 20.3296C41.8318 22.1409 37.859 24.7958 34.5126 28.1425C31.1662 31.4892 28.5117 35.4623 26.7008 39.8349C24.8899 44.2075 23.9579 48.894 23.9581 53.6268C23.9584 58.3595 24.8908 63.0459 26.7022 67.4183C28.5135 71.7908 31.1684 75.7636 34.5151 79.11L41.9551 86.45C46.0484 90.4533 51.1951 95.4533 57.3951 101.45C58.0942 102.125 59.0282 102.503 60.0001 102.503C60.972 102.503 61.906 102.125 62.6051 101.45L79.5801 84.95C81.9301 82.6467 83.8968 80.7 85.4801 79.11C92.2376 72.3522 96.0339 63.1868 96.0339 53.63C96.0339 44.0732 92.2376 34.9078 85.4801 28.15M60.0001 39.995C61.9712 39.995 63.9231 40.3832 65.7442 41.1376C67.5653 41.8919 69.22 42.9975 70.6138 44.3913C72.0076 45.7851 73.1132 47.4398 73.8675 49.2609C74.6219 51.082 75.0101 53.0339 75.0101 55.005C75.0101 56.9761 74.6219 58.928 73.8675 60.7491C73.1132 62.5702 72.0076 64.2249 70.6138 65.6187C69.22 67.0125 67.5653 68.1181 65.7442 68.8724C63.9231 69.6268 61.9712 70.015 60.0001 70.015C56.0673 69.9432 52.3198 68.3305 49.564 65.5239C46.8081 62.7172 45.264 58.941 45.264 55.0075C45.264 51.0741 46.8081 47.2978 49.564 44.4911C52.3198 41.6845 56.0673 40.0718 60.0001 40M60.0001 47.5C58.0083 47.5 56.0981 48.2912 54.6897 49.6996C53.2813 51.108 52.4901 53.0182 52.4901 55.01C52.4901 57.0018 53.2813 58.912 54.6897 60.3204C56.0981 61.7288 58.0083 62.52 60.0001 62.52C61.9577 62.4695 63.8181 61.6563 65.1848 60.2539C66.5515 58.8515 67.3163 56.9707 67.3163 55.0125C67.3163 53.0543 66.5515 51.1735 65.1848 49.7711C63.8181 48.3687 61.9577 47.5555 60.0001 47.505" fill="currentColor"/>
    </symbol>
</svg>
