<svg xmlns="http://www.w3.org/2000/svg">
    <symbol id="lock" viewBox="0 0 120 120">
        <path d="M60 77.5C61.9891 77.5 63.8968 76.7098 65.3033 75.3033C66.7098 73.8968 67.5 71.9891 67.5 70C67.5 68.0109 66.7098 66.1032 65.3033 64.6967C63.8968 63.2902 61.9891 62.5 60 62.5C58.0109 62.5 56.1032 63.2902 54.6967 64.6967C53.2902 66.1032 52.5 68.0109 52.5 70C52.5 71.9891 53.2902 73.8968 54.6967 75.3033C56.1032 76.7098 58.0109 77.5 60 77.5ZM40 30C40 24.6957 42.1071 19.6086 45.8579 15.8579C49.6086 12.1071 54.6957 10 60 10C65.3043 10 70.3914 12.1071 74.1421 15.8579C77.8929 19.6086 80 24.6957 80 30V35H83.75C88.0598 35 92.193 36.712 95.2405 39.7595C98.288 42.807 100 46.9402 100 51.25V88.75C100 93.0598 98.288 97.193 95.2405 100.24C92.193 103.288 88.0598 105 83.75 105H36.25C31.9402 105 27.807 103.288 24.7595 100.24C21.712 97.193 20 93.0598 20 88.75V51.25C20 46.9402 21.712 42.807 24.7595 39.7595C27.807 36.712 31.9402 35 36.25 35H40V30ZM60 17.5C56.6848 17.5 53.5054 18.817 51.1612 21.1612C48.817 23.5054 47.5 26.6848 47.5 30V35H72.5V30C72.5 26.6848 71.183 23.5054 68.8388 21.1612C66.4946 18.817 63.3152 17.5 60 17.5ZM36.25 42.5C33.9294 42.5 31.7038 43.4219 30.0628 45.0628C28.4219 46.7038 27.5 48.9294 27.5 51.25V88.75C27.5 93.58 31.42 97.5 36.25 97.5H83.75C86.0706 97.5 88.2962 96.5781 89.9372 94.9372C91.5781 93.2962 92.5 91.0706 92.5 88.75V51.25C92.5 48.9294 91.5781 46.7038 89.9372 45.0628C88.2962 43.4219 86.0706 42.5 83.75 42.5H36.25Z" fill="currentColor"/>
    </symbol>
</svg>
