<svg xmlns="http://www.w3.org/2000/svg">
    <symbol id="lock-shield" viewBox="0 0 120 120">
        <path d="M52.5 70C52.5 71.9891 53.2902 73.8968 54.6967 75.3033C56.1032 76.7098 58.0109 77.5 60 77.5V73.425C60 69.335 63.02 66.57 66.165 65.725C65.2546 64.411 63.9483 63.4222 62.4364 62.9029C60.9246 62.3836 59.2863 62.361 57.7607 62.8383C56.2351 63.3155 54.9018 64.2678 53.9555 65.5561C53.0091 66.8445 52.4992 68.4014 52.5 70ZM36.25 97.5H61.525C62.385 100.153 63.5983 102.653 65.165 105H36.25C31.9402 105 27.807 103.288 24.7595 100.24C21.712 97.193 20 93.0598 20 88.75V51.25C20 46.9402 21.712 42.807 24.7595 39.7595C27.807 36.712 31.9402 35 36.25 35H40V30C40 24.6957 42.1071 19.6086 45.8579 15.8579C49.6086 12.1071 54.6957 10 60 10C65.3043 10 70.3914 12.1071 74.1421 15.8579C77.8929 19.6086 80 24.6957 80 30V35H83.75C88.0598 35 92.193 36.712 95.2405 39.7595C98.288 42.807 100 46.9402 100 51.25V62.6C97.6186 61.1456 95.4196 59.4116 93.45 57.435C93.1507 57.1438 92.8334 56.8716 92.5 56.62V51.25C92.5 48.9294 91.5781 46.7038 89.9372 45.0628C88.2962 43.4219 86.0706 42.5 83.75 42.5H36.25C33.9294 42.5 31.7038 43.4219 30.0628 45.0628C28.4219 46.7038 27.5 48.9294 27.5 51.25V88.75C27.5 93.58 31.42 97.5 36.25 97.5ZM60 17.5C56.6848 17.5 53.5054 18.817 51.1612 21.1612C48.817 23.5054 47.5 26.6848 47.5 30V35H72.5V30C72.5 26.6848 71.183 23.5054 68.8388 21.1612C66.4946 18.817 63.3152 17.5 60 17.5ZM89.95 60.975C93.21 64.225 99.485 69.4 107.195 70.465C108.735 70.675 110 71.89 110 73.41V87.6C110 106.68 92.1 113.605 88.235 114.88C87.7597 115.04 87.2453 115.04 86.77 114.88C82.9 113.605 65 106.68 65 87.6V73.41C65 71.89 66.265 70.675 67.805 70.46C75.515 69.4 81.79 64.225 85.055 60.97C85.7173 60.3463 86.5927 59.999 87.5025 59.999C88.4123 59.999 89.2877 60.3513 89.95 60.975Z" fill="currentColor"/>
    </symbol>
</svg>
