<svg xmlns="http://www.w3.org/2000/svg">
    <symbol id="longText" viewBox="0 0 120 120">
        <path d="M102.64 16.36C105.72 17.87 108.14 20.72 109.78 25.28C109.959 25.7459 110.043 26.243 110.028 26.7419C110.012 27.2408 109.897 27.7316 109.69 28.1855C109.482 28.6393 109.186 29.0472 108.818 29.3851C108.451 29.723 108.02 29.9841 107.55 30.1532C107.08 30.3223 106.582 30.3959 106.083 30.3698C105.585 30.3436 105.096 30.2182 104.647 30.0009C104.198 29.7836 103.796 29.4787 103.466 29.1042C103.136 28.7297 102.884 28.2931 102.725 27.82C101.555 24.58 100.235 23.53 99.3352 23.09C98.2502 22.555 97.0002 22.5 95.0002 22.5C93.1102 22.5 91.8852 23.1 90.9902 23.9C90.0152 24.765 89.2402 26.04 88.6702 27.565C88.172 28.9579 87.83 30.4017 87.6502 31.87C87.573 32.4691 87.5229 33.0714 87.5002 33.675V33.755C87.5002 36.375 87.5402 39.74 88.6502 42.565C89.1752 43.915 89.9002 45 90.8802 45.805C91.8402 46.595 93.2452 47.28 95.4152 47.525C97.1752 47.72 101.06 47.415 102.835 43.49C103.039 43.0415 103.329 42.6375 103.688 42.3011C104.048 41.9647 104.47 41.7024 104.931 41.5292C105.393 41.356 105.883 41.2753 106.375 41.2918C106.868 41.3082 107.352 41.4214 107.8 41.625C108.249 41.8285 108.653 42.1184 108.989 42.4781C109.326 42.8378 109.588 43.2602 109.761 43.7212C109.934 44.1823 110.015 44.6729 109.998 45.1651C109.982 45.6574 109.869 46.1415 109.665 46.59C105.815 55.085 97.3702 55.29 94.5852 54.98C91.1352 54.595 88.3202 53.415 86.1152 51.595C84.1163 49.9153 82.5837 47.7491 81.6652 45.305C80.0002 41.05 80.0002 36.4 80.0002 33.9V33.66L80.0052 33.485C80.0052 33.3417 80.0135 33.1467 80.0302 32.9C80.1631 30.177 80.7076 27.4899 81.6452 24.93C82.4802 22.705 83.8152 20.23 86.0052 18.285C88.2702 16.27 91.2652 14.995 95.0052 14.995H95.1952C96.9952 14.995 99.8602 14.99 102.64 16.355M26.3852 15C27.1512 15.0114 27.8953 15.2571 28.5174 15.704C29.1396 16.151 29.6099 16.7777 29.8652 17.5L41.4002 50C41.713 50.9329 41.6466 51.9513 41.2153 52.8357C40.7841 53.7201 40.0225 54.3995 39.0949 54.7275C38.1673 55.0556 37.1479 55.0059 36.2565 54.5892C35.3652 54.1724 34.6734 53.4221 34.3302 52.5L32.6402 47.74H19.1302L17.2502 52.605C16.8908 53.5333 16.1774 54.2807 15.267 54.683C14.3565 55.0853 13.3235 55.1094 12.3952 54.75C11.4669 54.3906 10.7195 53.6772 10.3172 52.7667C9.91494 51.8562 9.89084 50.8233 10.2502 49.895L22.8352 17.395C23.1117 16.6812 23.6001 16.0691 24.2347 15.6409C24.8693 15.2128 25.6198 14.9891 26.3852 15ZM26.1802 29.535L22.0302 40.24H29.9802L26.1802 29.535ZM72.8802 26.875C72.8802 29.745 72.1452 32.045 70.9602 33.82C71.8352 34.51 72.6502 35.38 73.3202 36.48C74.4402 38.32 75.0002 40.5367 75.0002 43.13C75.0002 45.6 74.4102 47.745 73.2952 49.52C72.2884 51.1063 70.8833 52.4009 69.2202 53.275C66.3652 54.81 63.2902 55 61.8752 55H48.7502C47.7556 55 46.8018 54.6049 46.0986 53.9016C45.3953 53.1984 45.0002 52.2446 45.0002 51.25V18.75C45.0002 18.2575 45.0972 17.7699 45.2857 17.3149C45.4741 16.86 45.7503 16.4466 46.0986 16.0983C46.4468 15.7501 46.8602 15.4739 47.3151 15.2854C47.7701 15.097 48.2577 15 48.7502 15H60.9152C61.9902 15 64.8952 14.995 67.5752 16.49C69.0452 17.31 70.4302 18.565 71.4202 20.395C72.3935 22.205 72.8785 24.365 72.8752 26.875M60.8102 22.5H52.5002V31.25H60.8152C61.5652 31.25 62.8402 31.1 63.8052 30.515C64.2391 30.261 64.5966 29.8948 64.8402 29.455C65.1052 28.985 65.3752 28.195 65.3752 26.875C65.3752 25.325 65.0752 24.44 64.8202 23.96C64.6186 23.5705 64.3052 23.2501 63.9202 23.04C63.0552 22.555 61.9052 22.5 60.8152 22.5M61.8752 47.5C62.8102 47.5 64.4202 47.34 65.6652 46.67C66.1837 46.412 66.6239 46.0202 66.9402 45.535C67.2152 45.095 67.5002 44.365 67.5002 43.125C67.5002 41.645 67.1852 40.825 66.9152 40.375C66.6492 39.9325 66.2527 39.5831 65.7802 39.375C64.6102 38.8 63.1102 38.75 61.8802 38.75H52.5002V47.5H61.8752ZM10.0002 76.25C10.0002 75.2554 10.3953 74.3016 11.0986 73.5983C11.8018 72.8951 12.7556 72.5 13.7502 72.5H106.25C107.245 72.5 108.199 72.8951 108.902 73.5983C109.605 74.3016 110 75.2554 110 76.25C110 77.2446 109.605 78.1984 108.902 78.9016C108.199 79.6049 107.245 80 106.25 80H13.7502C12.7556 80 11.8018 79.6049 11.0986 78.9016C10.3953 78.1984 10.0002 77.2446 10.0002 76.25ZM13.7502 97.5C12.7556 97.5 11.8018 97.8951 11.0986 98.5983C10.3953 99.3016 10.0002 100.255 10.0002 101.25C10.0002 102.245 10.3953 103.198 11.0986 103.902C11.8018 104.605 12.7556 105 13.7502 105H106.25C107.245 105 108.199 104.605 108.902 103.902C109.605 103.198 110 102.245 110 101.25C110 100.255 109.605 99.3016 108.902 98.5983C108.199 97.8951 107.245 97.5 106.25 97.5H13.7502Z" fill="currentColor"/>
    </symbol>
</svg>
