<svg xmlns="http://www.w3.org/2000/svg">
    <symbol id="magnify" viewBox="0 0 120 120">
        <path d="M22.5 50C22.5 42.7065 25.3973 35.7118 30.5545 30.5546C35.7118 25.3973 42.7065 22.5 50 22.5C57.2934 22.5 64.2882 25.3973 69.4454 30.5546C74.6027 35.7118 77.5 42.7065 77.5 50C77.5 57.2935 74.6027 64.2882 69.4454 69.4454C64.2882 74.6027 57.2934 77.5 50 77.5C42.7065 77.5 35.7118 74.6027 30.5545 69.4454C25.3973 64.2882 22.5 57.2935 22.5 50ZM50 15C44.4033 15.0005 38.8884 16.3431 33.9178 18.9151C28.9472 21.4872 24.6659 25.2138 21.433 29.7823C18.2001 34.3507 16.1099 39.6279 15.3377 45.171C14.5655 50.7141 15.1339 56.3616 16.9951 61.6397C18.8563 66.9178 21.9562 71.6726 26.0346 75.5052C30.113 79.3379 35.051 82.1366 40.4344 83.6667C45.8179 85.1967 51.4897 85.4134 56.9743 84.2987C62.4588 83.184 67.596 80.7702 71.955 77.26L98.6 103.9C98.9433 104.268 99.3573 104.564 99.8173 104.769C100.277 104.974 100.774 105.084 101.277 105.093C101.781 105.102 102.281 105.009 102.748 104.821C103.215 104.632 103.639 104.351 103.995 103.995C104.351 103.639 104.632 103.215 104.821 102.748C105.009 102.281 105.102 101.781 105.093 101.277C105.084 100.774 104.974 100.277 104.769 99.8173C104.564 99.3573 104.268 98.9433 103.9 98.6L77.26 71.955C81.4019 66.8127 84.0047 60.6037 84.7678 54.045C85.5309 47.4864 84.4232 40.8456 81.5726 34.8897C78.722 28.9339 74.2447 23.9058 68.658 20.3864C63.0713 16.8669 56.6029 14.9996 50 15Z" fill="currentColor"/>
    </symbol>
</svg>
