<svg xmlns="http://www.w3.org/2000/svg">
    <symbol id="magnify-bold" viewBox="0 0 120 120">
        <path d="M49.9999 10C43.6338 9.99932 37.3594 11.5181 31.6984 14.4302C26.0373 17.3423 21.1531 21.5635 17.4517 26.7429C13.7502 31.9224 11.3385 37.9105 10.4169 44.2096C9.49538 50.5087 10.0906 56.9367 12.1531 62.9595C14.2157 68.9822 17.686 74.4257 22.2755 78.8374C26.8651 83.2492 32.4414 86.5017 38.5409 88.3248C44.6404 90.1478 51.0869 90.4887 57.3447 89.3191C63.6024 88.1495 69.4906 85.5031 74.5199 81.6L101.46 108.53C101.921 109.008 102.473 109.388 103.083 109.651C103.693 109.913 104.349 110.05 105.013 110.056C105.677 110.062 106.335 109.936 106.95 109.684C107.564 109.433 108.122 109.061 108.592 108.592C109.061 108.123 109.433 107.564 109.684 106.95C109.935 106.335 110.062 105.677 110.056 105.013C110.05 104.349 109.912 103.693 109.65 103.083C109.388 102.473 109.007 101.921 108.53 101.46L81.5999 74.53C86.1904 68.6173 89.0296 61.5351 89.7948 54.0888C90.56 46.6425 89.2204 39.131 85.9283 32.4082C82.6362 25.6855 77.5238 20.0215 71.1723 16.0601C64.8209 12.0988 57.4854 9.99917 49.9999 10ZM19.9999 50C19.9999 42.0435 23.1606 34.4129 28.7867 28.7868C34.4128 23.1607 42.0434 20 49.9999 20C57.9564 20 65.587 23.1607 71.2131 28.7868C76.8392 34.4129 79.9999 42.0435 79.9999 50C79.9999 57.9565 76.8392 65.5871 71.2131 71.2132C65.587 76.8393 57.9564 80 49.9999 80C42.0434 80 34.4128 76.8393 28.7867 71.2132C23.1606 65.5871 19.9999 57.9565 19.9999 50Z" fill="currentColor"/>
    </symbol>
</svg>
