<svg xmlns="http://www.w3.org/2000/svg">
    <symbol id="megaphone" viewBox="0 0 120 120">
        <path d="M109.535 28.11C109.845 29.1567 110 30.225 110 31.315V88.7C109.999 90.451 109.59 92.1778 108.805 93.7427C108.019 95.3077 106.879 96.6677 105.476 97.7145C104.072 98.7613 102.443 99.466 100.719 99.7725C98.9952 100.079 97.2235 99.9789 95.545 99.48L67.975 91.28C66.0235 95.2601 62.8056 98.4794 58.8265 100.433C54.8474 102.386 50.3323 102.963 45.9899 102.073C41.6475 101.183 37.7236 98.8758 34.8341 95.5143C31.9446 92.1527 30.253 87.9269 30.025 83.5L30 82.5L29.995 80L18.045 76.445C15.7201 75.754 13.6807 74.3302 12.231 72.3858C10.7812 70.4413 9.99867 68.0804 10 65.655V54.35C10.0011 51.9257 10.7854 49.5665 12.236 47.624C13.6865 45.6815 15.7258 44.2596 18.05 43.57L95.55 20.54C98.409 19.691 101.488 20.012 104.111 21.4324C106.733 22.8529 108.684 25.2515 109.535 28.11ZM37.495 82.225L37.5 82.495C37.4974 85.2135 38.381 87.8588 40.0171 90.0299C41.6531 92.201 43.9524 93.7796 46.5663 94.5263C49.1803 95.2731 51.9664 95.1473 54.5024 94.1681C57.0385 93.1889 59.1862 91.4097 60.62 89.1L37.495 82.225ZM97.68 27.725L20.18 50.75C19.4048 50.9808 18.725 51.456 18.242 52.1048C17.759 52.7536 17.4987 53.5412 17.5 54.35V65.655C17.4987 66.4638 17.759 67.2514 18.242 67.9002C18.725 68.549 19.4048 69.0242 20.18 69.255L97.68 92.29C98.2401 92.4568 98.8315 92.4903 99.4069 92.3879C99.9823 92.2856 100.526 92.0501 100.994 91.7004C101.462 91.3507 101.842 90.8963 102.104 90.3737C102.365 89.851 102.501 89.2744 102.5 88.69V31.32C102.5 30.736 102.364 30.16 102.102 29.638C101.84 29.116 101.46 28.6623 100.992 28.3131C100.524 27.964 99.9807 27.729 99.4057 27.6269C98.8306 27.5248 98.2397 27.5584 97.68 27.725Z" fill="currentColor"/>
    </symbol>
</svg>
