<svg xmlns="http://www.w3.org/2000/svg">
    <symbol id="menu" viewBox="0 0 120 120">
        <path d="M10 28.75C10 27.7554 10.3951 26.8016 11.0983 26.0983C11.8016 25.3951 12.7554 25 13.75 25H106.25C107.245 25 108.198 25.3951 108.902 26.0983C109.605 26.8016 110 27.7554 110 28.75C110 29.7446 109.605 30.6984 108.902 31.4017C108.198 32.1049 107.245 32.5 106.25 32.5H13.75C12.7554 32.5 11.8016 32.1049 11.0983 31.4017C10.3951 30.6984 10 29.7446 10 28.75ZM10 93.75C10 92.7554 10.3951 91.8016 11.0983 91.0983C11.8016 90.3951 12.7554 90 13.75 90H106.25C107.245 90 108.198 90.3951 108.902 91.0983C109.605 91.8016 110 92.7554 110 93.75C110 94.7446 109.605 95.6984 108.902 96.4017C108.198 97.1049 107.245 97.5 106.25 97.5H13.75C12.7554 97.5 11.8016 97.1049 11.0983 96.4017C10.3951 95.6984 10 94.7446 10 93.75ZM13.75 57.5C12.7554 57.5 11.8016 57.8951 11.0983 58.5984C10.3951 59.3016 10 60.2554 10 61.25C10 62.2446 10.3951 63.1984 11.0983 63.9016C11.8016 64.6049 12.7554 65 13.75 65H106.25C107.245 65 108.198 64.6049 108.902 63.9016C109.605 63.1984 110 62.2446 110 61.25C110 60.2554 109.605 59.3016 108.902 58.5984C108.198 57.8951 107.245 57.5 106.25 57.5H13.75Z" fill="currentColor"/>
    </symbol>
</svg>

