<svg xmlns="http://www.w3.org/2000/svg">
    <symbol id="menu-filled" viewBox="0 0 120 120">
        <path d="M10 30C10 28.6739 10.5268 27.4021 11.4645 26.4645C12.4021 25.5268 13.6739 25 15 25H105C106.326 25 107.598 25.5268 108.536 26.4645C109.473 27.4021 110 28.6739 110 30C110 31.3261 109.473 32.5979 108.536 33.5355C107.598 34.4732 106.326 35 105 35H15C13.6739 35 12.4021 34.4732 11.4645 33.5355C10.5268 32.5979 10 31.3261 10 30ZM10 90C10 88.6739 10.5268 87.4021 11.4645 86.4645C12.4021 85.5268 13.6739 85 15 85H105C106.326 85 107.598 85.5268 108.536 86.4645C109.473 87.4021 110 88.6739 110 90C110 91.3261 109.473 92.5979 108.536 93.5355C107.598 94.4732 106.326 95 105 95H15C13.6739 95 12.4021 94.4732 11.4645 93.5355C10.5268 92.5979 10 91.3261 10 90ZM15 55C13.6739 55 12.4021 55.5268 11.4645 56.4645C10.5268 57.4021 10 58.6739 10 60C10 61.3261 10.5268 62.5979 11.4645 63.5355C12.4021 64.4732 13.6739 65 15 65H105C106.326 65 107.598 64.4732 108.536 63.5355C109.473 62.5979 110 61.3261 110 60C110 58.6739 109.473 57.4021 108.536 56.4645C107.598 55.5268 106.326 55 105 55H15Z" fill="currentColor"/>
    </symbol>
</svg>
