<svg xmlns="http://www.w3.org/2000/svg">
    <symbol id="money" viewBox="0 0 120 120">
        <path d="M52.5 40C50.5302 40 48.5796 40.388 46.7597 41.1418C44.9399 41.8956 43.2863 43.0005 41.8934 44.3934C40.5005 45.7863 39.3956 47.4399 38.6418 49.2597C37.888 51.0796 37.5 53.0302 37.5 55C37.5 56.9698 37.888 58.9204 38.6418 60.7403C39.3956 62.5601 40.5005 64.2137 41.8934 65.6066C43.2863 66.9995 44.9399 68.1044 46.7597 68.8582C48.5796 69.612 50.5302 70 52.5 70C56.4782 70 60.2936 68.4196 63.1066 65.6066C65.9196 62.7936 67.5 58.9782 67.5 55C67.5 51.0218 65.9196 47.2064 63.1066 44.3934C60.2936 41.5804 56.4782 40 52.5 40ZM45 55C45 53.0109 45.7902 51.1032 47.1967 49.6967C48.6032 48.2902 50.5109 47.5 52.5 47.5C54.4891 47.5 56.3968 48.2902 57.8033 49.6967C59.2098 51.1032 60 53.0109 60 55C60 56.9891 59.2098 58.8968 57.8033 60.3033C56.3968 61.7098 54.4891 62.5 52.5 62.5C50.5109 62.5 48.6032 61.7098 47.1967 60.3033C45.7902 58.8968 45 56.9891 45 55ZM10 36.25C10 33.2663 11.1853 30.4048 13.295 28.295C15.4048 26.1853 18.2663 25 21.25 25H83.75C85.2274 25 86.6903 25.291 88.0552 25.8564C89.4201 26.4217 90.6603 27.2504 91.705 28.295C92.7496 29.3397 93.5783 30.5799 94.1436 31.9448C94.709 33.3097 95 34.7726 95 36.25V73.75C95 75.2274 94.709 76.6903 94.1436 78.0552C93.5783 79.4201 92.7496 80.6603 91.705 81.705C90.6603 82.7496 89.4201 83.5783 88.0552 84.1436C86.6903 84.709 85.2274 85 83.75 85H21.25C18.2663 85 15.4048 83.8147 13.295 81.705C11.1853 79.5952 10 76.7337 10 73.75V36.25ZM21.25 32.5C20.2554 32.5 19.3016 32.8951 18.5983 33.5983C17.8951 34.3016 17.5 35.2554 17.5 36.25V40H21.25C22.2446 40 23.1984 39.6049 23.9017 38.9017C24.6049 38.1984 25 37.2446 25 36.25V32.5H21.25ZM17.5 62.5H21.25C24.2337 62.5 27.0952 63.6853 29.205 65.795C31.3147 67.9048 32.5 70.7663 32.5 73.75V77.5H72.5V73.75C72.5 70.7663 73.6853 67.9048 75.795 65.795C77.9048 63.6853 80.7663 62.5 83.75 62.5H87.5V47.5H83.75C80.7663 47.5 77.9048 46.3147 75.795 44.205C73.6853 42.0952 72.5 39.2337 72.5 36.25V32.5H32.5V36.25C32.5 37.7274 32.209 39.1903 31.6436 40.5552C31.0783 41.9201 30.2496 43.1603 29.205 44.205C28.1603 45.2496 26.9201 46.0783 25.5552 46.6436C24.1903 47.209 22.7274 47.5 21.25 47.5H17.5V62.5ZM87.5 40V36.25C87.5 35.2554 87.1049 34.3016 86.4017 33.5983C85.6984 32.8951 84.7446 32.5 83.75 32.5H80V36.25C80 38.32 81.68 40 83.75 40H87.5ZM87.5 70H83.75C82.7554 70 81.8016 70.3951 81.0983 71.0984C80.3951 71.8016 80 72.7554 80 73.75V77.5H83.75C84.7446 77.5 85.6984 77.1049 86.4017 76.4016C87.1049 75.6984 87.5 74.7446 87.5 73.75V70ZM17.5 73.75C17.5 75.82 19.18 77.5 21.25 77.5H25V73.75C25 72.7554 24.6049 71.8016 23.9017 71.0984C23.1984 70.3951 22.2446 70 21.25 70H17.5V73.75ZM22.005 92.5C23.3219 94.781 25.2162 96.675 27.4974 97.9915C29.7786 99.3081 32.3662 100.001 35 100H86.25C89.3689 100 92.4573 99.3857 95.3387 98.1921C98.2202 96.9986 100.838 95.2492 103.044 93.0438C105.249 90.8384 106.999 88.2202 108.192 85.3387C109.386 82.4573 110 79.3689 110 76.25V50C110.001 47.3662 109.308 44.7786 107.992 42.4974C106.675 40.2162 104.781 38.3219 102.5 37.005V76.25C102.5 80.5598 100.788 84.693 97.7405 87.7405C94.693 90.788 90.5598 92.5 86.25 92.5H22.005Z" fill="currentColor"/>
    </symbol>
</svg>
