<svg xmlns="http://www.w3.org/2000/svg">
    <symbol id="more-horizontal" viewBox="0 0 120 120">
        <path d="M38.75 60C38.75 61.1491 38.5237 62.2869 38.0839 63.3485C37.6442 64.4101 36.9997 65.3747 36.1872 66.1872C35.3747 66.9997 34.4101 67.6442 33.3485 68.0839C32.2869 68.5237 31.1491 68.75 30 68.75C28.8509 68.75 27.7131 68.5237 26.6515 68.0839C25.5899 67.6442 24.6253 66.9997 23.8128 66.1872C23.0003 65.3747 22.3558 64.4101 21.9161 63.3485C21.4763 62.2869 21.25 61.1491 21.25 60C21.25 57.6794 22.1719 55.4538 23.8128 53.8128C25.4538 52.1719 27.6794 51.25 30 51.25C32.3206 51.25 34.5462 52.1719 36.1872 53.8128C37.8281 55.4538 38.75 57.6794 38.75 60ZM68.75 60C68.75 62.3206 67.8281 64.5462 66.1872 66.1872C64.5462 67.8281 62.3206 68.75 60 68.75C57.6794 68.75 55.4538 67.8281 53.8128 66.1872C52.1719 64.5462 51.25 62.3206 51.25 60C51.25 57.6794 52.1719 55.4538 53.8128 53.8128C55.4538 52.1719 57.6794 51.25 60 51.25C62.3206 51.25 64.5462 52.1719 66.1872 53.8128C67.8281 55.4538 68.75 57.6794 68.75 60ZM90 68.75C92.3206 68.75 94.5462 67.8281 96.1872 66.1872C97.8281 64.5462 98.75 62.3206 98.75 60C98.75 57.6794 97.8281 55.4538 96.1872 53.8128C94.5462 52.1719 92.3206 51.25 90 51.25C87.6794 51.25 85.4538 52.1719 83.8128 53.8128C82.1719 55.4538 81.25 57.6794 81.25 60C81.25 62.3206 82.1719 64.5462 83.8128 66.1872C85.4538 67.8281 87.6794 68.75 90 68.75Z" fill="currentColor"/>
    </symbol>
</svg>
