<svg xmlns="http://www.w3.org/2000/svg">
    <symbol id="mypage-filled" viewBox="0 0 120 120">
        <path d="M88.775 70C91.757 70.0027 94.6159 71.1891 96.7235 73.2986C98.8311 75.4081 100.015 78.2681 100.015 81.25V85.84C100.015 88.705 99.1199 91.4984 97.455 93.83C89.725 104.65 77.105 110.005 60.005 110.005C42.895 110.005 30.28 104.645 22.57 93.825C20.9106 91.495 20.0193 88.7055 20.02 85.845V81.245C20.0213 78.2631 21.2065 75.4036 23.3151 73.2951C25.4236 71.1865 28.2831 70.0013 31.265 70H88.775ZM60 10.025C63.2831 10.025 66.534 10.6717 69.5671 11.928C72.6002 13.1844 75.3562 15.0259 77.6777 17.3474C79.9992 19.6688 81.8406 22.4248 83.097 25.4579C84.3534 28.4911 85 31.742 85 35.025C85 38.3081 84.3534 41.559 83.097 44.5921C81.8406 47.6252 79.9992 50.3812 77.6777 52.7027C75.3562 55.0242 72.6002 56.8656 69.5671 58.122C66.534 59.3784 63.2831 60.025 60 60.025C53.3696 60.025 47.0108 57.3911 42.3223 52.7027C37.6339 48.0143 35 41.6554 35 35.025C35 28.3946 37.6339 22.0358 42.3223 17.3474C47.0108 12.6589 53.3696 10.025 60 10.025Z" fill="currentColor"/>
    </symbol>
</svg>
