<svg xmlns="http://www.w3.org/2000/svg">
    <symbol id="number" viewBox="0 0 120 120">
        <path d="M43.75 20C47.3967 20 50.8941 21.4487 53.4727 24.0273C56.0513 26.6059 57.5 30.1033 57.5 33.75V86.25C57.5 88.0557 57.1443 89.8437 56.4533 91.5119C55.7623 93.1801 54.7495 94.6959 53.4727 95.9727C52.1959 97.2495 50.6801 98.2623 49.0119 98.9533C47.3437 99.6443 45.5557 100 43.75 100H23.75C21.9443 100 20.1563 99.6443 18.4881 98.9533C16.8199 98.2623 15.3041 97.2495 14.0273 95.9727C12.7505 94.6959 11.7377 93.1801 11.0467 91.5119C10.3557 89.8437 10 88.0557 10 86.25V33.75C10 30.1033 11.4487 26.6059 14.0273 24.0273C16.6059 21.4487 20.1033 20 23.75 20H43.75ZM43.75 27.5H23.75C20.3 27.5 17.5 30.3 17.5 33.75V86.25C17.5 89.7 20.3 92.5 23.75 92.5H43.75C47.2 92.5 50 89.7 50 86.25V33.75C50 30.3 47.2 27.5 43.75 27.5ZM96.25 20C99.8967 20 103.394 21.4487 105.973 24.0273C108.551 26.6059 110 30.1033 110 33.75V86.25C110 88.0557 109.644 89.8437 108.953 91.5119C108.262 93.1801 107.25 94.6959 105.973 95.9727C104.696 97.2495 103.18 98.2623 101.512 98.9533C99.8437 99.6443 98.0557 100 96.25 100H76.25C74.4443 100 72.6563 99.6443 70.9881 98.9533C69.3199 98.2623 67.8041 97.2495 66.5273 95.9727C65.2505 94.6959 64.2377 93.1801 63.5467 91.5119C62.8557 89.8437 62.5 88.0557 62.5 86.25V33.75C62.5 30.1033 63.9487 26.6059 66.5273 24.0273C69.1059 21.4487 72.6033 20 76.25 20H96.25ZM96.25 27.5H76.25C72.8 27.5 70 30.3 70 33.75V86.25C70 89.7 72.8 92.5 76.25 92.5H96.25C99.7 92.5 102.5 89.7 102.5 86.25V33.75C102.5 30.3 99.7 27.5 96.25 27.5ZM30 45V75C30 75.9946 30.3951 76.9484 31.0983 77.6516C31.8016 78.3549 32.7554 78.75 33.75 78.75C34.7446 78.75 35.6984 78.3549 36.4017 77.6516C37.1049 76.9484 37.5 75.9946 37.5 75V45C37.5 44.0054 37.1049 43.0516 36.4017 42.3484C35.6984 41.6451 34.7446 41.25 33.75 41.25C32.7554 41.25 31.8016 41.6451 31.0983 42.3484C30.3951 43.0516 30 44.0054 30 45ZM87.5 48.75V56.25H81.25C80.2554 56.25 79.3016 56.6451 78.5984 57.3484C77.8951 58.0516 77.5 59.0054 77.5 60V75C77.5 77.07 79.18 78.75 81.25 78.75H91.25C92.2446 78.75 93.1984 78.3549 93.9017 77.6516C94.6049 76.9484 95 75.9946 95 75C95 74.0054 94.6049 73.0516 93.9017 72.3484C93.1984 71.6451 92.2446 71.25 91.25 71.25H85V63.75H91.25C92.2446 63.75 93.1984 63.3549 93.9017 62.6516C94.6049 61.9484 95 60.9946 95 60V45C95 44.0054 94.6049 43.0516 93.9017 42.3484C93.1984 41.6451 92.2446 41.25 91.25 41.25H81.25C80.2554 41.25 79.3016 41.6451 78.5984 42.3484C77.8951 43.0516 77.5 44.0054 77.5 45C77.5 45.9946 77.8951 46.9484 78.5984 47.6516C79.3016 48.3549 80.2554 48.75 81.25 48.75H87.5Z" fill="currentColor"/>
    </symbol>
</svg>
