<svg xmlns="http://www.w3.org/2000/svg">
    <symbol id="paper-edit" viewBox="0 0 120 120">
        <path d="M31.25 17.5C30.2554 17.5 29.3016 17.8951 28.5983 18.5983C27.8951 19.3016 27.5 20.2554 27.5 21.25V98.75C27.5 100.82 29.18 102.5 31.25 102.5H50.15C49.6349 105.081 50.1173 107.761 51.5 110H31.25C28.2663 110 25.4048 108.815 23.295 106.705C21.1853 104.595 20 101.734 20 98.75V21.25C20 18.2663 21.1853 15.4048 23.295 13.295C25.4048 11.1853 28.2663 10 31.25 10H61.68C64 10 66.225 10.92 67.865 12.565L97.435 42.135C99.08 43.775 100 46 100 48.32V50H99.35C98.7971 49.9694 98.2429 49.9694 97.69 50H70C67.3478 50 64.8043 48.9464 62.9289 47.0711C61.0536 45.1957 60 42.6522 60 40V17.5H31.25ZM67.5 22.8V40C67.5 40.663 67.7634 41.2989 68.2322 41.7678C68.7011 42.2366 69.337 42.5 70 42.5H87.2L67.5 22.8ZM98.565 55H98.575C100.835 55.0019 103.043 55.6734 104.921 56.9298C106.799 58.1862 108.263 59.971 109.127 62.0588C109.991 64.1466 110.217 66.4437 109.776 68.6599C109.335 70.876 108.247 72.9118 106.65 74.51L77.14 104.02C75.4181 105.739 73.2639 106.96 70.905 107.555L61.75 109.84C60.8396 110.067 59.8859 110.055 58.9816 109.805C58.0774 109.554 57.2534 109.074 56.5899 108.41C55.9264 107.747 55.446 106.923 55.1954 106.018C54.9448 105.114 54.9326 104.16 55.16 103.25L57.445 94.1C58.035 91.735 59.255 89.58 60.98 87.86L90.49 58.35C91.5493 57.2878 92.8079 56.445 94.1936 55.8702C95.5793 55.2953 97.0648 54.9996 98.565 55Z" fill="currentColor"/>
    </symbol>
</svg>
