<svg xmlns="http://www.w3.org/2000/svg">
    <symbol id="paper-filled" viewBox="0 0 120 120">
        <path d="M60 10V40C60 42.6522 61.0536 45.1957 62.9289 47.0711C64.8043 48.9464 67.3478 50 70 50H100V100C100 102.652 98.9464 105.196 97.0711 107.071C95.1957 108.946 92.6522 110 90 110H30C27.3478 110 24.8043 108.946 22.9289 107.071C21.0536 105.196 20 102.652 20 100V20C20 17.3478 21.0536 14.8043 22.9289 12.9289C24.8043 11.0536 27.3478 10 30 10H60ZM67.5 12.5V40C67.5 40.663 67.7634 41.2989 68.2322 41.7678C68.7011 42.2366 69.337 42.5 70 42.5H97.5L67.5 12.5Z" fill="currentColor"/>
    </symbol>
</svg>