<svg xmlns="http://www.w3.org/2000/svg">
    <symbol id="paper" viewBox="0 0 120 120">
        <path d="M30 10C27.3478 10 24.8043 11.0536 22.9289 12.9289C21.0536 14.8043 20 17.3478 20 20V100C20 102.652 21.0536 105.196 22.9289 107.071C24.8043 108.946 27.3478 110 30 110H90C92.6522 110 95.1957 108.946 97.0711 107.071C98.9464 105.196 100 102.652 100 100V49.14C99.9994 46.4881 98.9455 43.9449 97.07 42.07L67.93 12.93C66.0551 11.0545 63.5119 10.0006 60.86 10H30ZM27.5 20C27.5 19.337 27.7634 18.7011 28.2322 18.2322C28.7011 17.7634 29.337 17.5 30 17.5H60V40C60 42.6522 61.0536 45.1957 62.9289 47.0711C64.8043 48.9464 67.3478 50 70 50H92.5V100C92.5 100.663 92.2366 101.299 91.7678 101.768C91.2989 102.237 90.663 102.5 90 102.5H30C29.337 102.5 28.7011 102.237 28.2322 101.768C27.7634 101.299 27.5 100.663 27.5 100V20ZM86.9 42.5H70C69.337 42.5 68.7011 42.2366 68.2322 41.7678C67.7634 41.2989 67.5 40.663 67.5 40V23.1L86.9 42.5Z" fill="currentColor"/>
    </symbol>
</svg>
