<svg xmlns="http://www.w3.org/2000/svg">
    <symbol id="paper-add" viewBox="0 0 120 120">
        <path d="M92.5 100C92.5 100.663 92.2366 101.299 91.7678 101.768C91.2989 102.237 90.663 102.5 90 102.5H61.34C59.9095 105.244 58.0945 107.769 55.95 110H90C92.6522 110 95.1957 108.946 97.0711 107.071C98.9464 105.196 100 102.652 100 100V49.14C99.9994 46.4881 98.9455 43.9449 97.07 42.07L67.925 12.93L67.68 12.73L67.5 12.58C67.1567 12.2545 66.7908 11.9537 66.405 11.68C66.2751 11.6006 66.1416 11.5272 66.005 11.46L65.765 11.34L65.515 11.195C65.245 11.04 64.97 10.88 64.685 10.76C63.6887 10.3643 62.6353 10.1313 61.565 10.07C61.465 10.0633 61.3667 10.0517 61.27 10.035L60.86 10H30C27.3478 10 24.8043 11.0536 22.9289 12.9289C21.0536 14.8043 20 17.3478 20 20V57.49C22.4063 56.4885 24.9244 55.78 27.5 55.38V20C27.5 19.337 27.7634 18.7011 28.2322 18.2322C28.7011 17.7634 29.337 17.5 30 17.5H60V40C60 42.6522 61.0536 45.1957 62.9289 47.0711C64.8043 48.9464 67.3478 50 70 50H92.5V100ZM67.5 23.105L86.89 42.5H70C69.337 42.5 68.7011 42.2366 68.2322 41.7678C67.7634 41.2989 67.5 40.663 67.5 40V23.105ZM60 87.5C60 83.8886 59.2887 80.3127 57.9067 76.9762C56.5247 73.6398 54.499 70.6082 51.9454 68.0546C49.3918 65.501 46.3602 63.4753 43.0238 62.0933C39.6873 60.7113 36.1114 60 32.5 60C28.8886 60 25.3127 60.7113 21.9762 62.0933C18.6398 63.4753 15.6082 65.501 13.0546 68.0546C10.501 70.6082 8.47532 73.6398 7.09331 76.9762C5.71131 80.3127 5 83.8886 5 87.5C5 94.7935 7.89731 101.788 13.0546 106.945C18.2118 112.103 25.2065 115 32.5 115C39.7935 115 46.7882 112.103 51.9454 106.945C57.1027 101.788 60 94.7935 60 87.5ZM35 90L35.005 102.515C35.005 103.178 34.7416 103.814 34.2728 104.283C33.8039 104.752 33.168 105.015 32.505 105.015C31.842 105.015 31.2061 104.752 30.7372 104.283C30.2684 103.814 30.005 103.178 30.005 102.515V90H17.48C16.817 90 16.1811 89.7366 15.7122 89.2678C15.2434 88.7989 14.98 88.163 14.98 87.5C14.98 86.837 15.2434 86.2011 15.7122 85.7322C16.1811 85.2634 16.817 85 17.48 85H30V72.5C30 71.837 30.2634 71.2011 30.7322 70.7322C31.2011 70.2634 31.837 70 32.5 70C33.163 70 33.7989 70.2634 34.2678 70.7322C34.7366 71.2011 35 71.837 35 72.5V85H47.485C48.148 85 48.7839 85.2634 49.2528 85.7322C49.7216 86.2011 49.985 86.837 49.985 87.5C49.985 88.163 49.7216 88.7989 49.2528 89.2678C48.7839 89.7366 48.148 90 47.485 90H35Z" fill="currentColor"/>
    </symbol>
</svg>