<svg xmlns="http://www.w3.org/2000/svg">
    <symbol id="paper-find" viewBox="0 0 120 120">
        <path d="M20 20C20 17.3478 21.0536 14.8043 22.929 12.9289C24.8043 11.0536 27.3479 10 30 10H60.86C63.512 10.0006 66.0551 11.0545 67.93 12.93L97.07 42.07C98.9455 43.9449 99.9995 46.4881 100 49.14V100C100 102.652 98.9465 105.196 97.0711 107.071C95.1958 108.946 92.6522 110 90 110H69.91C69.6427 108.13 68.774 106.398 67.435 105.065L64.875 102.5H90C90.6631 102.5 91.299 102.237 91.7678 101.768C92.2367 101.299 92.5 100.663 92.5 100V50H70C67.3479 50 64.8043 48.9464 62.929 47.0711C61.0536 45.1957 60 42.6522 60 40V17.5H30C29.337 17.5 28.7011 17.7634 28.2323 18.2322C27.7634 18.7011 27.5 19.337 27.5 20V55.45C24.8901 55.9336 22.3639 56.7925 20 58V20ZM70 42.5H86.9L67.5 23.1V40C67.5 40.663 67.7634 41.2989 68.2323 41.7678C68.7011 42.2366 69.337 42.5 70 42.5ZM32.5 105C37.1715 105 41.7273 103.546 45.535 100.84L58.6 113.9C58.9434 114.268 59.3574 114.564 59.8174 114.769C60.2774 114.974 60.7739 115.084 61.2774 115.093C61.7809 115.102 62.2811 115.009 62.748 114.821C63.215 114.632 63.6391 114.351 63.9952 113.995C64.3513 113.639 64.6321 113.215 64.8207 112.748C65.0093 112.281 65.1019 111.781 65.093 111.277C65.0841 110.774 64.9739 110.277 64.769 109.817C64.564 109.357 64.2685 108.943 63.9 108.6L50.84 95.535C53.7621 91.4238 55.2181 86.45 54.9742 81.412C54.7303 76.374 52.8007 71.5641 49.4951 67.7544C46.1896 63.9447 41.6998 61.3561 36.7466 60.4043C31.7933 59.4524 26.6639 60.1925 22.1817 62.5057C17.6996 64.8189 14.1246 68.571 12.0308 73.1597C9.93696 77.7485 9.44569 82.9076 10.6358 87.8091C11.826 92.7105 14.6285 97.0699 18.5936 100.187C22.5586 103.305 27.4562 105 32.5 105ZM32.5 97.5C28.5218 97.5 24.7065 95.9196 21.8934 93.1066C19.0804 90.2936 17.5 86.4782 17.5 82.5C17.5 78.5218 19.0804 74.7064 21.8934 71.8934C24.7065 69.0804 28.5218 67.5 32.5 67.5C36.4783 67.5 40.2936 69.0804 43.1066 71.8934C45.9197 74.7064 47.5 78.5218 47.5 82.5C47.5 86.4782 45.9197 90.2936 43.1066 93.1066C40.2936 95.9196 36.4783 97.5 32.5 97.5Z" fill="currentColor"/>
    </symbol>
</svg>