<svg xmlns="http://www.w3.org/2000/svg">
    <symbol id="payment" viewBox="0 0 120 120">
        <path d="M78.75 72.5C77.7554 72.5 76.8016 72.8951 76.0984 73.5984C75.3951 74.3016 75 75.2554 75 76.25C75 77.2446 75.3951 78.1984 76.0984 78.9016C76.8016 79.6049 77.7554 80 78.75 80H91.25C92.2446 80 93.1984 79.6049 93.9017 78.9016C94.6049 78.1984 95 77.2446 95 76.25C95 75.2554 94.6049 74.3016 93.9017 73.5984C93.1984 72.8951 92.2446 72.5 91.25 72.5H78.75ZM10 41.25C10 36.9402 11.712 32.807 14.7595 29.7595C17.807 26.712 21.9402 25 26.25 25H93.75C95.884 25 97.9971 25.4203 99.9686 26.237C101.94 27.0536 103.732 28.2506 105.24 29.7595C106.749 31.2685 107.946 33.0599 108.763 35.0314C109.58 37.0029 110 39.116 110 41.25V78.75C110 80.884 109.58 82.9971 108.763 84.9686C107.946 86.9401 106.749 88.7315 105.24 90.2405C103.732 91.7494 101.94 92.9464 99.9686 93.763C97.9971 94.5797 95.884 95 93.75 95H26.25C21.9402 95 17.807 93.288 14.7595 90.2405C11.712 87.193 10 83.0598 10 78.75V41.25ZM102.5 47.5V41.25C102.5 38.9294 101.578 36.7038 99.9372 35.0628C98.2962 33.4219 96.0706 32.5 93.75 32.5H26.25C23.9294 32.5 21.7038 33.4219 20.0628 35.0628C18.4219 36.7038 17.5 38.9294 17.5 41.25V47.5H102.5ZM17.5 55V78.75C17.5 83.58 21.42 87.5 26.25 87.5H93.75C96.0706 87.5 98.2962 86.5781 99.9372 84.9372C101.578 83.2962 102.5 81.0706 102.5 78.75V55H17.5Z" fill="currentColor"/>
    </symbol>
</svg>
