<svg xmlns="http://www.w3.org/2000/svg">
    <symbol id="period" viewBox="0 0 120 120">
        <path d="M88.75 15C93.0598 15 97.193 16.712 100.24 19.7595C103.288 22.807 105 26.9402 105 31.25V88.75C105 93.0598 103.288 97.193 100.24 100.24C97.193 103.288 93.0598 105 88.75 105H31.25C26.9402 105 22.807 103.288 19.7595 100.24C16.712 97.193 15 93.0598 15 88.75V31.25C15 26.9402 16.712 22.807 19.7595 19.7595C22.807 16.712 26.9402 15 31.25 15H88.75ZM97.5 42.5H22.5V88.75C22.5 93.58 26.42 97.5 31.25 97.5H88.75C91.0706 97.5 93.2962 96.5781 94.9372 94.9372C96.5781 93.2962 97.5 91.0706 97.5 88.75V42.5ZM38.75 72.5C40.4076 72.5 41.9973 73.1585 43.1694 74.3306C44.3415 75.5027 45 77.0924 45 78.75C45 80.4076 44.3415 81.9973 43.1694 83.1694C41.9973 84.3415 40.4076 85 38.75 85C37.0924 85 35.5027 84.3415 34.3306 83.1694C33.1585 81.9973 32.5 80.4076 32.5 78.75C32.5 77.0924 33.1585 75.5027 34.3306 74.3306C35.5027 73.1585 37.0924 72.5 38.75 72.5ZM60 72.5C61.6576 72.5 63.2473 73.1585 64.4194 74.3306C65.5915 75.5027 66.25 77.0924 66.25 78.75C66.25 80.4076 65.5915 81.9973 64.4194 83.1694C63.2473 84.3415 61.6576 85 60 85C58.3424 85 56.7527 84.3415 55.5806 83.1694C54.4085 81.9973 53.75 80.4076 53.75 78.75C53.75 77.0924 54.4085 75.5027 55.5806 74.3306C56.7527 73.1585 58.3424 72.5 60 72.5ZM38.75 52.5C40.4076 52.5 41.9973 53.1585 43.1694 54.3306C44.3415 55.5027 45 57.0924 45 58.75C45 60.4076 44.3415 61.9973 43.1694 63.1694C41.9973 64.3415 40.4076 65 38.75 65C37.0924 65 35.5027 64.3415 34.3306 63.1694C33.1585 61.9973 32.5 60.4076 32.5 58.75C32.5 57.0924 33.1585 55.5027 34.3306 54.3306C35.5027 53.1585 37.0924 52.5 38.75 52.5ZM60 52.5C61.6576 52.5 63.2473 53.1585 64.4194 54.3306C65.5915 55.5027 66.25 57.0924 66.25 58.75C66.25 60.4076 65.5915 61.9973 64.4194 63.1694C63.2473 64.3415 61.6576 65 60 65C58.3424 65 56.7527 64.3415 55.5806 63.1694C54.4085 61.9973 53.75 60.4076 53.75 58.75C53.75 57.0924 54.4085 55.5027 55.5806 54.3306C56.7527 53.1585 58.3424 52.5 60 52.5ZM81.25 52.5C82.9076 52.5 84.4973 53.1585 85.6694 54.3306C86.8415 55.5027 87.5 57.0924 87.5 58.75C87.5 60.4076 86.8415 61.9973 85.6694 63.1694C84.4973 64.3415 82.9076 65 81.25 65C79.5924 65 78.0027 64.3415 76.8306 63.1694C75.6585 61.9973 75 60.4076 75 58.75C75 57.0924 75.6585 55.5027 76.8306 54.3306C78.0027 53.1585 79.5924 52.5 81.25 52.5ZM88.75 22.5H31.25C28.9294 22.5 26.7038 23.4219 25.0628 25.0628C23.4219 26.7038 22.5 28.9294 22.5 31.25V35H97.5V31.25C97.5 28.9294 96.5781 26.7038 94.9372 25.0628C93.2962 23.4219 91.0706 22.5 88.75 22.5Z" fill="currentColor"/>
    </symbol>
</svg>
