<svg xmlns="http://www.w3.org/2000/svg">
    <symbol id="pie-chart-point" viewBox="0 0 120 120">
        <path d="M66.3591 10.0016C65.8575 9.98689 65.358 10.073 64.8903 10.2549C64.4225 10.4367 63.996 10.7106 63.6361 11.0603C63.2761 11.41 62.99 11.8284 62.7947 12.2907C62.5994 12.753 62.4989 13.2498 62.4991 13.7516V53.7316C62.4991 55.8016 64.1791 57.4816 66.2491 57.4816H106.229C106.731 57.4818 107.228 57.3813 107.69 57.186C108.152 56.9907 108.571 56.7046 108.92 56.3447C109.27 55.9847 109.544 55.5582 109.726 55.0905C109.908 54.6227 109.994 54.1232 109.979 53.6216C109.633 42.1626 104.926 31.2677 96.8195 23.1613C88.713 15.0548 77.8182 10.348 66.3591 10.0016ZM54.9991 23.9016C54.9991 23.3809 54.8907 22.8659 54.6807 22.3894C54.4708 21.913 54.1638 21.4854 53.7796 21.1341C53.3953 20.7827 52.942 20.5152 52.4487 20.3487C51.9554 20.1821 51.4327 20.1201 50.9141 20.1666C42.3975 20.9431 34.2784 24.1304 27.508 29.3551C20.7375 34.5798 15.596 41.6256 12.6858 49.6672C9.77552 57.7087 9.21699 66.4131 11.0756 74.7607C12.9342 83.1082 17.133 90.7534 23.1802 96.8005C29.2274 102.848 36.8725 107.047 45.2201 108.905C53.5676 110.764 62.272 110.205 70.3136 107.295C78.3552 104.385 85.4009 99.2432 90.6256 92.4728C95.8504 85.7023 99.0376 77.5833 99.8141 69.0666C99.8606 68.548 99.7986 68.0254 99.6321 67.532C99.4655 67.0387 99.198 66.5855 98.8467 66.2012C98.4953 65.8169 98.0678 65.51 97.5913 65.3C97.1148 65.0901 96.5998 64.9816 96.0791 64.9816H54.9991V23.9016ZM17.4991 64.9816C17.4974 56.3367 20.4825 47.9567 25.9493 41.2598C31.4162 34.563 39.0289 29.9606 47.4991 28.2316V68.7316C47.4991 70.8016 49.1791 72.4816 51.2491 72.4816H91.7491C89.8985 81.5953 84.7276 89.6962 77.2402 95.2118C69.7527 100.727 60.483 103.264 51.2304 102.329C41.9778 101.395 33.4026 97.0556 27.1694 90.1541C20.9362 83.2526 17.4898 74.2813 17.4991 64.9816Z" fill="currentColor"/>
    </symbol>
</svg>
