<svg xmlns="http://www.w3.org/2000/svg">
    <symbol id="pie-chart-user" viewBox="0 0 120 120">
        <path fill-rule="evenodd" clip-rule="evenodd" d="M62.8903 8.25486C63.358 8.07301 63.8575 7.98689 64.3591 8.00161C75.8182 8.34795 86.713 13.0548 94.8195 21.1613C102.926 29.2677 107.633 40.1626 107.979 51.6216C107.994 52.1232 107.908 52.6227 107.726 53.0905C107.544 53.5582 107.27 53.9847 106.92 54.3447C106.571 54.7046 106.152 54.9907 105.69 55.186C105.228 55.3813 104.731 55.4818 104.229 55.4816H64.2491C62.1791 55.4816 60.4991 53.8016 60.4991 51.7316V11.7516C60.4989 11.2498 60.5994 10.753 60.7947 10.2907C60.99 9.82839 61.2761 9.41 61.6361 9.0603C61.996 8.71061 62.4225 8.43672 62.8903 8.25486ZM67.9991 15.8116V47.9816H100.169C99.0708 39.836 95.3282 32.2764 89.5162 26.4645C83.7043 20.6526 76.1447 16.9099 67.9991 15.8116Z" fill="currentColor"/>
<path d="M52.6807 20.3894C52.8907 20.8659 52.9991 21.3809 52.9991 21.9016V62.9816H77.5434C77 63.4816 75.4 66.4816 75 67.4816C74.7051 68.2187 74.5 69.4816 74.5 70.4816L49.2491 70.4816C47.1791 70.4816 45.4991 68.8016 45.4991 66.7316V26.2316C37.0289 27.9606 29.4162 32.563 23.9493 39.2598C18.4825 45.9567 15.4974 54.3367 15.4991 62.9816C15.4898 72.2812 18.9362 81.2526 25.1694 88.1541C31.4026 95.0556 39.9778 99.3948 49.2304 100.329C54.5992 100.872 59.9739 100.245 65.0027 98.5463C65.0564 101.017 65.7234 103.479 67.0933 105.717C59.3959 108.255 51.1471 108.67 43.2201 106.905C34.8725 105.047 27.2274 100.848 21.1802 94.8005C15.133 88.7534 10.9342 81.1083 9.07561 72.7607C7.21699 64.4131 7.77552 55.7087 10.6858 47.6672C13.596 39.6256 18.7375 32.5798 25.508 27.3551C32.2784 22.1304 40.3975 18.9431 48.9141 18.1666C49.4327 18.1201 49.9554 18.1821 50.4487 18.3487C50.942 18.5152 51.3953 18.7827 51.7796 19.1341C52.1638 19.4854 52.4708 19.913 52.6807 20.3894Z" fill="currentColor"/>
<path d="M102.444 72.027C102.444 75.2217 101.186 78.2855 98.946 80.5444C96.706 82.8034 93.6679 84.0725 90.5 84.0725C87.3321 84.0725 84.294 82.8034 82.054 80.5444C79.814 78.2855 78.5556 75.2217 78.5556 72.027C78.5556 68.8324 79.814 65.7686 82.054 63.5096C84.294 61.2506 87.3321 59.9816 90.5 59.9816C93.6679 59.9816 96.706 61.2506 98.946 63.5096C101.186 65.7686 102.444 68.8324 102.444 72.027ZM112 97.9248C112 105.422 105.856 112.982 90.5 112.982C75.1442 112.982 69 105.451 69 97.9248V97.4285C69 92.7067 72.7936 88.8907 77.471 88.8907H103.529C108.211 88.8907 112 92.7115 112 97.4285V97.9248Z" fill="currentColor"/>
    </symbol>
</svg>
