<svg xmlns="http://www.w3.org/2000/svg">
    <symbol id="pie-chart" viewBox="0 0 120 120">
        <path d="M66.36 10.02C65.8584 10.0053 65.3589 10.0914 64.8911 10.2733C64.4234 10.4551 63.9969 10.729 63.6369 11.0787C63.277 11.4284 62.9909 11.8468 62.7956 12.3091C62.6003 12.7714 62.4998 13.2682 62.5 13.77V53.75C62.5 55.82 64.18 57.5 66.25 57.5H106.23C106.732 57.5003 107.229 57.3997 107.691 57.2044C108.153 57.0091 108.572 56.723 108.921 56.3631C109.271 56.0031 109.545 55.5767 109.727 55.1089C109.909 54.6412 109.995 54.1417 109.98 53.64C109.634 42.181 104.927 31.2862 96.8203 23.1797C88.7139 15.0732 77.819 10.3664 66.36 10.02ZM70 50V17.83C78.1456 18.9283 85.7052 22.671 91.5171 28.4829C97.329 34.2949 101.072 41.8544 102.17 50H70ZM55 23.92C55 23.3993 54.8915 22.8844 54.6816 22.4079C54.4716 21.9314 54.1647 21.5039 53.7804 21.1525C53.3961 20.8011 52.9429 20.5337 52.4496 20.3671C51.9562 20.2005 51.4336 20.1385 50.915 20.185C42.3983 20.9615 34.2793 24.1488 27.5088 29.3735C20.7384 34.5982 15.5969 41.644 12.6866 49.6856C9.77637 57.7272 9.21784 66.4315 11.0765 74.7791C12.9351 83.1267 17.1339 90.7718 23.1811 96.819C29.2282 102.866 36.8734 107.065 45.2209 108.924C53.5685 110.782 62.2729 110.224 70.3144 107.313C78.356 104.403 85.4018 99.2617 90.6265 92.4912C95.8512 85.7208 99.0385 77.6017 99.815 69.085C99.8615 68.5664 99.7995 68.0438 99.6329 67.5505C99.4664 67.0571 99.1989 66.6039 98.8475 66.2196C98.4962 65.8353 98.0686 65.5284 97.5922 65.3185C97.1157 65.1085 96.6007 65 96.08 65H55V23.92ZM17.5 65C17.4982 56.3552 20.4834 47.9751 25.9502 41.2783C31.417 34.5814 39.0298 29.979 47.5 28.25V68.75C47.5 70.82 49.18 72.5 51.25 72.5H91.75C89.8994 81.6137 84.7285 89.7146 77.241 95.2302C69.7536 100.746 60.4838 103.282 51.2313 102.348C41.9787 101.413 33.4035 97.074 27.1703 90.1725C20.9371 83.2711 17.4906 74.2997 17.5 65Z" fill="currentColor"/>
    </symbol>
</svg>
