<svg xmlns="http://www.w3.org/2000/svg">
    <symbol id="post" viewBox="0 0 120 120">
        <path d="M91.25 15C94.8967 15 98.3941 16.4487 100.973 19.0273C103.551 21.6059 105 25.1033 105 28.75V91.25C105 94.8967 103.551 98.3941 100.973 100.973C98.3941 103.551 94.8967 105 91.25 105H28.75C25.1033 105 21.6059 103.551 19.0273 100.973C16.4487 98.3941 15 94.8967 15 91.25V28.75C15 25.1033 16.4487 21.6059 19.0273 19.0273C21.6059 16.4487 25.1033 15 28.75 15H91.25ZM91.25 22.5H28.75C25.3 22.5 22.5 25.3 22.5 28.75V91.25C22.5 94.7 25.3 97.5 28.75 97.5H91.25C94.7 97.5 97.5 94.7 97.5 91.25V28.75C97.5 25.3 94.7 22.5 91.25 22.5ZM71.25 57.5H33.75L33.24 57.535C32.2987 57.6645 31.4417 58.1465 30.8422 58.8835C30.2426 59.6205 29.9451 60.5577 30.0099 61.5056C30.0746 62.4535 30.4968 63.3415 31.191 63.9901C31.8853 64.6388 32.7999 64.9997 33.75 65H71.25L71.76 64.965C72.7013 64.8355 73.5583 64.3535 74.1578 63.6165C74.7574 62.8795 75.0549 61.9423 74.9901 60.9944C74.9254 60.0465 74.5032 59.1585 73.809 58.5099C73.1147 57.8612 72.2001 57.5003 71.25 57.5ZM33.75 77.5H86.25C87.2001 77.5003 88.1147 77.8612 88.809 78.5099C89.5032 79.1585 89.9254 80.0465 89.9901 80.9944C90.0549 81.9423 89.7574 82.8795 89.1578 83.6165C88.5583 84.3535 87.7012 84.8355 86.76 84.965L86.25 85H33.75C32.7999 84.9997 31.8853 84.6388 31.191 83.9901C30.4968 83.3415 30.0746 82.4535 30.0099 81.5056C29.9451 80.5577 30.2426 79.6205 30.8422 78.8835C31.4417 78.1465 32.2987 77.6645 33.24 77.535L33.75 77.5ZM86.25 37.5H33.75L33.24 37.535C32.2987 37.6645 31.4417 38.1465 30.8422 38.8835C30.2426 39.6205 29.9451 40.5577 30.0099 41.5056C30.0746 42.4535 30.4968 43.3415 31.191 43.9901C31.8853 44.6388 32.7999 44.9997 33.75 45H86.25L86.76 44.965C87.7012 44.8355 88.5583 44.3535 89.1578 43.6165C89.7574 42.8795 90.0549 41.9423 89.9901 40.9944C89.9254 40.0465 89.5032 39.1585 88.809 38.5099C88.1147 37.8612 87.2001 37.5003 86.25 37.5Z" fill="currentColor"/>
    </symbol>
</svg>
