<svg xmlns="http://www.w3.org/2000/svg">
    <symbol id="post-add" viewBox="0 0 120 120">
        <path d="M28.75 105H60.11C58.6128 102.662 57.4214 100.141 56.565 97.5H28.75C25.3 97.5 22.5 94.7 22.5 91.25V28.75C22.5 25.3 25.3 22.5 28.75 22.5H91.25C94.7 22.5 97.5 25.3 97.5 28.75V56.565C100.141 57.4214 102.662 58.6128 105 60.11V28.75C105 25.1033 103.551 21.6059 100.973 19.0273C98.3941 16.4487 94.8967 15 91.25 15H28.75C25.1033 15 21.6059 16.4487 19.0273 19.0273C16.4487 21.6059 15 25.1033 15 28.75V91.25C15 94.8967 16.4487 98.3941 19.0273 100.973C21.6059 103.551 25.1033 105 28.75 105ZM55.38 82.5C55.78 79.9244 56.4885 77.4063 57.49 75H33.75C32.7999 75.0003 31.8853 75.3612 31.191 76.0099C30.4968 76.6585 30.0746 77.5465 30.0099 78.4944C29.9451 79.4423 30.2426 80.3795 30.8422 81.1165C31.4417 81.8535 32.2987 82.3355 33.24 82.465L33.75 82.5H55.38ZM66.73 62.5C69.1683 60.4712 71.8905 58.8102 74.81 57.57C74.5894 56.9046 74.1866 56.3144 73.6475 55.8663C73.1084 55.4182 72.4545 55.1302 71.76 55.035L71.25 55H33.75C32.7999 55.0003 31.8853 55.3612 31.191 56.0099C30.4968 56.6585 30.0746 57.5465 30.0099 58.4944C29.9451 59.4423 30.2426 60.3795 30.8422 61.1165C31.4417 61.8535 32.2987 62.3355 33.24 62.465L33.75 62.5H66.73ZM33.75 42.5H86.25C87.2001 42.4997 88.1147 42.1388 88.809 41.4901C89.5032 40.8415 89.9254 39.9535 89.9901 39.0056C90.0549 38.0577 89.7574 37.1205 89.1578 36.3835C88.5583 35.6465 87.7012 35.1645 86.76 35.035L86.25 35H33.75C32.7999 35.0003 31.8853 35.3612 31.191 36.0099C30.4968 36.6585 30.0746 37.5465 30.0099 38.4944C29.9451 39.4423 30.2426 40.3795 30.8422 41.1165C31.4417 41.8535 32.2987 42.3355 33.24 42.465L33.75 42.5Z" fill="currentColor"/>
        <path d="M115 87.5C115 83.8886 114.289 80.3127 112.907 76.9762C111.525 73.6398 109.499 70.6082 106.945 68.0546C104.392 65.501 101.36 63.4753 98.0238 62.0933C94.6873 60.7113 91.1114 60 87.5 60C83.8886 60 80.3127 60.7113 76.9762 62.0933C73.6397 63.4753 70.6082 65.501 68.0546 68.0546C65.501 70.6082 63.4753 73.6398 62.0933 76.9762C60.7113 80.3127 60 83.8886 60 87.5C60 94.7935 62.8973 101.788 68.0546 106.945C73.2118 112.103 80.2065 115 87.5 115C94.7935 115 101.788 112.103 106.945 106.945C112.103 101.788 115 94.7935 115 87.5ZM90 90L90.005 102.515C90.005 103.178 89.7416 103.814 89.2728 104.283C88.8039 104.752 88.168 105.015 87.505 105.015C86.842 105.015 86.2061 104.752 85.7372 104.283C85.2684 103.814 85.005 103.178 85.005 102.515V90H72.48C71.817 90 71.1811 89.7366 70.7122 89.2678C70.2434 88.7989 69.98 88.163 69.98 87.5C69.98 86.837 70.2434 86.2011 70.7122 85.7322C71.1811 85.2634 71.817 85 72.48 85H85V72.495C85 71.832 85.2634 71.1961 85.7322 70.7272C86.2011 70.2584 86.837 69.995 87.5 69.995C88.163 69.995 88.7989 70.2584 89.2678 70.7272C89.7366 71.1961 90 71.832 90 72.495V84.995H102.485C103.148 84.995 103.784 85.2584 104.253 85.7272C104.722 86.1961 104.985 86.832 104.985 87.495C104.985 88.158 104.722 88.7939 104.253 89.2628C103.784 89.7316 103.148 89.995 102.485 89.995L90 90Z" fill="currentColor"/>
    </symbol>
</svg>
