<svg xmlns="http://www.w3.org/2000/svg">
    <symbol id="question-bold" viewBox="0 0 120 120">
        <path d="M60 20C53.3696 20 47.0107 22.6339 42.3223 27.3223C37.6339 32.0107 35 38.3696 35 45C35 46.3261 35.5268 47.5979 36.4645 48.5355C37.4021 49.4732 38.6739 50 40 50C41.3261 50 42.5979 49.4732 43.5355 48.5355C44.4732 47.5979 45 46.3261 45 45C45 36.71 51.71 30 60 30C68.29 30 75 36.71 75 45C75 49.08 74.005 51.47 72.81 53.145C71.5 54.97 69.685 56.335 67.17 58.07L66.59 58.46C64.355 59.99 61.475 61.955 59.245 64.695C56.61 67.935 55 72.03 55 77.5V80C55 81.3261 55.5268 82.5979 56.4645 83.5355C57.4021 84.4732 58.6739 85 60 85C61.3261 85 62.5979 84.4732 63.5355 83.5355C64.4732 82.5979 65 81.3261 65 80V77.5C65 74.22 65.89 72.38 67 71.005C68.285 69.435 70.015 68.245 72.57 66.49L72.835 66.305C75.315 64.605 78.5 62.375 80.935 58.965C83.5 55.405 85 50.915 85 45C85 38.3696 82.3661 32.0107 77.6777 27.3223C72.9893 22.6339 66.6304 20 60 20ZM60 106.25C61.6576 106.25 63.2473 105.592 64.4194 104.419C65.5915 103.247 66.25 101.658 66.25 100C66.25 98.3424 65.5915 96.7527 64.4194 95.5806C63.2473 94.4085 61.6576 93.75 60 93.75C58.3424 93.75 56.7527 94.4085 55.5806 95.5806C54.4085 96.7527 53.75 98.3424 53.75 100C53.75 101.658 54.4085 103.247 55.5806 104.419C56.7527 105.592 58.3424 106.25 60 106.25Z" fill="currentColor"/>
    </symbol>
</svg>