<svg xmlns="http://www.w3.org/2000/svg">
    <symbol id="rename" viewBox="0 0 120 120">
        <path d="M48.75 10H68.74C69.6901 10.0003 70.6047 10.3612 71.299 11.0099C71.9932 11.6585 72.4154 12.5465 72.4801 13.4944C72.5449 14.4423 72.2474 15.3795 71.6478 16.1165C71.0483 16.8535 70.1913 17.3355 69.25 17.465L68.74 17.5H62.5V102.5H68.725C69.6312 102.5 70.5067 102.828 71.1897 103.424C71.8726 104.019 72.3168 104.842 72.44 105.74L72.475 106.25C72.475 107.156 72.1468 108.032 71.5512 108.715C70.9555 109.398 70.1328 109.842 69.235 109.965L68.725 110H48.75C47.7999 110 46.8853 109.639 46.191 108.99C45.4968 108.341 45.0746 107.454 45.0099 106.506C44.9451 105.558 45.2426 104.621 45.8422 103.884C46.4417 103.146 47.2987 102.665 48.24 102.535L48.75 102.5H55V17.5H48.75C47.8438 17.5 46.9683 17.1718 46.2853 16.5762C45.6024 15.9805 45.1582 15.1578 45.035 14.26L45 13.75C45 12.8438 45.3282 11.9683 45.9238 11.2853C46.5195 10.6024 47.3422 10.1582 48.24 10.035L48.75 10ZM91.23 24.985C95.5386 24.989 99.6695 26.7023 102.716 29.7489C105.763 32.7955 107.476 36.9264 107.48 41.235L107.5 78.755C107.502 82.9049 105.916 86.8982 103.067 89.9161C100.218 92.9339 96.3231 94.7475 92.18 94.985L91.25 95.01H67.525V87.51H91.54C93.8109 87.4347 95.9634 86.479 97.5423 84.8451C99.1212 83.2111 100.003 81.0271 100 78.755L99.985 41.23C99.981 38.9088 99.0565 36.684 97.4143 35.0437C95.772 33.4033 93.5462 32.4813 91.225 32.48H67.525V24.98L91.23 24.985ZM50 24.985V32.485H26.25C23.9294 32.485 21.7038 33.4069 20.0628 35.0478C18.4219 36.6888 17.5 38.9144 17.5 41.235V78.755C17.5 83.59 21.42 87.505 26.25 87.505H49.975V95.005H26.25C21.9402 95.005 17.807 93.293 14.7595 90.2455C11.712 87.198 10 83.0648 10 78.755V41.235C10 36.9252 11.712 32.792 14.7595 29.7445C17.807 26.697 21.9402 24.985 26.25 24.985H50Z" fill="currentColor"/>
    </symbol>
</svg>
