<svg xmlns="http://www.w3.org/2000/svg">
    <symbol id="setting-filled" viewBox="0 0 120 120">
        <path d="M60.0601 11.25C63.7301 11.29 67.3851 11.715 70.9701 12.515C71.7328 12.6852 72.4232 13.0895 72.945 13.6713C73.4667 14.2531 73.7936 14.9833 73.8801 15.76L74.7301 23.395C74.8501 24.4714 75.2211 25.5046 75.8133 26.4115C76.4054 27.3184 77.2022 28.0736 78.1395 28.6164C79.0767 29.1593 80.1283 29.4745 81.2096 29.5367C82.2909 29.599 83.3717 29.4066 84.3651 28.975L91.3651 25.9C92.0763 25.5868 92.8673 25.5022 93.6287 25.6581C94.39 25.8139 95.0842 26.2025 95.6151 26.77C100.675 32.1758 104.445 38.6582 106.64 45.73C106.869 46.4737 106.862 47.2703 106.618 48.0094C106.374 48.7486 105.907 49.3936 105.28 49.855L99.0751 54.435C98.2009 55.0758 97.4899 55.9136 96.9998 56.8805C96.5098 57.8473 96.2544 58.916 96.2544 60C96.2544 61.084 96.5098 62.1527 96.9998 63.1195C97.4899 64.0864 98.2009 64.9242 99.0751 65.565L105.29 70.14C105.918 70.6018 106.386 71.2476 106.63 71.9878C106.874 72.7279 106.881 73.5256 106.65 74.27C104.456 81.3414 100.689 87.8237 95.6301 93.23C95.1001 93.7973 94.4072 94.1862 93.6468 94.3429C92.8865 94.4996 92.0962 94.4165 91.3851 94.105L84.3551 91.02C83.3631 90.585 82.2825 90.3897 81.201 90.4499C80.1195 90.5101 79.0673 90.824 78.1296 91.3664C77.1919 91.9087 76.3951 92.6642 75.8037 93.5717C75.2122 94.4792 74.8427 95.5132 74.7251 96.59L73.8751 104.22C73.7902 104.988 73.4705 105.71 72.9595 106.289C72.4485 106.868 71.7712 107.275 71.0201 107.455C63.7782 109.181 56.232 109.181 48.9901 107.455C48.2381 107.276 47.5597 106.87 47.0478 106.29C46.5358 105.711 46.2153 104.988 46.1301 104.22L45.2851 96.6C45.1624 95.5265 44.7896 94.4968 44.1968 93.5935C43.6039 92.6903 42.8076 91.9386 41.8716 91.3989C40.9356 90.8591 39.8861 90.5464 38.8073 90.4858C37.7286 90.4253 36.6506 90.6185 35.6601 91.05L28.6301 94.13C27.9184 94.4426 27.1271 94.5264 26.3657 94.3696C25.6043 94.2129 24.9104 93.8234 24.3801 93.255C19.3207 87.8424 15.5546 81.3531 13.3651 74.275C13.1346 73.5306 13.1417 72.7329 13.3854 71.9928C13.6291 71.2526 14.0974 70.6068 14.7251 70.145L20.9401 65.565C21.8143 64.9242 22.5253 64.0864 23.0154 63.1195C23.5054 62.1527 23.7608 61.084 23.7608 60C23.7608 58.916 23.5054 57.8473 23.0154 56.8805C22.5253 55.9136 21.8143 55.0758 20.9401 54.435L14.7251 49.865C14.0974 49.4032 13.6291 48.7574 13.3854 48.0172C13.1417 47.2771 13.1346 46.4794 13.3651 45.735C15.5603 38.6632 19.3297 32.1808 24.3901 26.775C24.921 26.2075 25.6152 25.8189 26.3765 25.6631C27.1379 25.5072 27.9289 25.5918 28.6401 25.905L35.6401 28.98C36.6352 29.4114 37.7176 29.6033 38.8003 29.5404C39.8831 29.4776 40.936 29.1616 41.8745 28.618C42.8129 28.0743 43.6108 27.3182 44.204 26.4102C44.7972 25.5022 45.1692 24.4678 45.2901 23.39L46.1401 15.76C46.2259 14.9818 46.5531 14.2499 47.0759 13.6671C47.5987 13.0842 48.2908 12.6796 49.0551 12.51C52.6351 11.7167 56.3034 11.2967 60.0601 11.25ZM60.0001 45C56.0219 45 52.2065 46.5803 49.3935 49.3934C46.5805 52.2064 45.0001 56.0218 45.0001 60C45.0001 63.9782 46.5805 67.7936 49.3935 70.6066C52.2065 73.4197 56.0219 75 60.0001 75C63.9783 75 67.7937 73.4197 70.6067 70.6066C73.4198 67.7936 75.0001 63.9782 75.0001 60C75.0001 56.0218 73.4198 52.2064 70.6067 49.3934C67.7937 46.5803 63.9783 45 60.0001 45Z" fill="currentColor"/>
    </symbol>
</svg>
