<svg xmlns="http://www.w3.org/2000/svg">
    <symbol id="setting" viewBox="0 0 120 120">
        <path d="M60.06 11.25C63.73 11.29 67.385 11.715 70.97 12.515C71.7327 12.6852 72.4231 13.0895 72.9448 13.6713C73.4666 14.2531 73.7935 14.9833 73.88 15.76L74.73 23.395C74.85 24.4714 75.221 25.5046 75.8132 26.4115C76.4053 27.3184 77.2021 28.0736 78.1393 28.6164C79.0766 29.1593 80.1282 29.4745 81.2095 29.5367C82.2908 29.599 83.3716 29.4066 84.365 28.975L91.365 25.9C92.0762 25.5868 92.8672 25.5022 93.6285 25.6581C94.3899 25.8139 95.084 26.2025 95.615 26.77C100.675 32.1758 104.445 38.6582 106.64 45.73C106.869 46.4737 106.862 47.2703 106.618 48.0094C106.374 48.7486 105.907 49.3936 105.28 49.855L99.075 54.435C98.2007 55.0758 97.4898 55.9136 96.9997 56.8805C96.5097 57.8473 96.2543 58.916 96.2543 60C96.2543 61.084 96.5097 62.1527 96.9997 63.1195C97.4898 64.0864 98.2007 64.9242 99.075 65.565L105.29 70.14C105.918 70.6018 106.386 71.2476 106.63 71.9878C106.873 72.7279 106.88 73.5256 106.65 74.27C104.456 81.3414 100.689 87.8237 95.63 93.23C95.1 93.7973 94.4071 94.1862 93.6467 94.3429C92.8863 94.4996 92.0961 94.4165 91.385 94.105L84.355 91.02C83.3629 90.585 82.2824 90.3897 81.2009 90.4499C80.1193 90.5101 79.0671 90.824 78.1295 91.3664C77.1918 91.9087 76.395 92.6642 75.8035 93.5717C75.2121 94.4792 74.8426 95.5132 74.725 96.59L73.875 104.22C73.7901 104.988 73.4703 105.71 72.9593 106.289C72.4483 106.868 71.771 107.275 71.02 107.455C63.7781 109.181 56.2318 109.181 48.99 107.455C48.238 107.276 47.5596 106.87 47.0476 106.29C46.5357 105.711 46.2152 104.988 46.13 104.22L45.285 96.6C45.1622 95.5265 44.7895 94.4968 44.1967 93.5935C43.6038 92.6903 42.8074 91.9386 41.8714 91.3989C40.9355 90.8591 39.8859 90.5464 38.8072 90.4858C37.7284 90.4253 36.6505 90.6185 35.66 91.05L28.63 94.13C27.9183 94.4426 27.127 94.5264 26.3656 94.3696C25.6042 94.2129 24.9103 93.8234 24.38 93.255C19.3206 87.8424 15.5545 81.3531 13.365 74.275C13.1345 73.5306 13.1416 72.7329 13.3853 71.9928C13.629 71.2526 14.0973 70.6068 14.725 70.145L20.94 65.565C21.8142 64.9242 22.5252 64.0864 23.0152 63.1195C23.5053 62.1527 23.7607 61.084 23.7607 60C23.7607 58.916 23.5053 57.8473 23.0152 56.8805C22.5252 55.9136 21.8142 55.0758 20.94 54.435L14.725 49.865C14.0973 49.4032 13.629 48.7574 13.3853 48.0172C13.1416 47.2771 13.1345 46.4794 13.365 45.735C15.5602 38.6632 19.3296 32.1808 24.39 26.775C24.9209 26.2075 25.615 25.8189 26.3764 25.6631C27.1378 25.5072 27.9288 25.5918 28.64 25.905L35.64 28.98C36.6351 29.4114 37.7175 29.6033 38.8002 29.5404C39.883 29.4776 40.9359 29.1616 41.8743 28.618C42.8128 28.0743 43.6107 27.3182 44.2039 26.4102C44.7971 25.5022 45.1691 24.4678 45.29 23.39L46.14 15.76C46.2258 14.9818 46.553 14.2499 47.0758 13.6671C47.5985 13.0842 48.2906 12.6796 49.055 12.51C52.635 11.7167 56.3033 11.2967 60.06 11.25ZM60.06 18.75C57.7918 18.7741 55.5287 18.9697 53.29 19.335L52.74 24.22C52.4899 26.4665 51.7155 28.6229 50.4792 30.5152C49.2429 32.4076 47.5794 33.9831 45.6227 35.1147C43.6659 36.2463 41.4707 36.9024 39.2139 37.0302C36.9571 37.1579 34.7019 36.7536 32.63 35.85L28.135 33.88C25.2777 37.3498 23.0031 41.2607 21.4 45.46L25.385 48.395C27.2073 49.7323 28.6892 51.4798 29.7107 53.4961C30.7323 55.5124 31.2649 57.7409 31.2654 60.0012C31.2659 62.2616 30.7343 64.4903 29.7135 66.507C28.6928 68.5238 27.2117 70.2719 25.39 71.61L21.395 74.55C22.995 78.76 25.275 82.68 28.135 86.16L32.66 84.175C34.7274 83.2723 36.9779 82.8677 39.2303 82.9936C41.4827 83.1196 43.6741 83.7726 45.6281 84.9001C47.582 86.0276 49.2439 87.5981 50.48 89.4852C51.7162 91.3723 52.492 93.5233 52.745 95.765L53.29 100.685C57.74 101.435 62.285 101.435 66.73 100.685L67.28 95.765C67.5279 93.52 68.3004 91.3647 69.5351 89.4734C70.7699 87.5821 72.4322 86.0077 74.3879 84.8776C76.3435 83.7474 78.5375 83.0932 80.7927 82.9676C83.0479 82.8421 85.301 83.2489 87.37 84.155L91.89 86.135C94.75 82.6625 97.0263 78.7481 98.63 74.545L94.64 71.605C92.8177 70.2677 91.3358 68.5202 90.3142 66.5039C89.2926 64.4876 88.7601 62.2591 88.7596 59.9988C88.7591 57.7384 89.2907 55.5097 90.3114 53.493C91.3321 51.4762 92.8133 49.7281 94.635 48.39L98.62 45.455C97.0159 41.2536 94.7395 37.341 91.88 33.87L87.395 35.835C85.3237 36.7417 83.0683 37.1487 80.8107 37.0231C78.5532 36.8974 76.3569 36.2427 74.399 35.1117C72.4412 33.9807 70.7767 32.4051 69.5401 30.5123C68.3034 28.6194 67.5292 26.4623 67.28 24.215L66.735 19.335C64.5293 18.9746 62.2948 18.7791 60.06 18.75ZM60 41.25C64.9728 41.25 69.7419 43.2254 73.2582 46.7417C76.7745 50.2581 78.75 55.0272 78.75 60C78.75 64.9728 76.7745 69.7419 73.2582 73.2583C69.7419 76.7746 64.9728 78.75 60 78.75C55.0272 78.75 50.258 76.7746 46.7417 73.2583C43.2254 69.7419 41.25 64.9728 41.25 60C41.25 55.0272 43.2254 50.2581 46.7417 46.7417C50.258 43.2254 55.0272 41.25 60 41.25ZM60 48.75C57.0163 48.75 54.1548 49.9353 52.045 52.045C49.9352 54.1548 48.75 57.0163 48.75 60C48.75 62.9837 49.9352 65.8452 52.045 67.955C54.1548 70.0647 57.0163 71.25 60 71.25C62.9837 71.25 65.8451 70.0647 67.9549 67.955C70.0647 65.8452 71.25 62.9837 71.25 60C71.25 57.0163 70.0647 54.1548 67.9549 52.045C65.8451 49.9353 62.9837 48.75 60 48.75Z" fill="currentColor"/>
    </symbol>
</svg>
