<svg xmlns="http://www.w3.org/2000/svg">
    <symbol id="share-filled" viewBox="0 0 120 120">
        <path d="M85 15.01C87.4732 15.0105 89.908 15.6229 92.0872 16.7927C94.2663 17.9625 96.1222 19.6534 97.4892 21.7145C98.8563 23.7757 99.6921 26.1431 99.9222 28.6056C100.152 31.0682 99.7694 33.5494 98.8078 35.8281C97.8462 38.1068 96.3357 40.1122 94.4109 41.6654C92.4862 43.2187 90.207 44.2715 87.7766 44.7301C85.3462 45.1887 82.84 45.0388 80.4816 44.2937C78.1232 43.5487 75.9858 42.2316 74.26 40.46L46.975 56.06C47.6781 58.6413 47.6781 61.3637 46.975 63.945L74.265 79.54C76.8118 76.9286 80.2235 75.3355 83.8608 75.0592C87.498 74.7829 91.1112 75.8424 94.0233 78.0391C96.9355 80.2358 98.9467 83.419 99.6801 86.9922C100.414 90.5654 99.8188 94.2835 98.0075 97.4497C96.1961 100.616 93.2924 103.013 89.8404 104.192C86.3884 105.371 82.625 105.25 79.2554 103.853C75.8858 102.456 73.1412 99.8785 71.5359 96.603C69.9305 93.3275 69.5747 89.5791 70.535 86.06L43.25 70.46C41.1695 72.5956 38.4995 74.0623 35.5812 74.6726C32.6629 75.2829 29.6289 75.0091 26.867 73.8862C24.1051 72.7633 21.7408 70.8423 20.0763 68.3687C18.4118 65.8952 17.5227 62.9815 17.5227 60C17.5227 57.0186 18.4118 54.1049 20.0763 51.6313C21.7408 49.1578 24.1051 47.2368 26.867 46.1138C29.6289 44.9909 32.6629 44.7171 35.5812 45.3274C38.4995 45.9377 41.1695 47.4044 43.25 49.54L70.535 33.94C69.9322 31.7168 69.8496 29.3846 70.2935 27.1242C70.7374 24.8639 71.696 22.7362 73.0948 20.9061C74.4936 19.0759 76.2952 17.5925 78.3598 16.5709C80.4243 15.5493 82.6964 15.0119 85 15.01Z" fill="currentColor"/>
    </symbol>
</svg>
