<svg xmlns="http://www.w3.org/2000/svg">
    <symbol id="sparkle-filled" viewBox="0 0 120 120">
        <path d="M43.3251 78.6749C44.5501 79.5399 46.0101 79.9999 47.5051 79.9949V79.9749C48.9166 79.9786 50.2981 79.5673 51.4778 78.7921C52.6575 78.0169 53.5833 76.9121 54.1401 75.6149L57.2051 66.2949C57.9125 64.1834 59.1018 62.2655 60.6786 60.693C62.2554 59.1205 64.1766 57.9366 66.2901 57.2349L75.1801 54.3449C76.6146 53.8443 77.8543 52.9033 78.7222 51.6563C79.5901 50.4092 80.0419 48.9198 80.0131 47.4007C79.9843 45.8817 79.4763 44.4105 78.5617 43.1973C77.647 41.984 76.3725 41.0908 74.9201 40.6449L66.1451 37.7949C64.0229 37.0876 62.0948 35.8956 60.5135 34.3134C58.9322 32.7312 57.7412 30.8024 57.035 28.6799L54.1451 19.7949C53.641 18.3798 52.7087 17.1568 51.4777 16.2959C50.2467 15.435 48.7781 14.9789 47.2759 14.991C45.7738 15.0031 44.3127 15.4827 43.0957 16.3634C41.8787 17.244 40.9662 18.4819 40.4851 19.9049L37.5701 28.8649C36.8661 30.9257 35.704 32.8 34.1711 34.3468C32.6382 35.8936 30.7744 37.0725 28.7201 37.7949L19.8351 40.6449C18.409 41.1384 17.1734 42.0662 16.3019 43.2981C15.4304 44.53 14.9667 46.0039 14.9761 47.5129C14.9855 49.0219 15.4674 50.49 16.3542 51.7109C17.241 52.9319 18.488 53.8443 19.9201 54.3199L28.6901 57.1649C30.8119 57.8773 32.7393 59.0727 34.3202 60.6571C35.9011 62.2415 37.0924 64.1715 37.8001 66.2949L40.69 75.1699C41.185 76.5849 42.1051 77.8099 43.3251 78.6749ZM81.6601 103.905C80.7059 103.225 79.9889 102.263 79.6101 101.155L77.9701 96.1249C77.6521 95.1675 77.1156 94.2973 76.4031 93.583C75.6906 92.8688 74.8217 92.3302 73.8651 92.0099L68.91 90.3949C67.7766 90.011 66.7912 89.2829 66.0912 88.3122C65.3912 87.3416 65.0115 86.1767 65.0051 84.9799C65.0036 83.7901 65.3746 82.6296 66.0659 81.6612C66.7572 80.6928 67.7343 79.9651 68.8601 79.5799L73.8901 77.9499C74.8257 77.6174 75.6726 77.075 76.366 76.3643C77.0594 75.6536 77.5808 74.7935 77.8901 73.8499L79.5101 68.8949C79.8912 67.7738 80.6112 66.7986 81.5705 66.1044C82.5299 65.4102 83.6812 65.0311 84.8653 65.0196C86.0495 65.008 87.2079 65.3646 88.1806 66.0401C89.1533 66.7155 89.8922 67.6764 90.2951 68.7899L91.9401 73.8599C92.2621 74.8104 92.7999 75.6733 93.5112 76.3811C94.2225 77.089 95.0881 77.6225 96.0401 77.9399L101 79.5549C102.143 79.9125 103.145 80.621 103.863 81.5798C104.582 82.5387 104.98 83.6993 105.001 84.8971C105.023 86.0949 104.667 87.2691 103.984 88.2532C103.3 89.2373 102.325 89.9814 101.195 90.3799L96.1251 92.0249C95.1717 92.3467 94.3061 92.8854 93.5964 93.5986C92.8866 94.3118 92.3522 95.18 92.035 96.1349L90.425 101.08C90.035 102.23 89.2951 103.23 88.3 103.93C87.3294 104.62 86.167 104.989 84.976 104.984C83.7851 104.98 82.6255 104.602 81.6601 103.905Z" fill="currentColor"/>
    </symbol>
</svg>
