<svg xmlns="http://www.w3.org/2000/svg">
    <symbol id="sun-filled" viewBox="0 0 120 120">
        <path d="M60 10C60.9946 10 61.9484 10.3951 62.6516 11.0983C63.3549 11.8016 63.75 12.7554 63.75 13.75V21.25C63.75 22.2446 63.3549 23.1984 62.6516 23.9017C61.9484 24.6049 60.9946 25 60 25C59.0054 25 58.0516 24.6049 57.3484 23.9017C56.6451 23.1984 56.25 22.2446 56.25 21.25V13.75C56.25 12.7554 56.6451 11.8016 57.3484 11.0983C58.0516 10.3951 59.0054 10 60 10ZM85 60C85 66.6304 82.3661 72.9893 77.6777 77.6777C72.9893 82.3661 66.6304 85 60 85C53.3696 85 47.0107 82.3661 42.3223 77.6777C37.6339 72.9893 35 66.6304 35 60C35 53.3696 37.6339 47.0107 42.3223 42.3223C47.0107 37.6339 53.3696 35 60 35C66.6304 35 72.9893 37.6339 77.6777 42.3223C82.3661 47.0107 85 53.3696 85 60ZM106.25 63.75C107.245 63.75 108.198 63.3549 108.902 62.6516C109.605 61.9484 110 60.9946 110 60C110 59.0054 109.605 58.0516 108.902 57.3484C108.198 56.6451 107.245 56.25 106.25 56.25H98.75C97.7554 56.25 96.8016 56.6451 96.0983 57.3484C95.3951 58.0516 95 59.0054 95 60C95 60.9946 95.3951 61.9484 96.0983 62.6516C96.8016 63.3549 97.7554 63.75 98.75 63.75H106.25ZM60 95C60.9946 95 61.9484 95.3951 62.6516 96.0983C63.3549 96.8016 63.75 97.7554 63.75 98.75V106.25C63.75 107.245 63.3549 108.198 62.6516 108.902C61.9484 109.605 60.9946 110 60 110C59.0054 110 58.0516 109.605 57.3484 108.902C56.6451 108.198 56.25 107.245 56.25 106.25V98.75C56.25 97.7554 56.6451 96.8016 57.3484 96.0983C58.0516 95.3951 59.0054 95 60 95ZM21.25 63.75C22.2446 63.75 23.1984 63.3549 23.9017 62.6516C24.6049 61.9484 25 60.9946 25 60C25 59.0054 24.6049 58.0516 23.9017 57.3484C23.1984 56.6451 22.2446 56.25 21.25 56.25H13.75C12.7554 56.25 11.8016 56.6451 11.0983 57.3484C10.3951 58.0516 10 59.0054 10 60C10 60.9946 10.3951 61.9484 11.0983 62.6516C11.8016 63.3549 12.7554 63.75 13.75 63.75H21.25ZM21.1 21.1C21.8031 20.3977 22.7562 20.0033 23.75 20.0033C24.7438 20.0033 25.6969 20.3977 26.4 21.1L33.9 28.6C34.5624 29.3109 34.923 30.2511 34.9059 31.2226C34.8887 32.1941 34.4952 33.121 33.8081 33.8081C33.121 34.4952 32.1941 34.8887 31.2226 34.9059C30.2511 34.923 29.3109 34.5624 28.6 33.9L21.1 26.4C20.3977 25.6969 20.0033 24.7438 20.0033 23.75C20.0033 22.7562 20.3977 21.8031 21.1 21.1ZM26.4 98.9C26.0567 99.2684 25.6427 99.5639 25.1827 99.7689C24.7227 99.9739 24.2261 100.084 23.7226 100.093C23.2191 100.102 22.719 100.009 22.252 99.8206C21.7851 99.632 21.3609 99.3513 21.0048 98.9952C20.6487 98.6391 20.368 98.2149 20.1794 97.748C19.9908 97.281 19.8982 96.7809 19.907 96.2774C19.9159 95.7739 20.0261 95.2773 20.2311 94.8173C20.4361 94.3573 20.7316 93.9433 21.1 93.6L28.6 86.1C28.9433 85.7316 29.3573 85.4361 29.8173 85.2311C30.2773 85.0261 30.7739 84.9159 31.2774 84.907C31.7809 84.8982 32.281 84.9908 32.748 85.1794C33.2149 85.368 33.6391 85.6487 33.9952 86.0048C34.3513 86.3609 34.632 86.7851 34.8206 87.252C35.0092 87.719 35.1018 88.2191 35.093 88.7226C35.0841 89.2261 34.9739 89.7227 34.7689 90.1827C34.5639 90.6427 34.2684 91.0567 33.9 91.4L26.4 98.9ZM98.9 21.1C98.1969 20.3977 97.2438 20.0033 96.25 20.0033C95.2562 20.0033 94.3031 20.3977 93.6 21.1L86.1 28.6C85.4376 29.3109 85.077 30.2511 85.0941 31.2226C85.1113 32.1941 85.5048 33.121 86.1919 33.8081C86.879 34.4952 87.8059 34.8887 88.7774 34.9059C89.7489 34.923 90.6891 34.5624 91.4 33.9L98.9 26.4C99.6023 25.6969 99.9967 24.7438 99.9967 23.75C99.9967 22.7562 99.6023 21.8031 98.9 21.1ZM93.6 98.9C93.9433 99.2684 94.3573 99.5639 94.8173 99.7689C95.2773 99.9739 95.7739 100.084 96.2774 100.093C96.7809 100.102 97.281 100.009 97.748 99.8206C98.2149 99.632 98.6391 99.3513 98.9952 98.9952C99.3513 98.6391 99.632 98.2149 99.8206 97.748C100.009 97.281 100.102 96.7809 100.093 96.2774C100.084 95.7739 99.9739 95.2773 99.7689 94.8173C99.5639 94.3573 99.2684 93.9433 98.9 93.6L91.4 86.1C91.0567 85.7316 90.6427 85.4361 90.1827 85.2311C89.7227 85.0261 89.2261 84.9159 88.7226 84.907C88.2191 84.8982 87.719 84.9908 87.252 85.1794C86.7851 85.368 86.3609 85.6487 86.0048 86.0048C85.6487 86.3609 85.368 86.7851 85.1794 87.252C84.9908 87.719 84.8982 88.2191 84.907 88.7226C84.9159 89.2261 85.0261 89.7227 85.2311 90.1827C85.4361 90.6427 85.7316 91.0567 86.1 91.4L93.6 98.9Z" fill="currentColor"/>
    </symbol>
</svg>
