<svg xmlns="http://www.w3.org/2000/svg">
    <symbol id="sync-filled" viewBox="0 0 120 120">
        <path d="M59.31 22.5C51.4924 22.6409 43.9143 25.2219 37.6358 29.8819C31.3574 34.542 26.6926 41.048 24.2939 48.4898C21.8953 55.9317 21.8828 63.9372 24.2582 71.3866C26.6336 78.8359 31.2781 85.3564 37.542 90.036C38.4967 90.7521 39.128 91.8181 39.2967 92.9996C39.4655 94.1811 39.1581 95.3812 38.442 96.336C37.7259 97.2908 36.6598 97.922 35.4784 98.0908C34.2969 98.2596 33.0967 97.9521 32.142 97.236C24.5871 91.5884 18.9283 83.7768 15.9168 74.8379C12.9054 65.8991 12.6836 56.2557 15.2809 47.1879C17.8782 38.12 23.1718 30.0565 30.4591 24.0675C37.7464 18.0785 46.6827 14.4474 56.082 13.656L52.578 10.14C51.7831 9.28697 51.3503 8.15869 51.3709 6.99288C51.3915 5.82708 51.8638 4.71476 52.6882 3.89029C53.5127 3.06581 54.625 2.59354 55.7908 2.57297C56.9566 2.5524 58.0849 2.98514 58.938 3.78002L71.67 16.506C72.5127 17.3498 72.986 18.4935 72.986 19.686C72.986 20.8785 72.5127 22.0223 71.67 22.866L58.938 35.604C58.0849 36.3989 56.9566 36.8316 55.7908 36.8111C54.625 36.7905 53.5127 36.3182 52.6882 35.4937C51.8638 34.6693 51.3915 33.557 51.3709 32.3912C51.3503 31.2253 51.7831 30.0971 52.578 29.244L59.31 22.5ZM60.69 97.488C68.5076 97.3471 76.0856 94.7661 82.3641 90.1061C88.6426 85.4461 93.3074 78.9401 95.706 71.4982C98.1047 64.0563 98.1172 56.0508 95.7417 48.6015C93.3663 41.1521 88.7219 34.6316 82.458 29.952C81.5032 29.2359 80.872 28.1699 80.7032 26.9884C80.5344 25.8069 80.8419 24.6068 81.558 23.652C82.2741 22.6972 83.3401 22.066 84.5216 21.8972C85.7031 21.7285 86.9032 22.0359 87.858 22.752C89.614 24.072 91.288 25.526 92.88 27.114C99.1481 33.3813 103.494 41.3097 105.407 49.9649C107.319 58.6201 106.718 67.6415 103.673 75.9664C100.629 84.2912 95.2692 91.5725 88.2246 96.9524C81.18 102.332 72.7445 105.587 63.912 106.332L67.422 109.842C67.852 110.257 68.195 110.753 68.4311 111.302C68.6672 111.851 68.7916 112.442 68.7971 113.039C68.8026 113.637 68.689 114.229 68.463 114.782C68.237 115.335 67.9031 115.838 67.4808 116.261C67.0584 116.683 66.5562 117.018 66.0032 117.244C65.4503 117.471 64.8578 117.585 64.2603 117.58C63.6628 117.575 63.0722 117.451 62.5231 117.216C61.974 116.98 61.4773 116.638 61.062 116.208L48.33 103.482C47.4873 102.638 47.0139 101.495 47.0139 100.302C47.0139 99.1095 47.4873 97.9658 48.33 97.122L61.062 84.39C61.4739 83.9479 61.9707 83.5933 62.5227 83.3473C63.0747 83.1014 63.6706 82.9691 64.2748 82.9585C64.8791 82.9478 65.4792 83.059 66.0396 83.2853C66.5999 83.5116 67.1089 83.8485 67.5362 84.2758C67.9635 84.7031 68.3004 85.2121 68.5267 85.7724C68.753 86.3328 68.8642 86.9329 68.8535 87.5372C68.8429 88.1414 68.7106 88.7373 68.4647 89.2892C68.2187 89.8412 67.8641 90.338 67.422 90.75L60.69 97.488Z" fill="currentColor"/>
    </symbol>
</svg>
