<svg xmlns="http://www.w3.org/2000/svg">
    <symbol id="sync" viewBox="0 0 120 120">
        <path d="M68.484 21.8099C69.0464 21.2473 69.3623 20.4844 69.3623 19.6889C69.3623 18.8934 69.0464 18.1305 68.484 17.5679L55.758 4.84189C55.1922 4.29542 54.4344 3.99303 53.6478 3.99987C52.8612 4.0067 52.1087 4.32221 51.5525 4.87844C50.9963 5.43466 50.6808 6.1871 50.674 6.97369C50.6671 7.76028 50.9695 8.51809 51.516 9.08389L57.498 15.0659C48.2752 15.5785 39.4335 18.917 32.1735 24.6279C24.9135 30.3388 19.5868 38.1456 16.9166 46.9883C14.2464 55.831 14.3621 65.2812 17.2481 74.0558C20.134 82.8305 25.6503 90.5045 33.048 96.0359C33.6845 96.5133 34.4846 96.7183 35.2722 96.6057C36.0599 96.4932 36.7706 96.0724 37.248 95.4359C37.7254 94.7994 37.9303 93.9993 37.8178 93.2116C37.7053 92.424 37.2845 91.7133 36.648 91.2359C30.06 86.3117 25.1976 79.4307 22.7556 71.5766C20.3137 63.7226 20.4174 55.2976 23.0519 47.506C25.6864 39.7144 30.7167 32.9552 37.4238 28.1946C44.131 23.434 52.1715 20.9158 60.396 20.9999C60.544 20.9999 60.69 20.9899 60.834 20.9699L51.516 30.2939C50.9695 30.8597 50.6671 31.6175 50.674 32.4041C50.6808 33.1907 50.9963 33.9431 51.5525 34.4993C52.1087 35.0556 52.8612 35.3711 53.6478 35.3779C54.4344 35.3847 55.1922 35.0824 55.758 34.5359L68.484 21.8099ZM51.516 98.1779C50.9536 98.7405 50.6376 99.5034 50.6376 100.299C50.6376 101.094 50.9536 101.857 51.516 102.42L64.242 115.146C64.8078 115.692 65.5656 115.995 66.3522 115.988C67.1388 115.981 67.8912 115.666 68.4474 115.109C69.0037 114.553 69.3192 113.801 69.326 113.014C69.3328 112.228 69.0304 111.47 68.484 110.904L62.502 104.922C71.7248 104.409 80.5664 101.071 87.8265 95.3599C95.0865 89.649 100.413 81.8422 103.083 72.9995C105.754 64.1568 105.638 54.7066 102.752 45.932C99.866 37.1573 94.3497 29.4833 86.952 23.9519C86.6368 23.7155 86.2782 23.5435 85.8965 23.4457C85.5149 23.348 85.1177 23.3263 84.7277 23.382C84.3377 23.4378 83.9625 23.5697 83.6235 23.7705C83.2845 23.9712 82.9884 24.2367 82.752 24.5519C82.5156 24.8671 82.3436 25.2257 82.2458 25.6073C82.1481 25.989 82.1264 26.3862 82.1821 26.7762C82.2378 27.1662 82.3698 27.5414 82.5706 27.8804C82.7713 28.2194 83.0368 28.5155 83.352 28.7519C84.828 29.8599 86.236 31.0799 87.576 32.4119C93.0585 37.8892 96.7848 44.8758 98.2795 52.48C99.7742 60.0843 98.9695 67.9614 95.9681 75.1064C92.9667 82.2514 87.9046 88.3401 81.4279 92.5957C74.9511 96.8514 67.3533 99.0809 59.604 98.9999L59.16 99.0239L68.484 89.6999C68.7705 89.4231 68.9991 89.0921 69.1563 88.7261C69.3135 88.3601 69.3963 87.9664 69.3997 87.5681C69.4032 87.1698 69.3273 86.7747 69.1764 86.406C69.0256 86.0373 68.8028 85.7024 68.5212 85.4207C68.2395 85.139 67.9045 84.9163 67.5358 84.7654C67.1671 84.6146 66.7721 84.5387 66.3738 84.5421C65.9754 84.5456 65.5818 84.6284 65.2158 84.7856C64.8498 84.9428 64.5187 85.1714 64.242 85.4579L51.516 98.1779Z" fill="currentColor"/>
    </symbol>
</svg>
