<svg xmlns="http://www.w3.org/2000/svg">
    <symbol id="tag-find" viewBox="0 0 120 120">
        <path d="M110 21.25C110 18.2663 108.815 15.4048 106.705 13.295C104.595 11.1853 101.734 10 98.7499 10H71.4199C69.2848 10.0001 67.1706 10.421 65.1983 11.2386C63.2259 12.0562 61.434 13.2545 59.9249 14.765L17.4249 57.315C14.3804 60.3651 12.6722 64.4996 12.6759 68.8091C12.6797 73.1187 14.3951 77.2502 17.4449 80.295L39.7549 102.57C42.8063 105.61 46.9385 107.317 51.246 107.316C55.5535 107.315 59.6849 105.607 62.7349 102.565L63.2049 102.095C61.3995 100.319 59.8482 98.3011 58.5949 96.1L57.4349 97.26C55.7903 98.8981 53.5637 99.8178 51.2424 99.8178C48.9212 99.8178 46.6946 98.8981 45.0499 97.26L22.7499 74.99C21.1186 73.3616 20.1956 71.1554 20.1816 68.8504C20.1675 66.5455 21.0635 64.3281 22.6749 62.68L65.2349 20.065C66.0482 19.2512 67.014 18.6057 68.077 18.1656C69.14 17.7254 70.2794 17.4993 71.4299 17.5H98.7549C99.7495 17.5 100.703 17.8951 101.407 18.5983C102.11 19.3016 102.505 20.2554 102.505 21.25V48.56C102.505 50.88 101.585 53.11 99.9399 54.745L96.0999 58.59C98.301 59.8433 100.318 61.3946 102.095 63.2L105.245 60.05C108.291 57.0019 110.001 52.869 110 48.56V21.25ZM92.4999 35.01C92.4999 33.0209 91.7098 31.1132 90.3032 29.7067C88.8967 28.3002 86.9891 27.51 84.9999 27.51C83.0108 27.51 81.1032 28.3002 79.6966 29.7067C78.2901 31.1132 77.4999 33.0209 77.4999 35.01C77.4999 36.9991 78.2901 38.9068 79.6966 40.3133C81.1032 41.7198 83.0108 42.51 84.9999 42.51C86.9891 42.51 88.8967 41.7198 90.3032 40.3133C91.7098 38.9068 92.4999 36.9991 92.4999 35.01ZM100.84 95.535C104.109 90.9369 105.532 85.2783 104.825 79.6808C104.119 74.0834 101.336 68.9555 97.0269 65.3134C92.718 61.6714 87.1982 59.7811 81.5613 60.017C75.9243 60.253 70.5818 62.5981 66.5924 66.5874C62.603 70.5768 60.2579 75.9194 60.022 81.5563C59.786 87.1932 61.6764 92.7131 65.3184 97.0219C68.9604 101.331 74.0883 104.114 79.6858 104.82C85.2833 105.527 90.9418 104.104 95.5399 100.835L108.6 113.9C108.943 114.268 109.357 114.564 109.817 114.769C110.277 114.974 110.774 115.084 111.277 115.093C111.781 115.102 112.281 115.009 112.748 114.821C113.215 114.632 113.639 114.351 113.995 113.995C114.351 113.639 114.632 113.215 114.821 112.748C115.009 112.281 115.102 111.781 115.093 111.277C115.084 110.774 114.974 110.277 114.769 109.817C114.564 109.357 114.268 108.943 113.9 108.6L100.84 95.535ZM97.4999 82.5C97.4999 86.4782 95.9196 90.2936 93.1065 93.1066C90.2935 95.9196 86.4782 97.5 82.4999 97.5C78.5217 97.5 74.7064 95.9196 71.8933 93.1066C69.0803 90.2936 67.4999 86.4782 67.4999 82.5C67.4999 78.5218 69.0803 74.7064 71.8933 71.8934C74.7064 69.0804 78.5217 67.5 82.4999 67.5C86.4782 67.5 90.2935 69.0804 93.1065 71.8934C95.9196 74.7064 97.4999 78.5218 97.4999 82.5Z" fill="currentColor"/>
    </symbol>
</svg>
