<svg xmlns="http://www.w3.org/2000/svg">
    <symbol id="tag" viewBox="0 0 120 120">
        <path d="M98.7499 10C101.734 10 104.595 11.1853 106.705 13.295C108.815 15.4048 110 18.2663 110 21.25V48.56C110 52.8697 108.287 57.0027 105.24 60.05L62.7399 102.565C59.6897 105.608 55.5572 107.318 51.2485 107.319C46.9397 107.32 42.8065 105.612 39.7549 102.57L17.4449 80.3C14.3951 77.2552 12.6797 73.1237 12.6759 68.8141C12.6722 64.5046 14.3804 60.3701 17.4249 57.32L59.9249 14.77C61.4346 13.2589 63.2273 12.0603 65.2006 11.2427C67.1739 10.425 69.289 10.0045 71.4249 10.005L98.7499 10ZM98.7499 17.5H71.4199C69.0999 17.5 66.8699 18.425 65.2299 20.065L22.6699 62.68C21.0585 64.3281 20.1625 66.5455 20.1766 68.8504C20.1906 71.1554 21.1136 73.3616 22.7449 74.99L45.0499 97.26C46.6946 98.8981 48.9212 99.8178 51.2424 99.8178C53.5637 99.8178 55.7903 98.8981 57.4349 97.26L99.9349 54.745C101.576 53.105 102.499 50.8802 102.5 48.56V21.25C102.5 20.2554 102.105 19.3016 101.402 18.5983C100.698 17.8951 99.7445 17.5 98.7499 17.5ZM84.9999 27.51C85.9849 27.51 86.9601 27.704 87.8701 28.0809C88.78 28.4578 89.6068 29.0103 90.3032 29.7067C90.9997 30.4031 91.5521 31.2299 91.929 32.1399C92.3059 33.0498 92.4999 34.0251 92.4999 35.01C92.4999 35.9949 92.3059 36.9702 91.929 37.8801C91.5521 38.7901 90.9997 39.6169 90.3032 40.3133C89.6068 41.0097 88.78 41.5622 87.8701 41.9391C86.9601 42.316 85.9849 42.51 84.9999 42.51C83.0108 42.51 81.1032 41.7198 79.6966 40.3133C78.2901 38.9068 77.4999 36.9991 77.4999 35.01C77.4999 33.0209 78.2901 31.1132 79.6966 29.7067C81.1032 28.3002 83.0108 27.51 84.9999 27.51Z" fill="currentColor"/>
    </symbol>
</svg>
