<svg xmlns="http://www.w3.org/2000/svg">
    <symbol id="text" viewBox="0 0 120 120">
        <path d="M78.7499 15C77.7553 15 76.8015 15.3951 76.0982 16.0983C75.395 16.8016 74.9999 17.7554 74.9999 18.75V96.25C74.9999 97.2445 75.395 98.1984 76.0982 98.9016C76.8015 99.6049 77.7553 100 78.7499 100C79.7444 100 80.6983 99.6049 81.4015 98.9016C82.1048 98.1984 82.4999 97.2445 82.4999 96.25V95.065C85.9249 98.155 90.2699 100 94.9999 100C106.05 100 115 89.925 115 77.5C115 65.075 106.05 55 94.9999 55C90.2699 55 85.9249 56.85 82.4999 59.935V18.75C82.4999 17.7554 82.1048 16.8016 81.4015 16.0983C80.6983 15.3951 79.7444 15 78.7499 15ZM82.4999 77.5C82.4999 68.36 88.8999 62.5 94.9999 62.5C101.1 62.5 107.5 68.36 107.5 77.5C107.5 86.64 101.1 92.5 94.9999 92.5C88.8999 92.5 82.4999 86.64 82.4999 77.5ZM38.7999 15C39.5667 15.0103 40.3119 15.2556 40.9351 15.7026C41.5582 16.1496 42.0293 16.7769 42.2849 17.5L69.7849 95C69.9584 95.4664 70.0374 95.9626 70.0173 96.4598C69.9971 96.9571 69.8782 97.4453 69.6674 97.8961C69.4567 98.3469 69.1583 98.7512 68.7897 99.0855C68.4211 99.4199 67.9897 99.6775 67.5205 99.8434C67.0514 100.009 66.5539 100.08 66.0571 100.052C65.5602 100.024 65.074 99.8966 64.6267 99.6785C64.1794 99.4604 63.78 99.1555 63.4518 98.7814C63.1236 98.4074 62.8731 97.9718 62.7149 97.5L55.6149 77.5H20.0349L12.2499 97.6C12.0726 98.0596 11.8065 98.4798 11.4668 98.8366C11.1271 99.1934 10.7205 99.4798 10.2701 99.6795C9.81978 99.8791 9.33451 99.9881 8.84202 100C8.34954 100.012 7.8595 99.9273 7.39987 99.75C6.94024 99.5727 6.52003 99.3066 6.16324 98.9669C5.80644 98.6273 5.52005 98.2206 5.3204 97.7703C5.12075 97.3199 5.01177 96.8346 4.99967 96.3421C4.98757 95.8497 5.07258 95.3596 5.24987 94.9L35.2499 17.4C35.5256 16.6852 36.0136 16.072 36.6483 15.643C37.283 15.2139 38.0338 14.9895 38.7999 15ZM38.5999 29.535L22.9349 70H52.9599L38.5999 29.535Z" fill="currentColor"/>
    </symbol>
</svg>
