<svg xmlns="http://www.w3.org/2000/svg">
    <symbol id="timer-10" viewBox="0 0 120 120">
        <path d="M60 25C70.0121 24.9985 79.7034 28.5318 87.3652 34.977C95.027 41.4222 100.167 50.3654 101.88 60.23C99.3574 59.8596 96.7891 59.9409 94.295 60.47C92.9431 53.8802 89.7207 47.8196 85.0137 43.0136C80.3067 38.2077 74.3144 34.8601 67.7541 33.3715C61.1938 31.8828 54.3435 32.3163 48.0232 34.62C41.7029 36.9237 36.1804 41 32.1167 46.3609C28.053 51.7219 25.6204 58.1403 25.1099 64.848C24.5995 71.5556 26.0329 78.2683 29.2385 84.1824C32.4442 90.0965 37.2863 94.9616 43.1852 98.1951C49.0842 101.429 55.79 102.894 62.5 102.415V109.925C56.8216 110.263 51.1332 109.457 45.7719 107.556C40.4105 105.655 35.4854 102.697 31.2885 98.8569C27.0915 95.0172 23.708 90.374 21.3386 85.2025C18.9692 80.031 17.6621 74.4365 17.4947 68.7506C17.3273 63.0646 18.3031 57.4029 20.3642 52.101C22.4253 46.7991 25.5297 41.9649 29.4936 37.8849C33.4574 33.8049 38.2 30.5622 43.4402 28.3489C48.6804 26.1356 54.3115 24.9968 60 25ZM63.75 62.025V43.75L63.715 43.24C63.5855 42.2987 63.1035 41.4417 62.3665 40.8422C61.6294 40.2426 60.6923 39.9451 59.7444 40.0099C58.7965 40.0746 57.9085 40.4968 57.2598 41.191C56.6112 41.8853 56.2503 42.7999 56.25 43.75V66.25L56.28 66.695C57.32 64.99 58.94 63.63 60.98 62.945L63.75 62.025ZM95.735 25.57L96.15 25.87L101.94 30.69C102.665 31.2997 103.132 32.1612 103.248 33.1014C103.364 34.0416 103.12 34.9908 102.564 35.7583C102.009 36.5257 101.184 37.0546 100.255 37.2386C99.3253 37.4225 98.3608 37.248 97.555 36.75L97.145 36.45L91.35 31.63C90.625 31.0203 90.1576 30.1587 90.0418 29.2186C89.926 28.2784 90.1703 27.3292 90.7256 26.5617C91.2809 25.7943 92.1061 25.2654 93.0354 25.0815C93.9647 24.8975 94.9291 25.072 95.735 25.57ZM71.25 12.5C72.2001 12.5003 73.1147 12.8612 73.8089 13.5099C74.5032 14.1585 74.9253 15.0465 74.9901 15.9944C75.0549 16.9423 74.7574 17.8795 74.1578 18.6165C73.5582 19.3535 72.7012 19.8355 71.76 19.965L71.25 20H48.75C47.7999 19.9997 46.8853 19.6388 46.191 18.9901C45.4968 18.3415 45.0746 17.4535 45.0098 16.5056C44.9451 15.5577 45.2425 14.6205 45.8421 13.8835C46.4417 13.1465 47.2987 12.6645 48.24 12.535L48.75 12.5H71.25ZM73.44 65.71C73.9222 66.0569 74.3151 66.5135 74.5863 67.042C74.8576 67.5705 74.9993 68.1559 75 68.75V111.25C75 112.245 74.6049 113.198 73.9016 113.902C73.1984 114.605 72.2445 115 71.25 115C70.2554 115 69.3016 114.605 68.5983 113.902C67.8951 113.198 67.5 112.245 67.5 111.25V73.95L64.935 74.81C63.9955 75.1092 62.976 75.0263 62.0972 74.5794C61.2183 74.1324 60.5509 73.3573 60.2393 72.4219C59.9277 71.4865 59.9971 70.466 60.4323 69.5813C60.8676 68.6966 61.6338 68.019 62.565 67.695L70.065 65.195C70.6281 65.0076 71.2277 64.9566 71.8145 65.0461C72.4012 65.1357 72.9583 65.3632 73.44 65.71ZM82.5 81.25C82.5 76.9402 84.212 72.807 87.2595 69.7595C90.3069 66.7121 94.4402 65 98.75 65C103.06 65 107.193 66.7121 110.24 69.7595C113.288 72.807 115 76.9402 115 81.25V98.75C115 103.06 113.288 107.193 110.24 110.24C107.193 113.288 103.06 115 98.75 115C94.4402 115 90.3069 113.288 87.2595 110.24C84.212 107.193 82.5 103.06 82.5 98.75V81.25ZM98.75 72.5C96.4293 72.5 94.2037 73.4219 92.5628 75.0628C90.9218 76.7038 90 78.9294 90 81.25V98.75C90 101.071 90.9218 103.296 92.5628 104.937C94.2037 106.578 96.4293 107.5 98.75 107.5C101.071 107.5 103.296 106.578 104.937 104.937C106.578 103.296 107.5 101.071 107.5 98.75V81.25C107.5 78.9294 106.578 76.7038 104.937 75.0628C103.296 73.4219 101.071 72.5 98.75 72.5Z" fill="currentColor"/>
    </symbol>
</svg>