<svg xmlns="http://www.w3.org/2000/svg">
    <symbol id="timer" viewBox="0 0 120 120">
        <path d="M60 25C71.2717 25 82.0817 29.4777 90.052 37.448C98.0223 45.4183 102.5 56.2283 102.5 67.5C102.5 78.7717 98.0223 89.5817 90.052 97.552C82.0817 105.522 71.2717 110 60 110C48.7283 110 37.9183 105.522 29.948 97.552C21.9777 89.5817 17.5 78.7717 17.5 67.5C17.5 56.2283 21.9777 45.4183 29.948 37.448C37.9183 29.4777 48.7283 25 60 25ZM60 32.5C50.7174 32.5 41.815 36.1875 35.2513 42.7513C28.6875 49.315 25 58.2174 25 67.5C25 76.7826 28.6875 85.685 35.2513 92.2487C41.815 98.8125 50.7174 102.5 60 102.5C69.2826 102.5 78.185 98.8125 84.7487 92.2487C91.3125 85.685 95 76.7826 95 67.5C95 58.2174 91.3125 49.315 84.7487 42.7513C78.185 36.1875 69.2826 32.5 60 32.5ZM60 40C60.9062 40 61.7817 40.3282 62.4647 40.9238C63.1476 41.5195 63.5918 42.3422 63.715 43.24L63.75 43.75V66.25C63.7497 67.2001 63.3888 68.1147 62.7401 68.809C62.0915 69.5032 61.2035 69.9254 60.2556 69.9901C59.3077 70.0549 58.3705 69.7574 57.6335 69.1578C56.8965 68.5583 56.4145 67.7013 56.285 66.76L56.25 66.25V43.75C56.25 42.7554 56.6451 41.8016 57.3484 41.0984C58.0516 40.3951 59.0054 40 60 40ZM95.735 25.57L96.15 25.87L101.94 30.69C102.665 31.2997 103.132 32.1612 103.248 33.1014C103.364 34.0416 103.12 34.9908 102.564 35.7583C102.009 36.5257 101.184 37.0546 100.255 37.2386C99.3253 37.4225 98.3608 37.248 97.555 36.75L97.145 36.45L91.35 31.63C90.625 31.0203 90.1577 30.1587 90.0418 29.2186C89.926 28.2784 90.1703 27.3292 90.7256 26.5617C91.281 25.7943 92.1062 25.2654 93.0354 25.0815C93.9647 24.8975 94.9291 25.072 95.735 25.57ZM71.25 12.5C72.2001 12.5003 73.1147 12.8612 73.809 13.5099C74.5032 14.1585 74.9254 15.0465 74.9901 15.9944C75.0549 16.9423 74.7574 17.8795 74.1578 18.6165C73.5583 19.3535 72.7013 19.8355 71.76 19.965L71.25 20H48.75C47.7999 19.9997 46.8853 19.6388 46.191 18.9901C45.4968 18.3415 45.0746 17.4535 45.0099 16.5056C44.9451 15.5577 45.2426 14.6205 45.8422 13.8835C46.4417 13.1465 47.2987 12.6645 48.24 12.535L48.75 12.5H71.25Z" fill="currentColor"/>
    </symbol>
</svg>
