<svg xmlns="http://www.w3.org/2000/svg">
    <symbol id="timer-3" viewBox="0 0 120 120">
        <path d="M101.965 60.74C100.568 52.0808 96.5252 44.0661 90.3924 37.7952C84.2597 31.5244 76.3369 27.3047 67.7109 25.7149C59.085 24.1251 50.1784 25.2432 42.2131 28.9157C34.2477 32.5882 27.6137 38.6353 23.2212 46.2274C18.8286 53.8195 16.8927 62.5847 17.6789 71.3206C18.4652 80.0565 21.9351 88.3352 27.6126 95.021C33.2902 101.707 40.8973 106.472 49.3904 108.663C57.8835 110.855 66.8465 110.364 75.05 107.26C74.453 105.472 74.4493 103.539 75.0394 101.749C75.6295 99.9591 76.7819 98.4074 78.325 97.325C71.9971 101.211 64.597 102.984 57.195 102.387C49.793 101.79 42.7727 98.8544 37.1493 94.0043C31.5259 89.1542 27.5909 82.6412 25.9133 75.4072C24.2357 68.1731 24.9025 60.5929 27.8172 53.7628C30.732 46.9327 35.7436 41.2067 42.1273 37.4128C48.5111 33.6189 55.9361 31.9538 63.3287 32.6583C70.7212 33.3627 77.6981 36.4002 83.2504 41.3315C88.8028 46.2628 92.6427 52.8323 94.215 60.09C94.8783 60.03 95.5567 60 96.25 60C98.16 60 100.09 60.25 101.965 60.74ZM63.715 43.24C63.5855 42.2987 63.1035 41.4417 62.3665 40.8422C61.6295 40.2426 60.6923 39.9451 59.7444 40.0099C58.7965 40.0746 57.9085 40.4968 57.2599 41.191C56.6112 41.8853 56.2503 42.7999 56.25 43.75V66.25L56.285 66.76C56.4145 67.7013 56.8965 68.5583 57.6335 69.1578C58.3706 69.7574 59.3077 70.0549 60.2556 69.9901C61.2035 69.9254 62.0915 69.5032 62.7401 68.809C63.3888 68.1147 63.7497 67.2001 63.75 66.25V43.75L63.715 43.24ZM96.15 25.87L95.735 25.57C94.9292 25.072 93.9647 24.8975 93.0354 25.0815C92.1062 25.2654 91.281 25.7943 90.7256 26.5617C90.1703 27.3292 89.926 28.2784 90.0418 29.2186C90.1577 30.1587 90.625 31.0203 91.35 31.63L97.145 36.455L97.555 36.755C98.3614 37.2617 99.3304 37.4425 100.265 37.2609C101.2 37.0792 102.031 36.5486 102.589 35.7769C103.147 35.0051 103.39 34.0499 103.27 33.1052C103.149 32.1605 102.674 31.297 101.94 30.69L96.15 25.87ZM75 16.25C75 15.2554 74.6049 14.3016 73.9017 13.5983C73.1984 12.8951 72.2446 12.5 71.25 12.5H48.75L48.24 12.535C47.2988 12.6645 46.4418 13.1465 45.8422 13.8835C45.2426 14.6205 44.9451 15.5577 45.0099 16.5056C45.0746 17.4535 45.4968 18.3415 46.1911 18.9901C46.8853 19.6388 47.7999 19.9997 48.75 20H71.25L71.76 19.965C72.6578 19.8418 73.4806 19.3976 74.0762 18.7147C74.6718 18.0317 75 17.1562 75 16.25ZM91.25 90C91.25 89.0054 91.6451 88.0516 92.3484 87.3483C93.0516 86.6451 94.0054 86.25 95 86.25C97.635 86.25 100.29 85.325 102.22 83.885C104.17 82.425 105 80.77 105 79.375C105 76.125 101.675 72.5 96.25 72.5C93.67 72.5 91.185 73.45 89.225 74.53C88.1768 75.1097 87.1828 75.7824 86.255 76.54L86.24 76.555C85.493 77.1852 84.5295 77.4988 83.5547 77.4292C82.5799 77.3595 81.6708 76.9121 81.021 76.1821C80.3712 75.4521 80.032 74.4973 80.0757 73.521C80.1195 72.5447 80.5426 71.624 81.255 70.955V70.945L81.27 70.94L81.295 70.915L81.37 70.85C81.7321 70.5337 82.1092 70.2351 82.5 69.955C83.24 69.405 84.295 68.69 85.6 67.97C88.16 66.55 91.925 65 96.25 65C104.63 65 112.5 70.89 112.5 79.375C112.5 83.85 109.9 87.505 106.71 89.895L106.56 90L106.71 90.105C109.905 92.495 112.5 96.155 112.5 100.625C112.5 109.115 104.63 115 96.25 115C91.925 115 88.16 113.45 85.6 112.03C84.1051 111.201 82.6891 110.237 81.37 109.15L81.295 109.085L81.27 109.06L81.26 109.055L81.25 109.045C80.5074 108.383 80.0581 107.454 80.0009 106.461C79.9437 105.468 80.2833 104.493 80.945 103.75C81.6067 103.007 82.5363 102.558 83.5293 102.501C84.5223 102.444 85.4974 102.783 86.24 103.445L86.255 103.46L86.355 103.54C86.3617 103.55 86.3717 103.558 86.385 103.565C86.5083 103.668 86.7017 103.818 86.965 104.015C87.49 104.41 88.265 104.94 89.225 105.465C91.185 106.55 93.675 107.5 96.25 107.5C101.675 107.5 105 103.875 105 100.625C105 99.225 104.175 97.575 102.22 96.115C100.12 94.5906 97.5949 93.7635 95 93.75C94.0054 93.75 93.0516 93.3549 92.3484 92.6517C91.6451 91.9484 91.25 90.9946 91.25 90Z" fill="currentColor"/>
    </symbol>
</svg>
