<svg xmlns="http://www.w3.org/2000/svg">
    <symbol id="triangle-down-square" viewBox="0 0 120 120">
        <path fill-rule="evenodd" clip-rule="evenodd" d="M31 15C22.1634 15 15 22.1634 15 31V89C15 97.8366 22.1634 105 31 105H89C97.8366 105 105 97.8366 105 89V31C105 22.1634 97.8366 15 89 15H31ZM83.9302 55.9249C86.356 53.2224 84.3893 49 80.7094 49L40.2884 49C36.6119 49 34.6452 53.2224 37.0676 55.9249L55.9881 77.0037C56.5509 77.6307 57.2447 78.1333 58.0229 78.4776C58.8012 78.8219 59.646 79 60.5006 79C61.3553 79 62.2 78.8219 62.9783 78.4776C63.7566 78.1333 64.4504 77.6307 65.0132 77.0037L83.9302 55.9249Z" fill="currentColor"/>
    </symbol>
</svg>
