<svg xmlns="http://www.w3.org/2000/svg">
    <symbol id="triangle-up-square" viewBox="0 0 120 120">
        <path fill-rule="evenodd" clip-rule="evenodd" d="M31 15C22.1634 15 15 22.1634 15 31V89C15 97.8366 22.1634 105 31 105H89C97.8366 105 105 97.8366 105 89V31C105 22.1634 97.8366 15 89 15H31ZM37.0698 68.0751C34.644 70.7776 36.6107 75 40.2906 75H80.7116C84.3881 75 86.3548 70.7776 83.9324 68.0751L65.0119 46.9963C64.4491 46.3693 63.7553 45.8667 62.9771 45.5224C62.1988 45.1781 61.354 45 60.4994 45C59.6447 45 58.8 45.1781 58.0217 45.5224C57.2434 45.8667 56.5496 46.3693 55.9868 46.9963L37.0698 68.0751Z" fill="currentColor"/>
    </symbol>
</svg>