<svg xmlns="http://www.w3.org/2000/svg">
    <symbol id="unlock" viewBox="0 0 120 120">
        <path d="M80 25C80 21.6848 81.317 18.5054 83.6612 16.1612C86.0054 13.817 89.1848 12.5 92.5 12.5C95.8152 12.5 98.9946 13.817 101.339 16.1612C103.683 18.5054 105 21.6848 105 25V26.25C105 27.2446 105.395 28.1984 106.098 28.9017C106.802 29.6049 107.755 30 108.75 30C109.745 30 110.698 29.6049 111.402 28.9017C112.105 28.1984 112.5 27.2446 112.5 26.25V25C112.5 19.6957 110.393 14.6086 106.642 10.8579C102.891 7.10714 97.8043 5 92.5 5C87.1957 5 82.1086 7.10714 78.3579 10.8579C74.6071 14.6086 72.5 19.6957 72.5 25V35H36.25C31.9402 35 27.807 36.712 24.7595 39.7595C21.712 42.807 20 46.9402 20 51.25V88.75C20 93.0598 21.712 97.193 24.7595 100.24C27.807 103.288 31.9402 105 36.25 105H83.75C88.0598 105 92.193 103.288 95.2405 100.24C98.288 97.193 100 93.0598 100 88.75V51.25C100 46.9402 98.288 42.807 95.2405 39.7595C92.193 36.712 88.0598 35 83.75 35H80V25ZM36.25 42.5H83.75C88.58 42.5 92.5 46.42 92.5 51.25V88.75C92.5 91.0706 91.5781 93.2962 89.9372 94.9372C88.2962 96.5781 86.0706 97.5 83.75 97.5H36.25C33.9294 97.5 31.7038 96.5781 30.0628 94.9372C28.4219 93.2962 27.5 91.0706 27.5 88.75V51.25C27.5 46.42 31.42 42.5 36.25 42.5ZM60 77.5C61.9891 77.5 63.8968 76.7098 65.3033 75.3033C66.7098 73.8968 67.5 71.9891 67.5 70C67.5 68.0109 66.7098 66.1032 65.3033 64.6967C63.8968 63.2902 61.9891 62.5 60 62.5C58.0109 62.5 56.1032 63.2902 54.6967 64.6967C53.2902 66.1032 52.5 68.0109 52.5 70C52.5 71.9891 53.2902 73.8968 54.6967 75.3033C56.1032 76.7098 58.0109 77.5 60 77.5Z" fill="currentColor"/>
    </symbol>
</svg>