<svg xmlns="http://www.w3.org/2000/svg">
    <symbol id="user-edit" viewBox="0 0 120 120">
        <path d="M74.28 77.5L81.78 70H31.26C28.2763 70 25.4148 71.1853 23.3051 73.2951C21.1953 75.4048 20.01 78.2663 20.01 81.25V84.135C20.01 88.595 21.61 92.915 24.51 96.31C31.485 104.48 41.72 108.965 54.995 109.845C54.9717 108.932 55.0783 107.997 55.315 107.04L56.465 102.42C44.6 101.82 35.925 98.13 30.21 91.44C28.469 89.4041 27.5116 86.8138 27.51 84.135V81.245C27.5113 80.2513 27.907 79.2988 28.6101 78.5966C29.3132 77.8944 30.2663 77.5 31.26 77.5H74.28ZM60 10.025C63.2831 10.025 66.534 10.6716 69.5671 11.928C72.6002 13.1844 75.3562 15.0259 77.6777 17.3473C79.9991 19.6688 81.8406 22.4248 83.097 25.4579C84.3534 28.4911 85 31.742 85 35.025C85 38.308 84.3534 41.5589 83.097 44.5921C81.8406 47.6252 79.9991 50.3812 77.6777 52.7027C75.3562 55.0241 72.6002 56.8656 69.5671 58.122C66.534 59.3784 63.2831 60.025 60 60.025C53.3696 60.025 47.0108 57.3911 42.3223 52.7027C37.6339 48.0143 35 41.6554 35 35.025C35 28.3946 37.6339 22.0357 42.3223 17.3473C47.0108 12.6589 53.3696 10.025 60 10.025ZM60 17.525C57.7019 17.525 55.4262 17.9777 53.3031 18.8571C51.1799 19.7366 49.2507 21.0256 47.6256 22.6506C46.0006 24.2757 44.7116 26.2048 43.8321 28.328C42.9527 30.4512 42.5 32.7269 42.5 35.025C42.5 37.3231 42.9527 39.5988 43.8321 41.722C44.7116 43.8452 46.0006 45.7743 47.6256 47.3994C49.2507 49.0244 51.1799 50.3134 53.3031 51.1929C55.4262 52.0724 57.7019 52.525 60 52.525C64.6413 52.525 69.0925 50.6813 72.3744 47.3994C75.6563 44.1175 77.5 39.6663 77.5 35.025C77.5 30.3837 75.6563 25.9325 72.3744 22.6506C69.0925 19.3687 64.6413 17.525 60 17.525ZM95.5 63.35L65.985 92.86C64.2682 94.5825 63.0486 96.7367 62.455 99.095L60.165 108.25C59.9373 109.161 59.9494 110.115 60.2002 111.02C60.451 111.925 60.9319 112.749 61.596 113.413C62.2602 114.077 63.085 114.557 63.99 114.807C64.895 115.057 65.8493 115.068 66.76 114.84L75.91 112.555C78.2707 111.961 80.4268 110.739 82.15 109.02L111.66 79.51C113.721 77.3503 114.854 74.4703 114.819 71.4856C114.784 68.5009 113.583 65.6483 111.472 63.5376C109.362 61.427 106.509 60.2257 103.524 60.1907C100.54 60.1556 97.6597 61.2895 95.5 63.35Z" fill="currentColor"/>
    </symbol>
</svg>