<svg xmlns="http://www.w3.org/2000/svg">
    <symbol id="user-add" viewBox="0 0 120 120">
        <path d="M87.5 60C94.7935 60 101.788 62.8973 106.945 68.0546C112.103 73.2118 115 80.2065 115 87.5C115 94.7935 112.103 101.788 106.945 106.945C101.788 112.103 94.7935 115 87.5 115C80.2066 115 73.2118 112.103 68.0546 106.945C62.8973 101.788 60 94.7935 60 87.5C60 80.2065 62.8973 73.2118 68.0546 68.0546C73.2118 62.8973 80.2066 60 87.5 60ZM60.115 70C58.6178 72.3383 57.4265 74.8588 56.57 77.5H21.265C20.2705 77.5 19.3166 77.8951 18.6134 78.5984C17.9101 79.3016 17.515 80.2554 17.515 81.25V84.135C17.515 86.81 18.475 89.4 20.215 91.435C26.48 98.78 36.315 102.505 50 102.505C52.9867 102.505 55.7867 102.328 58.4 101.975C59.63 104.45 61.165 106.745 62.96 108.81C58.9834 109.61 54.6634 110.01 50 110.01C34.275 110.01 22.34 105.48 14.51 96.31C11.6119 92.9154 10.0199 88.5984 10.02 84.135V81.245C10.0213 78.2631 11.2065 75.4036 13.3151 73.2951C15.4236 71.1865 18.2831 70.0013 21.265 70H60.115ZM87.5 70L87.05 70.04C86.5505 70.1313 86.0906 70.3725 85.7315 70.7315C85.3725 71.0906 85.1313 71.5505 85.04 72.05L85 72.5V85H72.52L72.07 85.04C71.5705 85.1313 71.1106 85.3725 70.7515 85.7315C70.3925 86.0906 70.1513 86.5505 70.06 87.05L70.02 87.5L70.06 87.95C70.1513 88.4495 70.3925 88.9094 70.7515 89.2685C71.1106 89.6275 71.5705 89.8687 72.07 89.96L72.52 90H85V102.5L85.04 102.95C85.1313 103.45 85.3725 103.909 85.7315 104.268C86.0906 104.628 86.5505 104.869 87.05 104.96L87.5 105L87.95 104.96C88.4495 104.869 88.9094 104.628 89.2685 104.268C89.6276 103.909 89.8688 103.45 89.96 102.95L90 102.5V90H102.52L102.97 89.96C103.47 89.8687 103.929 89.6275 104.288 89.2685C104.648 88.9094 104.889 88.4495 104.98 87.95L105.02 87.5L104.98 87.05C104.889 86.5505 104.648 86.0906 104.288 85.7315C103.929 85.3725 103.47 85.1313 102.97 85.04L102.52 85H90V72.5L89.96 72.05C89.8688 71.5505 89.6276 71.0906 89.2685 70.7315C88.9094 70.3725 88.4495 70.1313 87.95 70.04L87.5 70ZM50 10.025C53.2831 10.025 56.534 10.6716 59.5671 11.928C62.6002 13.1844 65.3562 15.0259 67.6777 17.3473C69.9992 19.6688 71.8406 22.4248 73.097 25.4579C74.3534 28.4911 75 31.742 75 35.025C75 38.308 74.3534 41.5589 73.097 44.5921C71.8406 47.6252 69.9992 50.3812 67.6777 52.7027C65.3562 55.0241 62.6002 56.8656 59.5671 58.122C56.534 59.3784 53.2831 60.025 50 60.025C43.3696 60.025 37.0108 57.3911 32.3224 52.7027C27.6339 48.0143 25 41.6554 25 35.025C25 28.3946 27.6339 22.0357 32.3224 17.3473C37.0108 12.6589 43.3696 10.025 50 10.025ZM50 17.525C47.7019 17.525 45.4263 17.9777 43.3031 18.8571C41.1799 19.7366 39.2507 21.0256 37.6257 22.6506C36.0006 24.2757 34.7116 26.2048 33.8321 28.328C32.9527 30.4512 32.5 32.7269 32.5 35.025C32.5 37.3231 32.9527 39.5988 33.8321 41.722C34.7116 43.8452 36.0006 45.7743 37.6257 47.3994C39.2507 49.0244 41.1799 50.3134 43.3031 51.1929C45.4263 52.0724 47.7019 52.525 50 52.525C54.6413 52.525 59.0925 50.6813 62.3744 47.3994C65.6563 44.1175 67.5 39.6663 67.5 35.025C67.5 30.3837 65.6563 25.9325 62.3744 22.6506C59.0925 19.3687 54.6413 17.525 50 17.525Z" fill="currentColor"/>
    </symbol>
</svg>
