<svg xmlns="http://www.w3.org/2000/svg">
    <symbol id="user-find" viewBox="0 0 120 120">
        <path d="M59.5502 69.995L98.7652 70C101.749 70 104.61 71.1853 106.72 73.2951C108.83 75.4048 110.015 78.2663 110.015 81.25V85.775C110.015 88.4769 109.431 91.1469 108.303 93.6021C107.175 96.0573 105.53 98.2398 103.48 100C95.6502 106.725 84.4502 110.01 70.0002 110.01H69.1052C69.6797 108.845 69.9892 107.568 70.0117 106.27C70.0342 104.971 69.769 103.684 69.2352 102.5L70.0002 102.51C82.8002 102.51 92.2902 99.73 98.5952 94.315C99.825 93.2588 100.812 91.9493 101.489 90.4761C102.165 89.003 102.515 87.4011 102.515 85.78V81.255C102.515 80.2604 102.12 79.3066 101.417 78.6033C100.714 77.9001 99.7598 77.505 98.7652 77.505H59.8852C60.1112 74.9996 59.9985 72.4753 59.5502 70M32.5002 52.5C36.7745 52.5002 40.9604 53.7178 44.5678 56.0105C48.1752 58.3031 51.0549 61.5758 52.87 65.4456C54.685 69.3154 55.3602 73.6222 54.8166 77.8617C54.2729 82.1013 52.5329 86.0984 49.8002 89.385L63.9152 103.455C64.5817 104.124 64.9711 105.02 65.0056 105.964C65.0402 106.908 64.7173 107.83 64.1016 108.546C63.4859 109.262 62.6226 109.72 61.6843 109.827C60.746 109.934 59.8018 109.684 59.0402 109.125L58.6152 108.765L44.1002 94.285C41.1282 96.0712 37.7835 97.1464 34.3274 97.4265C30.8712 97.7066 27.397 97.1841 24.1761 95.8998C20.9553 94.6155 18.0748 92.6041 15.7596 90.0227C13.4444 87.4413 11.7572 84.3598 10.8297 81.0186C9.90214 77.6775 9.75938 74.1672 10.4125 70.7618C11.0657 67.3563 12.4971 64.1479 14.595 61.3871C16.6929 58.6262 19.4006 56.3876 22.5065 54.846C25.6125 53.3044 29.0327 52.5015 32.5002 52.5ZM32.5002 60C28.522 60 24.7067 61.5804 21.8936 64.3934C19.0806 67.2064 17.5002 71.0218 17.5002 75C17.5002 78.9782 19.0806 82.7936 21.8936 85.6066C24.7067 88.4197 28.522 90 32.5002 90C36.4785 90 40.2938 88.4197 43.1068 85.6066C45.9199 82.7936 47.5002 78.9782 47.5002 75C47.5002 71.0218 45.9199 67.2064 43.1068 64.3934C40.2938 61.5804 36.4785 60 32.5002 60ZM70.0002 10.025C73.2833 10.025 76.5342 10.6716 79.5673 11.928C82.6004 13.1844 85.3564 15.0259 87.6779 17.3473C89.9994 19.6688 91.8408 22.4248 93.0972 25.4579C94.3536 28.4911 95.0002 31.742 95.0002 35.025C95.0002 38.308 94.3536 41.5589 93.0972 44.5921C91.8408 47.6252 89.9994 50.3812 87.6779 52.7027C85.3564 55.0241 82.6004 56.8656 79.5673 58.122C76.5342 59.3784 73.2833 60.025 70.0002 60.025C63.3698 60.025 57.011 57.3911 52.3226 52.7027C47.6341 48.0143 45.0002 41.6554 45.0002 35.025C45.0002 28.3946 47.6341 22.0357 52.3226 17.3473C57.011 12.6589 63.3698 10.025 70.0002 10.025ZM70.0002 17.525C67.7021 17.525 65.4265 17.9777 63.3033 18.8571C61.1801 19.7366 59.2509 21.0256 57.6259 22.6506C56.0008 24.2757 54.7118 26.2048 53.8323 28.328C52.9529 30.4512 52.5002 32.7269 52.5002 35.025C52.5002 37.3231 52.9529 39.5988 53.8323 41.722C54.7118 43.8452 56.0008 45.7743 57.6259 47.3994C59.2509 49.0244 61.1801 50.3134 63.3033 51.1929C65.4265 52.0724 67.7021 52.525 70.0002 52.525C74.6415 52.525 79.0927 50.6813 82.3746 47.3994C85.6565 44.1175 87.5002 39.6663 87.5002 35.025C87.5002 30.3837 85.6565 25.9325 82.3746 22.6506C79.0927 19.3687 74.6415 17.525 70.0002 17.525Z" fill="currentColor"/>
    </symbol>
</svg>