<svg xmlns="http://www.w3.org/2000/svg">
    <symbol id="user-circle" viewBox="0 0 120 120">
        <path d="M85 67.5C85 65.5109 84.2098 63.6032 82.8033 62.1967C81.3968 60.7902 79.4891 60 77.5 60H42.5C40.5109 60 38.6032 60.7902 37.1967 62.1967C35.7902 63.6032 35 65.5109 35 67.5V70C35 79.855 44.3 90 60 90C75.7 90 85 79.855 85 70V67.5ZM73.75 41.25C73.75 37.6033 72.3013 34.1059 69.7227 31.5273C67.1441 28.9487 63.6467 27.5 60 27.5C56.3533 27.5 52.8559 28.9487 50.2773 31.5273C47.6987 34.1059 46.25 37.6033 46.25 41.25C46.25 44.8967 47.6987 48.3941 50.2773 50.9727C52.8559 53.5513 56.3533 55 60 55C63.6467 55 67.1441 53.5513 69.7227 50.9727C72.3013 48.3941 73.75 44.8967 73.75 41.25ZM110 60C110 87.615 87.615 110 60 110C32.385 110 10 87.615 10 60C10 32.385 32.385 10 60 10C87.615 10 110 32.385 110 60ZM102.5 60C102.5 48.7283 98.0223 37.9183 90.052 29.948C82.0817 21.9777 71.2717 17.5 60 17.5C48.7283 17.5 37.9183 21.9777 29.948 29.948C21.9777 37.9183 17.5 48.7283 17.5 60C17.5 71.2717 21.9777 82.0817 29.948 90.052C37.9183 98.0223 48.7283 102.5 60 102.5C71.2717 102.5 82.0817 98.0223 90.052 90.052C98.0223 82.0817 102.5 71.2717 102.5 60Z" fill="currentColor"/>
    </symbol>
</svg>