<svg xmlns="http://www.w3.org/2000/svg">
    <symbol id="user-mail" viewBox="0 0 120 120">
        <path d="M54.9999 77.5C54.9999 74.685 55.9299 72.09 57.4999 70H26.2649C23.2812 70 20.4197 71.1853 18.3099 73.2951C16.2002 75.4049 15.0149 78.2663 15.0149 81.25V84.135C15.0149 88.595 16.6149 92.915 19.5149 96.31C27.3399 105.48 39.2749 110.01 54.9999 110.01H55.2499C55.0821 109.184 54.9984 108.343 54.9999 107.5V102.505C41.3099 102.505 31.4799 98.78 25.2149 91.44C23.4739 89.4041 22.5165 86.8138 22.5149 84.135V81.245C22.5162 80.2513 22.9119 79.2988 23.615 78.5966C24.3181 77.8944 25.2712 77.5 26.2649 77.5H54.9999ZM54.9999 10.025C61.6303 10.025 67.9892 12.6589 72.6776 17.3474C77.366 22.0358 79.9999 28.3946 79.9999 35.025C79.9999 41.6554 77.366 48.0143 72.6776 52.7027C67.9892 57.3911 61.6303 60.025 54.9999 60.025C48.3695 60.025 42.0106 57.3911 37.3222 52.7027C32.6338 48.0143 29.9999 41.6554 29.9999 35.025C29.9999 28.3946 32.6338 22.0358 37.3222 17.3474C42.0106 12.6589 48.3695 10.025 54.9999 10.025ZM54.9999 17.525C52.7018 17.525 50.4261 17.9777 48.3029 18.8571C46.1797 19.7366 44.2505 21.0256 42.6255 22.6507C41.0005 24.2757 39.7115 26.2049 38.832 28.3281C37.9525 30.4513 37.4999 32.7269 37.4999 35.025C37.4999 37.3232 37.9525 39.5988 38.832 41.722C39.7115 43.8452 41.0005 45.7744 42.6255 47.3994C44.2505 49.0244 46.1797 50.3135 48.3029 51.1929C50.4261 52.0724 52.7018 52.525 54.9999 52.525C59.6412 52.525 64.0924 50.6813 67.3743 47.3994C70.6561 44.1175 72.4999 39.6663 72.4999 35.025C72.4999 30.3837 70.6561 25.9325 67.3743 22.6507C64.0924 19.3688 59.6412 17.525 54.9999 17.525ZM87.5499 94.635L60.0999 78.62C60.4328 76.2308 61.6182 74.0424 63.4375 72.4582C65.2569 70.8741 67.5875 70.0011 69.9999 70H105C107.626 69.9997 110.147 71.0327 112.018 72.8757C113.89 74.7188 114.96 77.2239 115 79.85L87.5499 94.635ZM88.6849 99.705L115.005 85.535V105C115.005 107.652 113.951 110.196 112.076 112.071C110.201 113.946 107.657 115 105.005 115H70.0049C67.3527 115 64.8092 113.946 62.9338 112.071C61.0585 110.196 60.0049 107.652 60.0049 105V84.35L86.2449 99.66C86.6145 99.8763 87.0334 99.994 87.4615 100.002C87.8896 100.01 88.3126 99.9075 88.6899 99.705" fill="currentColor"/>
    </symbol>
</svg>
