<svg xmlns="http://www.w3.org/2000/svg">
    <symbol id="user" viewBox="0 0 120 120">
        <path d="M88.775 70C91.757 70.0026 94.6159 71.1891 96.7235 73.2986C98.8311 75.4081 100.015 78.268 100.015 81.25V84.125C100.015 88.595 98.415 92.92 95.515 96.315C87.665 105.48 75.73 110.005 60 110.005C44.27 110.005 32.34 105.48 24.51 96.305C21.6131 92.9117 20.0211 88.5967 20.02 84.135V81.245C20.0213 78.263 21.2065 75.4036 23.3151 73.295C25.4236 71.1865 28.2831 70.0013 31.265 70H88.775ZM88.775 77.5H31.26C30.2655 77.5 29.3116 77.8951 28.6084 78.5983C27.9051 79.3016 27.51 80.2554 27.51 81.25V84.135C27.51 86.81 28.47 89.4 30.21 91.435C36.475 98.78 46.31 102.505 59.995 102.505C73.69 102.505 83.525 98.78 89.81 91.44C91.5533 89.4015 92.5108 86.8072 92.51 84.125V81.245C92.5087 80.253 92.1144 79.302 91.4134 78.6001C90.7125 77.8982 89.767 77.5026 88.775 77.5ZM60 10.025C63.2831 10.025 66.534 10.6716 69.5671 11.928C72.6002 13.1844 75.3562 15.0259 77.6777 17.3473C79.9992 19.6688 81.8406 22.4248 83.097 25.4579C84.3534 28.491 85 31.7419 85 35.025C85 38.308 84.3534 41.5589 83.097 44.5921C81.8406 47.6252 79.9992 50.3812 77.6777 52.7027C75.3562 55.0241 72.6002 56.8656 69.5671 58.122C66.534 59.3783 63.2831 60.025 60 60.025C53.3696 60.025 47.0108 57.3911 42.3223 52.7027C37.6339 48.0143 35 41.6554 35 35.025C35 28.3946 37.6339 22.0357 42.3223 17.3473C47.0108 12.6589 53.3696 10.025 60 10.025ZM60 17.525C57.7019 17.525 55.4263 17.9776 53.3031 18.8571C51.1799 19.7366 49.2507 21.0256 47.6257 22.6506C46.0006 24.2756 44.7116 26.2048 43.8321 28.328C42.9527 30.4512 42.5 32.7269 42.5 35.025C42.5 37.3231 42.9527 39.5988 43.8321 41.722C44.7116 43.8452 46.0006 45.7743 47.6257 47.3994C49.2507 49.0244 51.1799 50.3134 53.3031 51.1929C55.4263 52.0723 57.7019 52.525 60 52.525C64.6413 52.525 69.0925 50.6812 72.3744 47.3994C75.6563 44.1175 77.5 39.6663 77.5 35.025C77.5 30.3837 75.6563 25.9325 72.3744 22.6506C69.0925 19.3687 64.6413 17.525 60 17.525Z" fill="currentColor"/>
    </symbol>
</svg>
