<svg xmlns="http://www.w3.org/2000/svg">
    <symbol id="user-check" viewBox="0 0 120 120">
        <path d="M87.5 60C94.7935 60 101.788 62.8973 106.945 68.0546C112.103 73.2118 115 80.2065 115 87.5C115 94.7935 112.103 101.788 106.945 106.945C101.788 112.103 94.7935 115 87.5 115C80.2066 115 73.2118 112.103 68.0546 106.945C62.8973 101.788 60 94.7935 60 87.5C60 80.2065 62.8973 73.2118 68.0546 68.0546C73.2118 62.8973 80.2066 60 87.5 60ZM74.27 85.735C74.0394 85.4962 73.7635 85.3058 73.4585 85.1747C73.1535 85.0437 72.8255 84.9748 72.4935 84.9719C72.1616 84.969 71.8324 85.0322 71.5251 85.1579C71.2179 85.2837 70.9388 85.4693 70.704 85.704C70.4693 85.9387 70.2837 86.2179 70.158 86.5251C70.0323 86.8324 69.969 87.1616 69.9719 87.4935C69.9748 87.8255 70.0437 88.1535 70.1748 88.4585C70.3058 88.7635 70.4962 89.0394 70.735 89.27L80.735 99.27C81.2038 99.7387 81.8396 100.002 82.5025 100.002C83.1654 100.002 83.8012 99.7387 84.27 99.27L104.27 79.27C104.509 79.0394 104.699 78.7635 104.83 78.4585C104.961 78.1535 105.03 77.8254 105.033 77.4935C105.036 77.1616 104.973 76.8324 104.847 76.5251C104.721 76.2179 104.536 75.9387 104.301 75.704C104.066 75.4693 103.787 75.2837 103.48 75.1579C103.173 75.0322 102.843 74.969 102.512 74.9719C102.18 74.9748 101.852 75.0437 101.547 75.1747C101.241 75.3058 100.966 75.4962 100.735 75.735L82.5 93.965L74.27 85.735ZM60.115 70C58.6178 72.3383 57.4265 74.8588 56.57 77.5H21.265C20.2705 77.5 19.3166 77.8951 18.6134 78.5984C17.9101 79.3016 17.515 80.2554 17.515 81.25V84.135C17.515 86.81 18.475 89.4 20.215 91.435C26.48 98.78 36.315 102.505 50 102.505C52.9867 102.505 55.7867 102.328 58.4 101.975C59.63 104.45 61.165 106.745 62.96 108.81C58.9834 109.61 54.6634 110.01 50 110.01C34.275 110.01 22.34 105.48 14.51 96.31C11.6119 92.9154 10.0199 88.5984 10.02 84.135V81.245C10.0213 78.2631 11.2065 75.4036 13.3151 73.2951C15.4236 71.1865 18.2831 70.0013 21.265 70H60.115ZM50 10.025C53.2831 10.025 56.534 10.6716 59.5671 11.928C62.6002 13.1844 65.3562 15.0259 67.6777 17.3473C69.9992 19.6688 71.8406 22.4248 73.097 25.4579C74.3534 28.4911 75 31.742 75 35.025C75 38.308 74.3534 41.5589 73.097 44.5921C71.8406 47.6252 69.9992 50.3812 67.6777 52.7027C65.3562 55.0241 62.6002 56.8656 59.5671 58.122C56.534 59.3784 53.2831 60.025 50 60.025C43.3696 60.025 37.0108 57.3911 32.3224 52.7027C27.6339 48.0143 25 41.6554 25 35.025C25 28.3946 27.6339 22.0357 32.3224 17.3473C37.0108 12.6589 43.3696 10.025 50 10.025ZM50 17.525C47.7019 17.525 45.4263 17.9777 43.3031 18.8571C41.1799 19.7366 39.2507 21.0256 37.6257 22.6506C36.0006 24.2757 34.7116 26.2048 33.8321 28.328C32.9527 30.4512 32.5 32.7269 32.5 35.025C32.5 37.3231 32.9527 39.5988 33.8321 41.722C34.7116 43.8452 36.0006 45.7743 37.6257 47.3994C39.2507 49.0244 41.1799 50.3134 43.3031 51.1929C45.4263 52.0724 47.7019 52.525 50 52.525C54.6413 52.525 59.0925 50.6813 62.3744 47.3994C65.6563 44.1175 67.5 39.6663 67.5 35.025C67.5 30.3837 65.6563 25.9325 62.3744 22.6506C59.0925 19.3687 54.6413 17.525 50 17.525Z" fill="currentColor"/>
    </symbol>
</svg>
